<svg width="67" height="67" viewBox="0 0 67 67" fill="none" xmlns="http://www.w3.org/2000/svg">
<path d="M66.8047 33.4023C66.8047 51.8499 51.8499 66.8047 33.4023 66.8047C14.9547 66.8047 0 51.8499 0 33.4023C0 14.9547 14.9547 0 33.4023 0C51.8499 0 66.8047 14.9547 66.8047 33.4023Z" fill="#AEAEAE"/>
<path d="M30.861 20.3755H20.8403C18.6266 20.3755 16.832 22.17 16.832 24.3838V46.4293C16.832 48.643 18.6266 50.4376 20.8403 50.4376H42.8859C45.0996 50.4376 46.8941 48.643 46.8941 46.4293V36.4086M44.0599 17.5412C45.6252 15.9759 48.1631 15.9759 49.7284 17.5412C51.2938 19.1065 51.2938 21.6444 49.7284 23.2097L32.5213 40.4169H26.8527L26.8527 34.7483L44.0599 17.5412Z" stroke="#F2F4F8" stroke-width="3" stroke-linecap="round" stroke-linejoin="round"/>
</svg>
