<svg width="33" height="32" viewBox="0 0 33 32" fill="none" xmlns="http://www.w3.org/2000/svg">
<path d="M24.5 18.7383C25.0931 18.023 29.4142 12.9322 29.8725 12.3191L33 30.9429L23.402 26.7532L16.5 31.1984L9.59804 26.7532L0 30.9429L3.47794 10.1476L11.1618 6.7754L16.5 10.1987L17.3088 9.68776C17.5515 10.2498 24.1495 18.2274 24.5 18.7383Z" fill="white"/>
<path d="M19.7546 11.2367C20.9509 12.8457 23.1042 15.5446 24.0612 16.7383C24.3005 17.0498 24.779 17.0498 25.0448 16.7383C26.055 15.5446 27.9957 12.9495 29.2717 11.2367C30.2554 9.9392 30.8668 8.4081 30.9997 6.79914C31.0263 6.64344 31.0263 6.48773 31.0263 6.35798C31.0263 2.88055 28.1552 0.0519018 24.5929 0H24.4334C20.8977 0.0259509 18 2.88055 18 6.35798C18 6.48773 18 6.64344 18.0266 6.79914C18.1595 8.4081 18.7975 9.9392 19.7546 11.2367ZM24.5131 2.67294C26.7994 2.67294 28.6071 4.43761 28.6071 6.66939C28.6071 8.90117 26.7994 10.6658 24.5131 10.6658C22.2269 10.6658 20.4192 8.90117 20.4192 6.66939C20.4192 4.43761 22.2269 2.67294 24.5131 2.67294Z" fill="white"/>
</svg>
