<svg width="331" height="267" viewBox="0 0 331 267" fill="none" xmlns="http://www.w3.org/2000/svg">
<path d="M192.5 33V187C192.5 190.038 190.038 192.5 187 192.5H33C29.9624 192.5 27.5 190.038 27.5 187V33C27.5 29.9624 29.9624 27.5 33 27.5H187C190.038 27.5 192.5 29.9624 192.5 33Z" stroke="white" stroke-width="1.5" stroke-linecap="round" stroke-linejoin="round"/>
<path d="M27.5 146.667L91.6667 119.167L192.5 165" stroke="white" stroke-width="1.5" stroke-linecap="round" stroke-linejoin="round"/>
<path d="M146.666 91.6667C136.541 91.6667 128.333 83.4586 128.333 73.3333C128.333 63.2081 136.541 55 146.666 55C156.792 55 165 63.2081 165 73.3333C165 83.4586 156.792 91.6667 146.666 91.6667Z" stroke="white" stroke-width="1.5" stroke-linecap="round" stroke-linejoin="round"/>
<path d="M238.501 248.036L152.489 238.323C149.457 237.981 147.277 235.246 147.619 232.213L164.978 78.4901C165.32 75.458 168.056 73.2776 171.088 73.6199L324.811 90.9784C327.843 91.3208 330.023 94.0563 329.681 97.0884L319.969 183.1" stroke="white" stroke-width="1.5" stroke-linecap="round" stroke-linejoin="round"/>
<path d="M295.47 235.935L292.37 263.385M268.019 232.835L295.47 235.935L268.019 232.835ZM322.921 239.035L295.47 235.935L322.921 239.035ZM295.47 235.935L298.57 208.484L295.47 235.935Z" stroke="white" stroke-width="1.5" stroke-linecap="round" stroke-linejoin="round"/>
<path d="M223.018 130.572C219.594 128.067 214.742 130.195 214.266 134.411L208.136 188.691C207.66 192.907 211.916 196.064 215.812 194.385L266.372 172.608C270.298 170.917 270.899 165.599 267.448 163.075L223.018 130.572Z" stroke="white" stroke-width="1.5" stroke-linecap="round" stroke-linejoin="round"/>
</svg>
