<svg width="53" height="53" viewBox="0 0 53 53" fill="none" xmlns="http://www.w3.org/2000/svg">
<g clip-path="url(#clip0_931_9113)">
<path d="M34.8901 15.1247C35.2693 15.4475 35.9761 15.2356 36.4072 15.1319C37.1577 14.9575 37.8922 14.7619 38.6576 14.7068C39.5186 14.6466 40.4145 14.7532 41.1777 15.1596C41.8878 15.5394 42.4413 16.1451 42.972 16.7465C43.8677 17.7533 44.7521 18.7998 45.2857 20.0419C46.4821 22.8348 45.6836 26.0298 44.2653 28.5769C44.1235 28.8386 43.9709 29.0909 43.7821 29.3234C43.5873 29.5584 43.3514 29.7617 43.1215 29.9626C42.6685 30.3475 41.9874 30.5208 41.4455 30.7266C41.1758 30.8325 39.7102 31.2154 40.1401 31.6426C40.4837 31.9803 40.8299 32.3239 41.176 32.6675C41.5003 32.9924 41.833 33.3207 42.0594 33.7284C42.4397 34.4205 42.4494 35.2608 42.353 36.0478C42.1151 37.9475 41.271 39.766 39.9941 41.2004C38.0241 43.4131 35.0084 44.6609 32.0432 44.478C31.178 44.4283 30.3157 44.2518 29.5294 43.89C28.2203 43.2794 27.4472 42.1654 26.3516 41.298C26.2777 41.2382 25.0384 42.6289 24.9088 42.7529C24.3377 43.3059 23.7205 43.8153 23.0174 44.1862C22.2218 44.6028 21.3433 44.8378 20.4661 45.0094C18.7152 45.3442 16.8609 45.4153 15.1893 44.7888C13.602 44.197 12.0246 42.945 11.0866 41.5372C10.5209 40.6853 9.99943 39.6057 9.95682 38.5698C9.92136 37.6845 10.2568 36.8185 10.6845 36.0395C11.2598 34.9964 11.968 34.0372 12.4794 32.958C12.4053 33.1146 10.8007 32.5648 10.6254 32.5126C9.86494 32.2795 9.11435 31.9864 8.44525 31.5546C5.98895 29.9866 5.04223 26.2728 5.08183 23.5488C5.09176 22.8888 5.10762 22.2262 5.28298 21.5946C5.4973 20.856 5.91721 20.1919 6.33271 19.5506C7.31536 18.03 8.41878 16.8147 10.0739 16.0176C12.1432 15.0262 14.1157 15.1709 16.3175 15.3801C16.3103 13.1782 16.3646 10.3225 17.9097 8.76196C20.3467 6.29795 23.8755 5.44261 27.2388 5.92643C27.6761 5.98768 28.1115 6.07766 28.5365 6.19291C29.874 6.5544 31.1233 7.23887 32.1694 8.15488C33.4882 9.30569 34.6004 10.6965 34.7065 12.5012C34.7497 13.2716 34.6889 14.0436 34.7406 14.8175C34.7502 14.9739 34.8034 15.0843 34.8797 15.15L34.8901 15.1247Z" fill="#FCD228"/>
<path d="M28.1161 25.2016C28.185 26.6171 27.0969 27.819 25.6813 27.8879C24.2658 27.9568 23.0639 26.8687 22.995 25.4532C22.9261 24.0376 24.0142 22.8357 25.4297 22.7668C26.8453 22.6979 28.0472 23.786 28.1161 25.2016Z" fill="#D7363C"/>
<path d="M24.4462 13.4444L24.7385 19.3299" stroke="#D7363C" stroke-width="2" stroke-linecap="round" stroke-linejoin="round"/>
<path d="M18.2307 16.7007L20.8532 19.8669" stroke="#D7363C" stroke-width="2" stroke-linecap="round" stroke-linejoin="round"/>
<path d="M12.5706 22.8855L18.3425 23.1222" stroke="#D7363C" stroke-width="2" stroke-linecap="round" stroke-linejoin="round"/>
<path d="M12.8473 28.5335L19.1478 26.8813" stroke="#D7363C" stroke-width="2" stroke-linecap="round" stroke-linejoin="round"/>
<path d="M22.644 29.5842L18.8884 35.4677" stroke="#D7363C" stroke-width="2" stroke-linecap="round" stroke-linejoin="round"/>
<path d="M25.8323 30.867L25.5093 34.7981" stroke="#D7363C" stroke-width="2" stroke-linecap="round" stroke-linejoin="round"/>
<path d="M29.499 29.5911L32.879 34.0173" stroke="#D7363C" stroke-width="2" stroke-linecap="round" stroke-linejoin="round"/>
<path d="M31.2488 26.0679L36.8631 25.8611" stroke="#D7363C" stroke-width="2" stroke-linecap="round" stroke-linejoin="round"/>
<path d="M29.9081 22.547L34.3937 20.4261" stroke="#D7363C" stroke-width="2" stroke-linecap="round" stroke-linejoin="round"/>
<path d="M29.0021 19.5975L31.09 16.0654" stroke="#D7363C" stroke-width="2" stroke-linecap="round" stroke-linejoin="round"/>
</g>
<defs>
<clipPath id="clip0_931_9113">
<rect width="40" height="40.1352" fill="white" transform="translate(0 15.4385) rotate(-22.7035)"/>
</clipPath>
</defs>
</svg>
