<svg width="154" height="25" viewBox="0 0 154 25" fill="none" xmlns="http://www.w3.org/2000/svg">
<path d="M12.5 0C9.18593 0.00370554 6.00866 1.32186 3.66526 3.66526C1.32186 6.00866 0.00370554 9.18593 0 12.5C0.0055527 15.8135 1.3243 18.9897 3.6673 21.3327C6.0103 23.6757 9.1865 24.9944 12.5 25C15.8152 25 18.9946 23.683 21.3388 21.3388C23.683 18.9946 25 15.8152 25 12.5C25 9.18479 23.683 6.00537 21.3388 3.66117C18.9946 1.31696 15.8152 0 12.5 0ZM20.103 19.713C19.401 18.297 18.3172 17.1054 16.974 16.2726C15.6307 15.4397 14.0815 14.9989 12.501 14.9997C10.9206 15.0005 9.37177 15.443 8.02941 16.2773C6.68705 17.1115 5.60453 18.3043 4.904 19.721C3.03491 17.7825 1.99344 15.1928 2 12.5C2 9.71523 3.10625 7.04451 5.07538 5.07538C7.04451 3.10625 9.71523 2 12.5 2C15.2848 2 17.9555 3.10625 19.9246 5.07538C21.8938 7.04451 23 9.71523 23 12.5C23.0063 15.189 21.9675 17.7753 20.103 19.713ZM12.5 5C11.61 5 10.74 5.26392 9.99993 5.75839C9.25991 6.25285 8.68314 6.95566 8.34254 7.77792C8.00195 8.60019 7.91283 9.50499 8.08647 10.3779C8.2601 11.2508 8.68868 12.0526 9.31802 12.682C9.94736 13.3113 10.7492 13.7399 11.6221 13.9135C12.495 14.0872 13.3998 13.9981 14.2221 13.6575C15.0443 13.3169 15.7471 12.7401 16.2416 12.0001C16.7361 11.26 17 10.39 17 9.5C17 8.90905 16.8836 8.32389 16.6575 7.77792C16.4313 7.23196 16.0998 6.73588 15.682 6.31802C15.2641 5.90016 14.768 5.56869 14.2221 5.34254C13.6761 5.1164 13.0909 5 12.5 5Z" fill="#960007"/>
<path d="M53.8516 18H51.1328L48.9766 14.3828L46.8125 18H44.1094L47.5469 12.3984L44.1094 6.79688H46.8125L48.9766 10.4141L51.1328 6.79688H53.8516L50.4141 12.3984L53.8516 18ZM57.1875 7.35938C57.1875 7.55729 57.1484 7.74219 57.0703 7.91406C56.9974 8.08594 56.8958 8.23698 56.7656 8.36719C56.6354 8.49219 56.4818 8.59375 56.3047 8.67188C56.1328 8.74479 55.9479 8.78125 55.75 8.78125C55.5521 8.78125 55.3646 8.74479 55.1875 8.67188C55.0156 8.59375 54.8646 8.49219 54.7344 8.36719C54.6094 8.23698 54.5078 8.08594 54.4297 7.91406C54.3568 7.74219 54.3203 7.55729 54.3203 7.35938C54.3203 7.16667 54.3568 6.98438 54.4297 6.8125C54.5078 6.63542 54.6094 6.48438 54.7344 6.35938C54.8646 6.22917 55.0156 6.1276 55.1875 6.05469C55.3646 5.97656 55.5521 5.9375 55.75 5.9375C55.9479 5.9375 56.1328 5.97656 56.3047 6.05469C56.4818 6.1276 56.6354 6.22917 56.7656 6.35938C56.8958 6.48438 56.9974 6.63542 57.0703 6.8125C57.1484 6.98438 57.1875 7.16667 57.1875 7.35938ZM56.8203 18H54.6719V9.63281H56.8203V18ZM60.5859 18H58.4531V9.63281H58.9688L59.6719 10.4453C60.0156 10.1328 60.4036 9.89323 60.8359 9.72656C61.2734 9.55469 61.7292 9.46875 62.2031 9.46875C62.7135 9.46875 63.1953 9.56771 63.6484 9.76562C64.1016 9.95833 64.4974 10.2266 64.8359 10.5703C65.1745 10.9089 65.4401 11.3073 65.6328 11.7656C65.8307 12.2188 65.9297 12.7031 65.9297 13.2188V18H63.7969V13.2188C63.7969 13 63.7552 12.7943 63.6719 12.6016C63.5885 12.4036 63.474 12.2318 63.3281 12.0859C63.1823 11.9401 63.013 11.8255 62.8203 11.7422C62.6276 11.6589 62.4219 11.6172 62.2031 11.6172C61.9792 11.6172 61.7682 11.6589 61.5703 11.7422C61.3724 11.8255 61.2005 11.9401 61.0547 12.0859C60.9089 12.2318 60.7943 12.4036 60.7109 12.6016C60.6276 12.7943 60.5859 13 60.5859 13.2188V18ZM79.25 11.2969L77.6875 12.8672C77.6094 12.6484 77.5026 12.4531 77.3672 12.2812C77.2318 12.1042 77.0781 11.9557 76.9062 11.8359C76.7396 11.7161 76.5573 11.625 76.3594 11.5625C76.1615 11.5 75.9583 11.4688 75.75 11.4688C75.4583 11.4688 75.1823 11.5286 74.9219 11.6484C74.6667 11.7682 74.4427 11.9375 74.25 12.1562C74.0625 12.3698 73.9141 12.625 73.8047 12.9219C73.6953 13.2188 73.6406 13.5469 73.6406 13.9062C73.6406 14.1979 73.6953 14.4714 73.8047 14.7266C73.9141 14.9818 74.0625 15.2057 74.25 15.3984C74.4427 15.5911 74.6667 15.7422 74.9219 15.8516C75.1823 15.9609 75.4583 16.0156 75.75 16.0156C75.9583 16.0156 76.1589 15.987 76.3516 15.9297C76.5443 15.8724 76.724 15.7917 76.8906 15.6875C77.0625 15.5781 77.2135 15.4479 77.3438 15.2969C77.4792 15.1406 77.5885 14.9688 77.6719 14.7812L79.2344 16.3516C79.0365 16.6328 78.8073 16.8854 78.5469 17.1094C78.2917 17.3333 78.013 17.5234 77.7109 17.6797C77.4141 17.8359 77.099 17.9531 76.7656 18.0312C76.4375 18.1146 76.099 18.1562 75.75 18.1562C75.1615 18.1562 74.6068 18.0469 74.0859 17.8281C73.5703 17.6042 73.1172 17.2995 72.7266 16.9141C72.3411 16.5286 72.0365 16.0781 71.8125 15.5625C71.5885 15.0469 71.4766 14.4948 71.4766 13.9062C71.4766 13.2656 71.5885 12.6667 71.8125 12.1094C72.0365 11.5521 72.3411 11.0677 72.7266 10.6562C73.1172 10.2396 73.5703 9.91146 74.0859 9.67188C74.6068 9.43229 75.1615 9.3125 75.75 9.3125C76.099 9.3125 76.4401 9.35677 76.7734 9.44531C77.112 9.53385 77.4323 9.66406 77.7344 9.83594C78.0417 10.0026 78.3229 10.2083 78.5781 10.4531C78.8385 10.6979 79.0625 10.9792 79.25 11.2969ZM82.4297 18H80.2969V6.30469H82.4297V10C82.6849 9.80729 82.9479 9.67188 83.2188 9.59375C83.4896 9.51042 83.7656 9.46875 84.0469 9.46875C84.5625 9.46875 85.0469 9.56771 85.5 9.76562C85.9531 9.95833 86.3464 10.2266 86.6797 10.5703C87.0182 10.9089 87.2839 11.3073 87.4766 11.7656C87.6745 12.2188 87.7734 12.7031 87.7734 13.2188V18H85.625V13.2188H85.6406C85.6406 13 85.599 12.7943 85.5156 12.6016C85.4323 12.4036 85.3177 12.2318 85.1719 12.0859C85.026 11.9401 84.8568 11.8255 84.6641 11.7422C84.4714 11.6589 84.2656 11.6172 84.0469 11.6172C83.8229 11.6172 83.612 11.6589 83.4141 11.7422C83.2161 11.8255 83.0443 11.9401 82.8984 12.0859C82.7526 12.2318 82.638 12.4036 82.5547 12.6016C82.4714 12.7943 82.4297 13 82.4297 13.2188V18ZM97.3906 18H96.875L96.0469 16.8516C95.8438 17.0339 95.6276 17.2057 95.3984 17.3672C95.1745 17.5234 94.9375 17.6615 94.6875 17.7812C94.4375 17.8958 94.1797 17.987 93.9141 18.0547C93.6536 18.1224 93.388 18.1562 93.1172 18.1562C92.5286 18.1562 91.974 18.0573 91.4531 17.8594C90.9375 17.6615 90.4844 17.375 90.0938 17C89.7083 16.6198 89.4036 16.1562 89.1797 15.6094C88.9557 15.0625 88.8438 14.4401 88.8438 13.7422C88.8438 13.0911 88.9557 12.4948 89.1797 11.9531C89.4036 11.4062 89.7083 10.9375 90.0938 10.5469C90.4844 10.1562 90.9375 9.85417 91.4531 9.64062C91.974 9.42188 92.5286 9.3125 93.1172 9.3125C93.388 9.3125 93.6562 9.34635 93.9219 9.41406C94.1875 9.48177 94.4453 9.57552 94.6953 9.69531C94.9453 9.8151 95.1823 9.95573 95.4062 10.1172C95.6354 10.2786 95.849 10.4531 96.0469 10.6406L96.875 9.64844H97.3906V18ZM95.2422 13.7422C95.2422 13.4505 95.1849 13.1693 95.0703 12.8984C94.9609 12.6224 94.8099 12.3802 94.6172 12.1719C94.4245 11.9583 94.1979 11.7891 93.9375 11.6641C93.6823 11.5339 93.4089 11.4688 93.1172 11.4688C92.8255 11.4688 92.5495 11.5182 92.2891 11.6172C92.0339 11.7161 91.8099 11.862 91.6172 12.0547C91.4297 12.2474 91.2812 12.487 91.1719 12.7734C91.0625 13.0547 91.0078 13.3776 91.0078 13.7422C91.0078 14.1068 91.0625 14.4323 91.1719 14.7188C91.2812 15 91.4297 15.237 91.6172 15.4297C91.8099 15.6224 92.0339 15.7682 92.2891 15.8672C92.5495 15.9661 92.8255 16.0156 93.1172 16.0156C93.4089 16.0156 93.6823 15.9531 93.9375 15.8281C94.1979 15.6979 94.4245 15.5286 94.6172 15.3203C94.8099 15.1068 94.9609 14.8646 95.0703 14.5938C95.1849 14.3177 95.2422 14.0339 95.2422 13.7422ZM93.1016 8.67188L90.3672 6.97656L91.6641 5.34375L93.9688 7.50781L93.1016 8.67188ZM107.117 13.7422C107.117 14.3672 107.005 14.9505 106.781 15.4922C106.557 16.0286 106.253 16.4948 105.867 16.8906C105.482 17.2812 105.029 17.5911 104.508 17.8203C103.992 18.0443 103.438 18.1562 102.844 18.1562C102.255 18.1562 101.701 18.0443 101.18 17.8203C100.664 17.5911 100.211 17.2812 99.8203 16.8906C99.4349 16.4948 99.1302 16.0286 98.9062 15.4922C98.6823 14.9505 98.5703 14.3672 98.5703 13.7422C98.5703 13.1068 98.6823 12.5182 98.9062 11.9766C99.1302 11.4349 99.4349 10.9688 99.8203 10.5781C100.211 10.1823 100.664 9.8724 101.18 9.64844C101.701 9.42448 102.255 9.3125 102.844 9.3125C103.438 9.3125 103.992 9.41927 104.508 9.63281C105.029 9.84115 105.482 10.1406 105.867 10.5312C106.253 10.9167 106.557 11.3828 106.781 11.9297C107.005 12.4714 107.117 13.0755 107.117 13.7422ZM104.969 13.7422C104.969 13.3984 104.911 13.0885 104.797 12.8125C104.688 12.5312 104.536 12.2917 104.344 12.0938C104.151 11.8906 103.924 11.737 103.664 11.6328C103.409 11.5234 103.135 11.4688 102.844 11.4688C102.552 11.4688 102.276 11.5234 102.016 11.6328C101.76 11.737 101.536 11.8906 101.344 12.0938C101.156 12.2917 101.008 12.5312 100.898 12.8125C100.789 13.0885 100.734 13.3984 100.734 13.7422C100.734 14.0651 100.789 14.3646 100.898 14.6406C101.008 14.9167 101.156 15.1562 101.344 15.3594C101.536 15.5625 101.76 15.724 102.016 15.8438C102.276 15.9583 102.552 16.0156 102.844 16.0156C103.135 16.0156 103.409 15.9609 103.664 15.8516C103.924 15.7422 104.151 15.5885 104.344 15.3906C104.536 15.1927 104.688 14.9531 104.797 14.6719C104.911 14.3906 104.969 14.0807 104.969 13.7422ZM110.555 15.2344H108.812L108.336 6.79688H111.039L110.555 15.2344ZM111.023 17.2031C111.023 17.3906 110.987 17.5677 110.914 17.7344C110.846 17.8958 110.753 18.0365 110.633 18.1562C110.513 18.276 110.372 18.3698 110.211 18.4375C110.049 18.5104 109.878 18.5469 109.695 18.5469C109.508 18.5469 109.333 18.5104 109.172 18.4375C109.01 18.3698 108.867 18.276 108.742 18.1562C108.622 18.0365 108.526 17.8958 108.453 17.7344C108.385 17.5677 108.352 17.3906 108.352 17.2031C108.352 17.0208 108.385 16.849 108.453 16.6875C108.526 16.526 108.622 16.3854 108.742 16.2656C108.867 16.1458 109.01 16.0521 109.172 15.9844C109.333 15.9115 109.508 15.875 109.695 15.875C109.878 15.875 110.049 15.9115 110.211 15.9844C110.372 16.0521 110.513 16.1458 110.633 16.2656C110.753 16.3854 110.846 16.526 110.914 16.6875C110.987 16.849 111.023 17.0208 111.023 17.2031Z" fill="black"/>
<path d="M137.669 11.0792L132.719 16.0292C132.626 16.1247 132.516 16.2009 132.394 16.2533C132.272 16.3057 132.141 16.3333 132.008 16.3344C131.875 16.3356 131.744 16.3103 131.621 16.26C131.498 16.2097 131.386 16.1355 131.292 16.0416C131.198 15.9477 131.124 15.836 131.074 15.7131C131.023 15.5902 130.998 15.4586 130.999 15.3258C131.001 15.193 131.028 15.0618 131.081 14.9398C131.133 14.8178 131.209 14.7074 131.305 14.6152L136.962 8.95818C137.149 8.77071 137.403 8.6654 137.669 8.6654C137.934 8.6654 138.188 8.77071 138.376 8.95818L144.033 14.6152C144.128 14.7074 144.204 14.8178 144.257 14.9398C144.309 15.0618 144.337 15.193 144.338 15.3258C144.339 15.4586 144.314 15.5902 144.263 15.7131C144.213 15.836 144.139 15.9477 144.045 16.0416C143.951 16.1355 143.839 16.2097 143.717 16.26C143.594 16.3103 143.462 16.3356 143.329 16.3344C143.196 16.3333 143.065 16.3057 142.943 16.2533C142.821 16.2009 142.711 16.1247 142.619 16.0292L137.669 11.0792Z" fill="#960007"/>
</svg>
