<?xml version="1.0" encoding="UTF-8"?><svg id="Layer_1" xmlns="http://www.w3.org/2000/svg" xmlns:xlink="http://www.w3.org/1999/xlink" viewBox="0 0 1920 454"><defs><clipPath id="clippath"><rect x="0" y="0" width="1920" height="454" style="fill:none;"/></clipPath><clipPath id="clippath-1"><rect y=".2102" width="1920" height="445" style="fill:none;"/></clipPath></defs><g style="clip-path:url(#clippath);"><g style="clip-path:url(#clippath-1);"><path d="m1913.4278,406.1754c-38.2581,27.4254-94.0427,27.3989-132.2749-.0625-38.2323-27.4616-56.0706-80.3173-42.2976-125.33-22.977,21.8818-62.5247,23.2936-87.0035,3.1057-24.4787-20.1876-30.622-59.2811-13.5147-86.0034-18.3933,13.0064-46.9233,8.225-60.071-10.0674-24.2305,32.1366-71.6036,44.2852-108.3094,27.7759-36.7058-16.5095-59.0472-60.0141-51.0796-99.4651-65.1624-22.804-119.9632-73.6683-147.5525-136.9531-34.0323,9.4945-68.7104,19.0595-104.0247,17.9508-35.3141-1.1087-72.0103-14.5669-92.8388-43.1065-3.4125-4.6761-6.6633-9.9528-11.9688-12.2688-8.9146-3.8912-18.7344,2.2201-26.8274,7.6162-82.3843,54.9291-196.6686,57.4075-281.3566,6.1017-33.9332,52.2226-101.2805,80.3545-162.2781,67.7854,20.5535,44.8517-24.4151,104.0449-73.1357,96.2692-2.4018,28.9478-21.5299,55.9079-48.0592,67.7374-26.5293,11.8295-59.368,8.0417-82.5076-9.5167-7.9301,34.0206-32.5289,63.7357-64.4701,77.8796,14.679,32.1016,3.6507,73.8505-24.9669,94.5151-28.6176,20.6647-71.7161,18.0005-97.5707-6.0314-34.7614,75.7155-128.7796,118.4781-208.6937,94.921V-184.7443h2056.3738l-135.5722,590.9196Z" style="fill:#ffc65d;"/><path d="m1186.8689-202.1412c1.0517,47.0582.4555,94.2792-.1414,141.5766,44.7462,4.0806,90.8026-5.4279,129.2717-28.7334,27.3092,42.0285,81.5104,64.6691,130.6009,54.5535-16.5415,36.0966,19.6491,83.7351,58.8592,77.4771,1.9332,23.297,17.3274,44.9944,38.6782,54.5148,21.3508,9.5204,47.7792,6.4721,66.4017-7.659,6.3824,27.3797,26.1793,51.2942,51.8854,62.6773-11.8135,25.8352-2.938,59.4346,20.0934,76.0653,23.0312,16.631,57.7171,14.4868,78.5248-4.8541,27.9759,60.9356,103.6413,95.3511,167.956,76.3922V-202.1412h-742.1299Z" style="fill:#ffad2c;"/><path d="m906.2408-228.771H-228L-92.4278,362.1487c38.2581,27.4254,94.0427,27.3989,132.2749-.0625,38.2323-27.4616,56.0705-80.3173,42.2975-125.33,22.977,21.8818,62.5247,23.2936,87.0035,3.1057,24.4789-20.1876,30.622-59.2811,13.5149-86.0034,18.3931,13.0064,46.9231,8.225,60.0708-10.0674,24.2305,32.1366,71.6033,44.2852,108.3094,27.7759,36.7058-16.5095,59.0472-60.0141,51.0796-99.4651,65.1622-22.804,119.9632-73.6683,147.5525-136.9531,34.0322,9.4945,68.7103,19.0595,104.0247,17.9508,35.3144-1.1087,72.0106-14.5669,92.8391-43.1065,3.4125-4.6761,6.6633-9.9528,11.9688-12.2688,8.9146-3.8912,18.7344,2.2201,26.8274,7.6162,35.8847,23.926,77.8226,37.8914,120.7301,41.8045.7415-58.7695,1.4823-117.444.1754-175.9161Z" style="fill:#ffad2c;"/></g><rect x="1524.3761" y="101.7307" width="33.385" height="19.2217" transform="translate(3082.1372 222.683) rotate(180)" style="fill:#362620;"/><rect x="1530.952" y="24.4073" width="20.2332" height="11.6493" transform="translate(3082.1373 60.464) rotate(180)" style="fill:#362620;"/><ellipse cx="1541.199" cy="71.1278" rx="58.301" ry="35.6613" style="fill:#de2726;"/><path d="m1541.0686,106.8786c20.7398,1.5025,42.5014-13.7674,42.5007-35.7509-.0047-21.9806-21.7644-37.247-42.5009-35.7504,14.9261.6261,29.9852,7.2489,37.2075,21.3448,7.3005,13.9231,2.6926,30.7365-9.4036,40.3297-7.7536,6.3499-17.8072,9.6059-27.8037,9.6475v.1794h0Z" style="fill:#fdf7ef;"/><path d="m1541.0686,35.3771c-20.74-1.5025-42.5014,13.7674-42.5007,35.7509.0045,21.9804,21.7644,37.2468,42.5007,35.7504-14.9261-.6264-29.9847-7.2492-37.2073-21.3448-7.3005-13.9233-2.6928-30.7367,9.4036-40.3297,7.7536-6.3499,17.807-9.6059,27.8037-9.6477v-.1791h0Z" style="fill:#fdf7ef;"/><path d="m1541.0686,106.8786c7.0176.0901,10.6447-9.7494,12.4232-15.3038,4.3715-15.4874,4.0427-36.2593-4.1218-50.4465-1.8681-2.7884-4.6138-6.0027-8.3015-5.7512v.1791c3.502.0964,5.871,3.2483,7.4794,6.0359,7.1488,13.8749,7.2131,34.6596,3.5939,49.6302-1.3204,4.8164-2.9999,9.8695-6.6188,13.4568-1.2103,1.1416-2.7686,2.0114-4.4544,2.0201v.1794h0Z" style="fill:#fdf7ef;"/><path d="m1541.0686,35.3771c-7.0176-.0903-10.6449,9.7494-12.4235,15.3038-4.3712,15.4869-4.0427,36.2595,4.122,50.4465,1.8678,2.7884,4.6138,6.0025,8.3015,5.7512v-.1794c-3.5022-.0964-5.871-3.2483-7.4794-6.0359-7.1491-13.8749-7.2131-34.6594-3.5939-49.63,1.3204-4.8166,2.9997-9.8698,6.6188-13.4568,1.2103-1.1416,2.7684-2.0114,4.4544-2.0203v-.1791h0Z" style="fill:#fdf7ef;"/><rect x="1524.3761" y="217.1447" width="33.385" height="19.2215" transform="translate(3082.1372 453.5109) rotate(180)" style="fill:#362620;"/><rect x="1530.952" y="139.8214" width="20.2332" height="11.6493" transform="translate(3082.1373 291.2921) rotate(180)" style="fill:#362620;"/><ellipse cx="1541.0686" cy="186.5418" rx="58.1706" ry="35.6611" style="fill:#eb7325;"/><path d="m1541.0686,222.2924c20.7398,1.5025,42.5014-13.7671,42.5007-35.7509-.0047-21.9804-21.7644-37.2468-42.5009-35.7501,14.9261.6261,29.9852,7.2489,37.2075,21.3448,7.3005,13.9231,2.6926,30.7365-9.4036,40.3294-7.7536,6.3499-17.8072,9.6061-27.8037,9.6477v.1791h0Z" style="fill:#fdf7ef;"/><path d="m1541.0686,150.7911c-20.74-1.5025-42.5014,13.7674-42.5007,35.7509.0045,21.9804,21.7644,37.2468,42.5007,35.7504-14.9261-.6264-29.9847-7.2492-37.2073-21.3448-7.3005-13.9233-2.6928-30.7367,9.4036-40.3297,7.7536-6.3499,17.807-9.6059,27.8037-9.6477v-.1791h0Z" style="fill:#fdf7ef;"/><path d="m1541.0686,222.2924c7.0176.0903,10.6447-9.7491,12.4232-15.3036,4.3715-15.4874,4.0427-36.2593-4.1218-50.4465-1.8681-2.7887-4.6138-6.0027-8.3015-5.7512v.1791c3.502.0964,5.871,3.2483,7.4794,6.0359,7.1488,13.8746,7.2131,34.6596,3.5939,49.6302-1.3204,4.8164-2.9999,9.8695-6.6188,13.4566-1.2103,1.1419-2.7686,2.0116-4.4544,2.0203v.1791h0Z" style="fill:#fdf7ef;"/><path d="m1541.0686,150.7911c-7.0174-.0903-10.6449,9.7494-12.4235,15.3038-4.3712,15.4869-4.0427,36.2593,4.122,50.4463,1.8678,2.7887,4.6138,6.0027,8.3015,5.7514v-.1794c-3.5022-.0964-5.871-3.2483-7.4794-6.0359-7.1488-13.8749-7.2131-34.6596-3.5939-49.6302,1.3204-4.8164,2.9997-9.8695,6.6188-13.4566,1.2103-1.1416,2.7684-2.0114,4.4544-2.0203v-.1791h0Z" style="fill:#fdf7ef;"/><rect x="1540.1728" y="120.9524" width="1.7917" height="18.8688" style="fill:#362620;"/><rect x="1540.1728" y="236.3664" width="1.7917" height="44.3445" style="fill:#362620;"/><path d="m1541.0686,280.7109c2.1607,19.41,5.5318,38.6802,10.1163,57.6649-2.151-19.4116-5.541-38.6784-10.1163-57.6649h0Z" style="fill:#f4b212;"/><path d="m1541.0686,280.7109c5.6679,17.1319,12.4941,33.8773,20.4444,50.0775-5.6587-17.1355-12.503-33.8739-20.4444-50.0775h0Z" style="fill:#f4b212;"/><path d="m1541.0686,280.7109c-4.5753,18.9865-7.9656,38.2533-10.1169,57.6649,4.5851-18.9846,7.9559-38.2548,10.1169-57.6649h0Z" style="fill:#f4b212;"/><path d="m1541.0686,280.7109c-7.9417,16.2036-14.7857,32.942-20.445,50.0772,7.9506-16.1997,14.7768-32.9454,20.445-50.0772h0Z" style="fill:#f4b212;"/><circle cx="1541.0686" cy="280.7109" r="5.3113" style="fill:#f4b212;"/><rect x="1806.2149" y="101.7307" width="33.385" height="19.2217" transform="translate(3645.8149 222.683) rotate(180)" style="fill:#362620;"/><rect x="1812.7908" y="24.4073" width="20.2332" height="11.6493" transform="translate(3645.8149 60.464) rotate(180)" style="fill:#362620;"/><ellipse cx="1822.9075" cy="71.1278" rx="58.1708" ry="35.6613" style="fill:#f7cc1d;"/><path d="m1822.9074,106.8786c20.74,1.5025,42.5015-13.7674,42.5007-35.7509-.0044-21.9806-21.7643-37.247-42.5007-35.7504,14.9261.6261,29.985,7.2489,37.2073,21.3448,7.3005,13.9231,2.6928,30.7365-9.4036,40.3297-7.7536,6.3499-17.807,9.6059-27.8037,9.6475v.1794h0Z" style="fill:#fdf7ef;"/><path d="m1822.9074,35.3771c-20.7397-1.5025-42.5014,13.7674-42.5007,35.7509.0047,21.9806,21.7646,37.2468,42.5009,35.7504-14.9263-.6264-29.985-7.2492-37.2075-21.3448-7.3005-13.9233-2.6925-30.7367,9.4036-40.3297,7.7539-6.3499,17.8072-9.6059,27.8037-9.6477v-.1791h0Z" style="fill:#fdf7ef;"/><path d="m1822.9074,106.8786c7.0176.0901,10.6447-9.7494,12.4235-15.3038,4.3712-15.4874,4.0427-36.259-4.122-50.4465-1.868-2.7884-4.6135-6.0027-8.3015-5.7512v.1791c3.5022.0964,5.871,3.2483,7.4794,6.0359,7.1491,13.8749,7.2131,34.6596,3.5942,49.6302-1.3207,4.8164-2.9999,9.8695-6.6191,13.4568-1.2103,1.1416-2.7684,2.0114-4.4544,2.0201v.1794h0Z" style="fill:#fdf7ef;"/><path d="m1822.9074,35.3771c-7.0174-.0903-10.6447,9.7494-12.4232,15.3038-4.3715,15.4869-4.0427,36.2595,4.122,50.4465,1.8678,2.7884,4.6135,6.0025,8.3012,5.7512v-.1794c-3.502-.0964-5.8708-3.2483-7.4794-6.0359-7.1488-13.8749-7.2131-34.6594-3.5939-49.63,1.3205-4.8166,2.9999-9.8698,6.6191-13.4568,1.2101-1.1416,2.7684-2.0114,4.4542-2.0203v-.1791h0Z" style="fill:#fdf7ef;"/><rect x="1806.2149" y="217.1447" width="33.385" height="19.2215" transform="translate(3645.8149 453.5109) rotate(180)" style="fill:#362620;"/><rect x="1812.7908" y="139.8214" width="20.2332" height="11.6493" transform="translate(3645.8149 291.2921) rotate(180)" style="fill:#362620;"/><ellipse cx="1822.9075" cy="186.5418" rx="58.1708" ry="35.6611" style="fill:#de2726;"/><path d="m1822.9074,222.2924c20.74,1.5025,42.5015-13.7671,42.5007-35.7509-.0044-21.9804-21.7643-37.2468-42.5007-35.7501,14.9261.6261,29.985,7.2489,37.2073,21.3448,7.3005,13.9231,2.6928,30.7365-9.4036,40.3294-7.7536,6.3499-17.807,9.6061-27.8037,9.6477v.1791h0Z" style="fill:#fdf7ef;"/><path d="m1822.9074,150.7911c-20.7397-1.5025-42.5014,13.7674-42.5007,35.7509.0047,21.9804,21.7646,37.2468,42.5009,35.7504-14.9261-.6264-29.985-7.2492-37.2075-21.3448-7.3005-13.9233-2.6925-30.7367,9.4036-40.3297,7.7539-6.3499,17.8072-9.6061,27.8037-9.6477v-.1791h0Z" style="fill:#fdf7ef;"/><path d="m1822.9074,222.2924c7.0176.0903,10.6447-9.7491,12.4235-15.3036,4.3712-15.4874,4.0427-36.2593-4.122-50.4465-1.868-2.7884-4.6135-6.0027-8.3015-5.7512v.1791c3.5022.0964,5.871,3.2483,7.4794,6.0359,7.1491,13.8746,7.2131,34.6596,3.5942,49.6302-1.3207,4.8164-2.9999,9.8695-6.6191,13.4566-1.2103,1.1419-2.7684,2.0116-4.4544,2.0203v.1791h0Z" style="fill:#fdf7ef;"/><path d="m1822.9074,150.7911c-7.0174-.0903-10.6447,9.7494-12.4232,15.3038-4.3715,15.4869-4.0427,36.2593,4.122,50.4463,1.8678,2.7887,4.6135,6.0027,8.3012,5.7514v-.1794c-3.502-.0964-5.8708-3.2483-7.4794-6.0359-7.1488-13.8749-7.2131-34.6596-3.5939-49.6302,1.3205-4.8164,2.9999-9.8695,6.6191-13.4566,1.2101-1.1416,2.7684-2.0114,4.4542-2.0203v-.1791h0Z" style="fill:#fdf7ef;"/><rect x="1822.0119" y="120.9521" width="1.7914" height="18.8693" style="fill:#362620;"/><rect x="1806.2149" y="332.5587" width="33.385" height="19.2215" transform="translate(3645.8149 684.339) rotate(180)" style="fill:#362620;"/><rect x="1812.7908" y="255.2354" width="20.2332" height="11.6493" transform="translate(3645.8149 522.1202) rotate(180)" style="fill:#362620;"/><ellipse cx="1822.9075" cy="301.9558" rx="58.1708" ry="35.6611" style="fill:#eb7325;"/><path d="m1822.9074,337.7065c20.74,1.5025,42.5015-13.7674,42.5007-35.7509-.0044-21.9804-21.7643-37.2468-42.5007-35.7504,14.9261.6264,29.985,7.2492,37.2073,21.3448,7.3005,13.9233,2.6928,30.7367-9.4036,40.3297-7.7536,6.3499-17.807,9.6059-27.8037,9.6477v.1791h0Z" style="fill:#fdf7ef;"/><path d="m1822.9074,266.2052c-20.7397-1.5025-42.5014,13.7671-42.5007,35.7509.0047,21.9804,21.7646,37.2468,42.5009,35.7501-14.9263-.6261-29.985-7.2489-37.2075-21.3448-7.3005-13.9231-2.6925-30.7365,9.4036-40.3294,7.7539-6.3499,17.8072-9.6061,27.8037-9.6477v-.1791h0Z" style="fill:#fdf7ef;"/><path d="m1822.9074,337.7065c7.0176.0903,10.6447-9.7491,12.4235-15.3038,4.3712-15.4872,4.0427-36.259-4.122-50.4463-1.868-2.7887-4.6135-6.0027-8.3015-5.7514v.1794c3.5022.0964,5.871,3.2483,7.4794,6.0359,7.1491,13.8746,7.2131,34.6596,3.5942,49.63-1.3207,4.8166-2.9999,9.8698-6.6191,13.4568-1.2103,1.1416-2.7684,2.0114-4.4544,2.0203v.1791h0Z" style="fill:#fdf7ef;"/><path d="m1822.9074,266.2052c-7.0174-.0903-10.6447,9.7491-12.4232,15.3036-4.3715,15.4872-4.0427,36.2595,4.122,50.4465,1.8678,2.7884,4.6135,6.0027,8.3012,5.7512v-.1791c-3.502-.0964-5.8708-3.2483-7.4794-6.0359-7.1488-13.8749-7.2131-34.6596-3.5939-49.6302,1.3205-4.8164,2.9999-9.8695,6.6191-13.4566,1.2101-1.1419,2.7684-2.0116,4.4542-2.0203v-.1791h0Z" style="fill:#fdf7ef;"/><rect x="1822.0119" y="236.3664" width="1.7914" height="18.8688" style="fill:#362620;"/><rect x="1822.0119" y="351.7802" width="1.7914" height="44.3448" style="fill:#362620;"/><path d="m1822.9074,396.125c2.161,19.41,5.5318,38.6802,10.1166,57.6649-2.151-19.4116-5.5413-38.6786-10.1166-57.6649h0Z" style="fill:#f4b212;"/><path d="m1822.9074,396.125c5.6682,17.1319,12.4944,33.8773,20.4444,50.0772-5.6587-17.1353-12.5028-33.8736-20.4444-50.0772h0Z" style="fill:#f4b212;"/><path d="m1822.9074,396.125c-4.5753,18.9862-7.9654,38.2533-10.1169,57.6646,4.5854-18.9844,7.9561-38.2546,10.1169-57.6646h0Z" style="fill:#f4b212;"/><path d="m1822.9074,396.125c-7.9417,16.2036-14.7854,32.942-20.445,50.0772,7.9509-16.1997,14.777-32.9454,20.445-50.0772h0Z" style="fill:#f4b212;"/><path d="m1817.5964,396.125c0,2.9333,2.3778,5.311,5.311,5.311s5.3114-2.3778,5.3114-5.311-2.3781-5.3113-5.3114-5.3113-5.311,2.3778-5.311,5.3113Z" style="fill:#f4b212;"/><rect x="1242.5373" y="101.7307" width="33.3847" height="19.2217" transform="translate(2518.4593 222.683) rotate(180)" style="fill:#362620;"/><rect x="1249.1129" y="24.4073" width="20.2335" height="11.6493" transform="translate(2518.4593 60.464) rotate(180)" style="fill:#362620;"/><ellipse cx="1259.2296" cy="71.1278" rx="58.1708" ry="35.6613" style="fill:#ed801d;"/><path d="m1259.2295,106.8786c20.74,1.5022,42.5014-13.7674,42.5007-35.7509-.0045-21.9806-21.7644-37.247-42.5007-35.7504,14.9261.6261,29.985,7.2489,37.2073,21.3448,7.3006,13.9231,2.6928,30.7365-9.4036,40.3294-7.7536,6.3502-17.807,9.6061-27.8037,9.6477v.1794h0Z" style="fill:#fdf7ef;"/><path d="m1259.2295,35.3771c-20.7397-1.5025-42.5014,13.7674-42.5007,35.7509.0047,21.9804,21.7646,37.2468,42.501,35.7504-14.9262-.6264-29.985-7.2489-37.2076-21.3448-7.3005-13.9233-2.6925-30.7367,9.4038-40.3297,7.7536-6.3499,17.807-9.6059,27.8034-9.6477v-.1791h0Z" style="fill:#fdf7ef;"/><path d="m1259.2295,106.8786c7.0176.0901,10.645-9.7494,12.4235-15.3038,4.3715-15.4874,4.0427-36.259-4.122-50.4465-1.8681-2.7884-4.6135-6.0027-8.3015-5.7512v.1791c3.5022.0964,5.871,3.2483,7.4794,6.0359,7.1491,13.8749,7.2131,34.6596,3.5942,49.6302-1.3207,4.8164-2.9999,9.8695-6.6191,13.4568-1.2104,1.1416-2.7684,2.0114-4.4545,2.0201v.1794h0Z" style="fill:#fdf7ef;"/><path d="m1259.2295,35.3771c-7.0174-.0903-10.6447,9.7494-12.4232,15.3038-4.3712,15.4869-4.0427,36.2595,4.122,50.4465,1.8678,2.7884,4.6139,6.0025,8.3012,5.7512v-.1794c-3.502-.0964-5.8708-3.2483-7.4794-6.0359-7.1488-13.8749-7.213-34.6594-3.5938-49.63,1.3204-4.8166,2.9999-9.8698,6.6191-13.4568,1.2101-1.1416,2.7684-2.0114,4.4542-2.0203v-.1791h0Z" style="fill:#fdf7ef;"/><rect x="1258.3339" y="120.9524" width="1.7915" height="44.3445" style="fill:#362620;"/><path d="m1259.2295,165.2969c2.161,19.41,5.5318,38.6802,10.1166,57.6649-2.1509-19.4116-5.5409-38.6784-10.1166-57.6649h0Z" style="fill:#f4b212;"/><path d="m1259.2295,165.2969c5.6682,17.1319,12.4944,33.8776,20.4447,50.0775-5.659-17.1355-12.503-33.8739-20.4447-50.0775h0Z" style="fill:#f4b212;"/><path d="m1259.2295,165.2969c-4.5753,18.9865-7.9654,38.2533-10.1166,57.6649,4.5851-18.9846,7.9559-38.2548,10.1166-57.6649h0Z" style="fill:#f4b212;"/><path d="m1259.2295,165.2969c-7.9417,16.2036-14.7854,32.942-20.4447,50.0772,7.9506-16.1997,14.7768-32.9454,20.4447-50.0772h0Z" style="fill:#f4b212;"/><path d="m1253.9185,165.2969c0,2.9333,2.3778,5.3113,5.311,5.3113s5.3113-2.378,5.3113-5.3113-2.3778-5.3113-5.3113-5.3113-5.311,2.378-5.311,5.3113Z" style="fill:#f4b212;"/><rect x="360.8516" y="101.7307" width="33.385" height="19.2217" style="fill:#362620;"/><rect x="367.4275" y="24.4073" width="20.2332" height="11.6493" style="fill:#362620;"/><ellipse cx="374.4367" cy="71.1278" rx="55.0633" ry="35.6613" style="fill:#de2726;"/><path d="m377.5441,106.8786c-20.7397,1.5025-42.5014-13.7674-42.5007-35.7509.0047-21.9806,21.7644-37.247,42.5009-35.7504-14.9261.6261-29.9852,7.2489-37.2075,21.3448-7.3005,13.9231-2.6925,30.7365,9.4036,40.3297,7.7536,6.3499,17.8072,9.6059,27.8037,9.6475v.1794h0Z" style="fill:#fdf7ef;"/><path d="m377.5441,35.3771c20.74-1.5025,42.5014,13.7674,42.5007,35.7509-.0045,21.9804-21.7644,37.2468-42.5007,35.7504,14.9261-.6264,29.9847-7.2492,37.2073-21.3448,7.3005-13.9233,2.6928-30.7367-9.4036-40.3297-7.7536-6.3499-17.807-9.6059-27.8037-9.6477v-.1791h0Z" style="fill:#fdf7ef;"/><path d="m377.5441,106.8786c-7.0176.0901-10.6447-9.7494-12.4232-15.3038-4.3715-15.4874-4.0427-36.2593,4.1218-50.4465,1.8681-2.7884,4.6138-6.0027,8.3015-5.7512v.1791c-3.502.0964-5.871,3.2483-7.4794,6.0359-7.1488,13.8749-7.2131,34.6596-3.5939,49.6302,1.3204,4.8164,2.9999,9.8695,6.6188,13.4568,1.2103,1.1416,2.7686,2.0114,4.4544,2.0201v.1794h0Z" style="fill:#fdf7ef;"/><path d="m377.5441,35.3771c7.0176-.0903,10.645,9.7494,12.4235,15.3038,4.3712,15.4869,4.0428,36.2595-4.122,50.4465-1.8678,2.7884-4.6138,6.0025-8.3015,5.7512v-.1794c3.5022-.0964,5.871-3.2483,7.4794-6.0359,7.1491-13.8749,7.2131-34.6594,3.5939-49.63-1.3204-4.8166-2.9997-9.8698-6.6188-13.4568-1.2103-1.1416-2.7684-2.0114-4.4544-2.0203v-.1791h0Z" style="fill:#fdf7ef;"/><rect x="360.8516" y="217.1447" width="33.385" height="19.2215" style="fill:#362620;"/><rect x="367.4275" y="139.8214" width="20.2332" height="11.6493" style="fill:#362620;"/><ellipse cx="377.5441" cy="186.5418" rx="58.1706" ry="35.6611" style="fill:#eb7325;"/><path d="m377.5441,222.2924c-20.7397,1.5025-42.5014-13.7671-42.5007-35.7509.0047-21.9804,21.7644-37.2468,42.5009-35.7501-14.9261.6261-29.9852,7.2489-37.2075,21.3448-7.3005,13.9231-2.6925,30.7365,9.4036,40.3294,7.7536,6.3499,17.8072,9.6061,27.8037,9.6477v.1791h0Z" style="fill:#fdf7ef;"/><path d="m377.5441,150.7911c20.74-1.5025,42.5014,13.7674,42.5007,35.7509-.0045,21.9804-21.7644,37.2468-42.5007,35.7504,14.9261-.6264,29.9847-7.2492,37.2073-21.3448,7.3005-13.9233,2.6928-30.7367-9.4036-40.3297-7.7536-6.3499-17.807-9.6059-27.8037-9.6477v-.1791h0Z" style="fill:#fdf7ef;"/><path d="m377.5441,222.2924c-7.0176.0903-10.6447-9.7491-12.4232-15.3036-4.3715-15.4874-4.0427-36.2593,4.1218-50.4465,1.8681-2.7887,4.6138-6.0027,8.3015-5.7512v.1791c-3.502.0964-5.871,3.2483-7.4794,6.0359-7.1488,13.8746-7.2131,34.6596-3.5939,49.6302,1.3204,4.8164,2.9999,9.8695,6.6188,13.4566,1.2103,1.1419,2.7686,2.0116,4.4544,2.0203v.1791h0Z" style="fill:#fdf7ef;"/><path d="m377.5441,150.7911c7.0174-.0903,10.645,9.7494,12.4235,15.3038,4.3712,15.4869,4.0428,36.2593-4.122,50.4463-1.8678,2.7887-4.6138,6.0027-8.3015,5.7514v-.1794c3.5022-.0964,5.871-3.2483,7.4794-6.0359,7.1488-13.8749,7.2131-34.6596,3.5939-49.6302-1.3204-4.8164-2.9997-9.8695-6.6188-13.4566-1.2103-1.1416-2.7684-2.0114-4.4544-2.0203v-.1791h0Z" style="fill:#fdf7ef;"/><rect x="376.6482" y="120.9524" width="1.7917" height="18.8688" style="fill:#362620;"/><rect x="376.6482" y="236.3664" width="1.7917" height="44.3445" style="fill:#362620;"/><path d="m377.5441,280.7109c-2.1607,19.41-5.5318,38.6802-10.1163,57.6649,2.151-19.4116,5.541-38.6784,10.1163-57.6649h0Z" style="fill:#f4b212;"/><path d="m377.5441,280.7109c-5.6679,17.1319-12.4941,33.8773-20.4444,50.0775,5.6587-17.1355,12.503-33.8739,20.4444-50.0775h0Z" style="fill:#f4b212;"/><path d="m377.5441,280.7109c4.5753,18.9865,7.9656,38.2533,10.1169,57.6649-4.5851-18.9846-7.9559-38.2548-10.1169-57.6649h0Z" style="fill:#f4b212;"/><path d="m377.5441,280.7109c7.9417,16.2036,14.7857,32.942,20.445,50.0772-7.9506-16.1997-14.7768-32.9454-20.445-50.0772h0Z" style="fill:#f4b212;"/><circle cx="377.5441" cy="280.7109" r="5.3113" style="fill:#f4b212;"/><rect x="79.0128" y="101.7307" width="33.385" height="19.2217" style="fill:#362620;"/><rect x="85.5887" y="24.4073" width="20.2332" height="11.6493" style="fill:#362620;"/><ellipse cx="95.7052" cy="71.1278" rx="58.1708" ry="35.6613" style="fill:#f7cc1d;"/><path d="m95.7053,106.8786c-20.74,1.5025-42.5014-13.7674-42.5007-35.7509.0045-21.9806,21.7644-37.247,42.5007-35.7504-14.9261.6261-29.985,7.2489-37.2073,21.3448-7.3005,13.9231-2.6928,30.7365,9.4036,40.3297,7.7536,6.3499,17.807,9.6059,27.8037,9.6475v.1794h0Z" style="fill:#fdf7ef;"/><path d="m95.7053,35.3771c20.7397-1.5025,42.5014,13.7674,42.5007,35.7509-.0047,21.9806-21.7646,37.2468-42.5009,35.7504,14.9264-.6264,29.985-7.2492,37.2075-21.3448,7.3005-13.9233,2.6925-30.7367-9.4036-40.3297-7.7539-6.3499-17.8072-9.6059-27.8037-9.6477v-.1791h0Z" style="fill:#fdf7ef;"/><path d="m95.7053,106.8786c-7.0176.0901-10.6447-9.7494-12.4235-15.3038-4.3712-15.4874-4.0427-36.259,4.122-50.4465,1.8681-2.7884,4.6135-6.0027,8.3015-5.7512v.1791c-3.5022.0964-5.871,3.2483-7.4794,6.0359-7.1491,13.8749-7.2131,34.6596-3.5942,49.6302,1.3207,4.8164,2.9999,9.8695,6.6191,13.4568,1.2103,1.1416,2.7684,2.0114,4.4544,2.0201v.1794h0Z" style="fill:#fdf7ef;"/><path d="m95.7053,35.3771c7.0174-.0903,10.6447,9.7494,12.4232,15.3038,4.3715,15.4869,4.0427,36.2595-4.122,50.4465-1.8678,2.7884-4.6135,6.0025-8.3012,5.7512v-.1794c3.502-.0964,5.8708-3.2483,7.4794-6.0359,7.1488-13.8749,7.2131-34.6594,3.5939-49.63-1.3204-4.8166-2.9999-9.8698-6.6191-13.4568-1.2101-1.1416-2.7684-2.0114-4.4542-2.0203v-.1791h0Z" style="fill:#fdf7ef;"/><rect x="79.0128" y="217.1447" width="33.385" height="19.2215" style="fill:#362620;"/><rect x="85.5887" y="139.8214" width="20.2332" height="11.6493" style="fill:#362620;"/><ellipse cx="95.7052" cy="186.5418" rx="58.1708" ry="35.6611" style="fill:#de2726;"/><path d="m95.7053,222.2924c-20.74,1.5025-42.5014-13.7671-42.5007-35.7509.0045-21.9804,21.7644-37.2468,42.5007-35.7501-14.9261.6261-29.985,7.2489-37.2073,21.3448-7.3005,13.9231-2.6928,30.7365,9.4036,40.3294,7.7536,6.3499,17.807,9.6061,27.8037,9.6477v.1791h0Z" style="fill:#fdf7ef;"/><path d="m95.7053,150.7911c20.7397-1.5025,42.5014,13.7674,42.5007,35.7509-.0047,21.9804-21.7646,37.2468-42.5009,35.7504,14.9261-.6264,29.985-7.2492,37.2075-21.3448,7.3005-13.9233,2.6925-30.7367-9.4036-40.3297-7.7539-6.3499-17.8072-9.6061-27.8037-9.6477v-.1791h0Z" style="fill:#fdf7ef;"/><path d="m95.7053,222.2924c-7.0176.0903-10.6447-9.7491-12.4235-15.3036-4.3712-15.4874-4.0427-36.2593,4.122-50.4465,1.8681-2.7884,4.6135-6.0027,8.3015-5.7512v.1791c-3.5022.0964-5.871,3.2483-7.4794,6.0359-7.1491,13.8746-7.2131,34.6596-3.5942,49.6302,1.3207,4.8164,2.9999,9.8695,6.6191,13.4566,1.2103,1.1419,2.7684,2.0116,4.4544,2.0203v.1791h0Z" style="fill:#fdf7ef;"/><path d="m95.7053,150.7911c7.0174-.0903,10.6447,9.7494,12.4232,15.3038,4.3715,15.4869,4.0427,36.2593-4.122,50.4463-1.8678,2.7887-4.6135,6.0027-8.3012,5.7514v-.1794c3.502-.0964,5.8708-3.2483,7.4794-6.0359,7.1488-13.8749,7.2131-34.6596,3.5939-49.6302-1.3204-4.8164-2.9999-9.8695-6.6191-13.4566-1.2101-1.1416-2.7684-2.0114-4.4542-2.0203v-.1791h0Z" style="fill:#fdf7ef;"/><rect x="94.8094" y="120.9521" width="1.7914" height="18.8693" style="fill:#362620;"/><rect x="79.0128" y="332.5587" width="33.385" height="19.2215" style="fill:#362620;"/><rect x="85.5887" y="255.2354" width="20.2332" height="11.6493" style="fill:#362620;"/><ellipse cx="95.7052" cy="301.9558" rx="58.1708" ry="35.6611" style="fill:#eb7325;"/><path d="m95.7053,337.7065c-20.74,1.5025-42.5014-13.7674-42.5007-35.7509.0045-21.9804,21.7644-37.2468,42.5007-35.7504-14.9261.6264-29.985,7.2492-37.2073,21.3448-7.3005,13.9233-2.6928,30.7367,9.4036,40.3297,7.7536,6.3499,17.807,9.6059,27.8037,9.6477v.1791h0Z" style="fill:#fdf7ef;"/><path d="m95.7053,266.2052c20.7397-1.5025,42.5014,13.7671,42.5007,35.7509-.0047,21.9804-21.7646,37.2468-42.5009,35.7501,14.9264-.6261,29.985-7.2489,37.2075-21.3448,7.3005-13.9231,2.6925-30.7365-9.4036-40.3294-7.7539-6.3499-17.8072-9.6061-27.8037-9.6477v-.1791h0Z" style="fill:#fdf7ef;"/><path d="m95.7053,337.7065c-7.0176.0903-10.6447-9.7491-12.4235-15.3038-4.3712-15.4872-4.0427-36.259,4.122-50.4463,1.8681-2.7887,4.6135-6.0027,8.3015-5.7514v.1794c-3.5022.0964-5.871,3.2483-7.4794,6.0359-7.1491,13.8746-7.2131,34.6596-3.5942,49.63,1.3207,4.8166,2.9999,9.8698,6.6191,13.4568,1.2103,1.1416,2.7684,2.0114,4.4544,2.0203v.1791h0Z" style="fill:#fdf7ef;"/><path d="m95.7053,266.2052c7.0174-.0903,10.6447,9.7491,12.4232,15.3036,4.3715,15.4872,4.0427,36.2595-4.122,50.4465-1.8678,2.7884-4.6135,6.0027-8.3012,5.7512v-.1791c3.502-.0964,5.8708-3.2483,7.4794-6.0359,7.1488-13.8749,7.2131-34.6596,3.5939-49.6302-1.3204-4.8164-2.9999-9.8695-6.6191-13.4566-1.2101-1.1419-2.7684-2.0116-4.4542-2.0203v-.1791h0Z" style="fill:#fdf7ef;"/><rect x="94.8094" y="236.3664" width="1.7914" height="18.8688" style="fill:#362620;"/><rect x="94.8094" y="351.7802" width="1.7914" height="44.3448" style="fill:#362620;"/><path d="m95.7053,396.125c-2.161,19.41-5.5318,38.6802-10.1166,57.6649,2.151-19.4116,5.5413-38.6786,10.1166-57.6649h0Z" style="fill:#f4b212;"/><path d="m95.7053,396.125c-5.6682,17.1319-12.4943,33.8773-20.4444,50.0772,5.6587-17.1353,12.5028-33.8736,20.4444-50.0772h0Z" style="fill:#f4b212;"/><path d="m95.7053,396.125c4.5753,18.9862,7.9654,38.2533,10.1169,57.6646-4.5854-18.9844-7.9561-38.2546-10.1169-57.6646h0Z" style="fill:#f4b212;"/><path d="m95.7053,396.125c7.9417,16.2036,14.7854,32.942,20.445,50.0772-7.9509-16.1997-14.777-32.9454-20.445-50.0772h0Z" style="fill:#f4b212;"/><path d="m101.0163,396.125c0,2.9333-2.3777,5.311-5.311,5.311s-5.3113-2.3778-5.3113-5.311,2.378-5.3113,5.3113-5.3113,5.311,2.3778,5.311,5.3113Z" style="fill:#f4b212;"/><rect x="642.6907" y="101.7307" width="33.3847" height="19.2217" style="fill:#362620;"/><rect x="649.2663" y="24.4073" width="20.2335" height="11.6493" style="fill:#362620;"/><ellipse cx="659.3831" cy="71.1278" rx="58.1708" ry="35.6613" style="fill:#ed801d;"/><path d="m659.3832,106.8786c-20.74,1.5022-42.5014-13.7674-42.5006-35.7509.0044-21.9806,21.7643-37.247,42.5006-35.7504-14.9261.6261-29.985,7.2489-37.2073,21.3448-7.3005,13.9231-2.6928,30.7365,9.4036,40.3294,7.7536,6.3502,17.807,9.6061,27.8037,9.6477v.1794h0Z" style="fill:#fdf7ef;"/><path d="m659.3832,35.3771c20.7397-1.5025,42.5014,13.7674,42.5007,35.7509-.0047,21.9804-21.7646,37.2468-42.5009,35.7504,14.9261-.6264,29.9849-7.2489,37.2075-21.3448,7.3005-13.9233,2.6925-30.7367-9.4038-40.3297-7.7536-6.3499-17.807-9.6059-27.8034-9.6477v-.1791h0Z" style="fill:#fdf7ef;"/><path d="m659.3832,106.8786c-7.0176.0901-10.645-9.7494-12.4235-15.3038-4.3714-15.4874-4.0427-36.259,4.122-50.4465,1.8681-2.7884,4.6136-6.0027,8.3015-5.7512v.1791c-3.5022.0964-5.871,3.2483-7.4794,6.0359-7.1491,13.8749-7.2131,34.6596-3.5942,49.6302,1.3207,4.8164,3,9.8695,6.6191,13.4568,1.2103,1.1416,2.7684,2.0114,4.4544,2.0201v.1794h0Z" style="fill:#fdf7ef;"/><path d="m659.3832,35.3771c7.0174-.0903,10.6447,9.7494,12.4232,15.3038,4.3712,15.4869,4.0427,36.2595-4.122,50.4465-1.8678,2.7884-4.6138,6.0025-8.3012,5.7512v-.1794c3.502-.0964,5.8708-3.2483,7.4794-6.0359,7.1488-13.8749,7.2131-34.6594,3.5939-49.63-1.3205-4.8166-3-9.8698-6.6191-13.4568-1.2101-1.1416-2.7684-2.0114-4.4542-2.0203v-.1791h0Z" style="fill:#fdf7ef;"/><rect x="658.4874" y="120.9524" width="1.7914" height="44.3445" style="fill:#362620;"/><path d="m659.3832,165.2969c-2.161,19.41-5.5317,38.6802-10.1166,57.6649,2.151-19.4116,5.541-38.6784,10.1166-57.6649h0Z" style="fill:#f4b212;"/><path d="m659.3832,165.2969c-5.6682,17.1319-12.4944,33.8776-20.4447,50.0775,5.659-17.1355,12.503-33.8739,20.4447-50.0775h0Z" style="fill:#f4b212;"/><path d="m659.3832,165.2969c4.5753,18.9865,7.9654,38.2533,10.1166,57.6649-4.5851-18.9846-7.9559-38.2548-10.1166-57.6649h0Z" style="fill:#f4b212;"/><path d="m659.3832,165.2969c7.9417,16.2036,14.7854,32.942,20.4447,50.0772-7.9506-16.1997-14.7768-32.9454-20.4447-50.0772h0Z" style="fill:#f4b212;"/><path d="m664.6942,165.2969c0,2.9333-2.3778,5.3113-5.311,5.3113s-5.3113-2.378-5.3113-5.3113,2.3778-5.3113,5.3113-5.3113,5.311,2.378,5.311,5.3113Z" style="fill:#f4b212;"/></g></svg>