<?xml version="1.0" encoding="UTF-8"?><svg id="Layer_1" xmlns="http://www.w3.org/2000/svg" xmlns:xlink="http://www.w3.org/1999/xlink" viewBox="0 0 1920 462"><defs><clipPath id="clippath"><rect x=".3433" y="-3.7214" width="1920" height="464" style="fill:none;"/></clipPath><clipPath id="clippath-1"><rect x="590.1823" y="61.2808" width="740.322" height="398.3927" style="fill:none;"/></clipPath><clipPath id="clippath-2"><circle cx="940.6361" cy="459.6736" r="302.1105" transform="translate(-49.5324 799.7655) rotate(-45)" style="fill:none;"/></clipPath><clipPath id="clippath-3"><rect x="1207.3686" y="102.571" width="182.309" height="98.9263" style="fill:none;"/></clipPath><clipPath id="clippath-4"><rect x="1207.3686" y="201.4972" width="182.309" height="98.9263" style="fill:none;"/></clipPath><clipPath id="clippath-5"><rect x="1207.3686" y="300.4235" width="182.309" height="98.9263" style="fill:none;"/></clipPath><clipPath id="clippath-6"><rect x="1207.3686" y="399.3498" width="182.309" height="98.9263" style="fill:none;"/></clipPath><clipPath id="clippath-7"><rect x="1025.06" y="102.571" width="182.3086" height="98.9263" style="fill:none;"/></clipPath><clipPath id="clippath-8"><rect x="1025.06" y="201.4972" width="182.3086" height="98.9263" style="fill:none;"/></clipPath><clipPath id="clippath-9"><rect x="1025.06" y="300.4235" width="182.3086" height="98.9263" style="fill:none;"/></clipPath><clipPath id="clippath-10"><rect x="1025.06" y="399.3498" width="182.3086" height="98.9263" style="fill:none;"/></clipPath><clipPath id="clippath-11"><rect x="842.751" y="102.571" width="182.3089" height="98.9263" style="fill:none;"/></clipPath><clipPath id="clippath-12"><rect x="842.751" y="201.4972" width="182.3089" height="98.9263" style="fill:none;"/></clipPath><clipPath id="clippath-13"><rect x="842.751" y="300.4235" width="182.3089" height="98.9263" style="fill:none;"/></clipPath><clipPath id="clippath-14"><rect x="842.751" y="399.3498" width="182.3089" height="98.9263" style="fill:none;"/></clipPath><clipPath id="clippath-15"><rect x="660.4422" y="102.571" width="182.3089" height="98.9263" style="fill:none;"/></clipPath><clipPath id="clippath-16"><rect x="660.4422" y="201.4972" width="182.3089" height="98.9263" style="fill:none;"/></clipPath><clipPath id="clippath-17"><rect x="660.4422" y="300.4235" width="182.3089" height="98.9263" style="fill:none;"/></clipPath><clipPath id="clippath-18"><rect x="660.4422" y="399.3498" width="182.3089" height="98.9263" style="fill:none;"/></clipPath><clipPath id="clippath-19"><rect x="478.1335" y="102.571" width="182.3087" height="98.9263" style="fill:none;"/></clipPath><clipPath id="clippath-20"><rect x="478.1335" y="201.4972" width="182.3087" height="98.9263" style="fill:none;"/></clipPath><clipPath id="clippath-21"><rect x="478.1335" y="300.4235" width="182.3087" height="98.9263" style="fill:none;"/></clipPath><clipPath id="clippath-22"><rect x="478.1335" y="399.3498" width="182.3087" height="98.9263" style="fill:none;"/></clipPath><clipPath id="clippath-23"><path d="m947.3358,367.2356h185.5083s-3.5278,93.4884-92.7541,93.4884-92.7542-93.4884-92.7542-93.4884Z" style="fill:none;"/></clipPath><clipPath id="clippath-24"><rect x="1099.9179" y="306.0526" width="154.6715" height="154.6714" rx="11.7537" ry="11.7537" transform="translate(2354.5073 766.7765) rotate(180)" style="fill:none;"/></clipPath><clipPath id="clippath-25"><circle cx="771.918" cy="380.0758" r="80.6339" transform="translate(-42.6646 657.1501) rotate(-45)" style="fill:none;"/></clipPath></defs><g style="clip-path:url(#clippath);"><path d="m2051.5133,656.8485H-4.8666V33.0784c79.92-23.5596,173.9399,19.2002,208.7,94.9199,25.85-24.0298,68.95-26.6997,97.57-6.0298,28.61,20.6602,39.64,62.4102,24.96,94.5103,31.95,14.1499,56.54,43.8599,64.47,77.8799,23.14-17.5601,55.98-21.3398,82.51-9.5103,26.53,11.8301,45.66,38.79,48.06,67.73,48.72-7.77,93.69,51.4199,73.14,96.27,60.99-12.5698,128.34,15.5601,162.27,67.79,84.69-51.3101,198.98-48.8301,281.3601,6.1001,8.0898,5.3999,17.9099,11.5098,26.8298,7.6201,5.3-2.3203,8.5601-7.6001,11.9701-12.27,20.83-28.54,57.52-42,92.84-43.1099,35.3101-1.1104,69.99,8.46,104.02,17.9497,27.5901-63.2798,82.39-114.1499,147.55-136.9497-7.96-39.4502,14.3799-82.96,51.08-99.4702,36.7101-16.5103,84.08-4.3599,108.3099,27.7798,13.1501-18.29,41.6801-23.0698,60.0701-10.0698-17.1-26.7202-10.96-65.8101,13.52-86s64.02-18.7798,87,3.1001c-13.77-45.0103,4.0701-97.8599,42.3-125.3301,38.23-27.46,94.02-27.48,132.27-.0601l135.5798,590.9199Z" style="fill:#ffc65d;"/><path d="m1189.3789,674.2465c1.0517-47.0582.4555-94.2792-.1414-141.5766,44.7462-4.0806,90.8026,5.4279,129.2717,28.7334,27.3092-42.0285,81.5104-64.6691,130.6009-54.5535-16.5415-36.0966,19.6491-83.7351,58.8592-77.4771,1.9332-23.297,17.3274-44.9944,38.6782-54.5148,21.3508-9.5204,47.7792-6.4721,66.4017,7.659,6.3824-27.3797,26.1793-51.2942,51.8854-62.6773-11.8135-25.8352-2.938-59.4346,20.0934-76.0653,23.0312-16.631,57.7171-14.4868,78.5248,4.8541,27.9759-60.9356,103.6413-95.3511,167.956-76.3922v502.0104h-742.1299Z" style="fill:#ffad2c;"/><path d="m909.3734,656.8485H-4.8666V90.9188c16.9399,2.6997,33.2499,9.0698,47.22,19.1001,38.24,27.46,56.07,80.3198,42.3,125.3296,22.98-21.8799,62.53-23.29,87-3.1099,24.48,20.1899,30.63,59.29,13.52,86.0098,18.39-13.0098,46.92-8.2295,60.07,10.0703,24.23-32.1401,71.6-44.29,108.31-27.7803,36.71,16.5103,59.05,60.0103,51.08,99.46,65.16,22.8101,119.96,73.6704,147.55,136.9604,34.03-9.5,68.71-19.0601,104.03-17.9502,35.31,1.1099,72.01,14.5601,92.84,43.1001,3.41,4.6797,6.66,9.96,11.96,12.27,8.92,3.8901,18.74-2.2202,26.83-7.6099,35.89-23.9302,77.82-37.9004,120.73-41.8101.55,44.0298,1.11,88.0098.8,131.8896Z" style="fill:#ffad2c;"/></g><g style="clip-path:url(#clippath-1);"><circle cx="940.6362" cy="459.6736" r="328.2703" transform="translate(-49.5324 799.7655) rotate(-45)" style="fill:#ee801d;"/><circle cx="940.6361" cy="459.6736" r="302.1105" transform="translate(-49.5324 799.7655) rotate(-45)" style="fill:#f5b311;"/><g style="clip-path:url(#clippath-2);"><g style="clip-path:url(#clippath-3);"><path d="m1242.3798,106.5142c17.4567-5.2375,36.3155-5.2772,53.7689-.0008-17.4531,5.2786-36.3118,5.2383-53.7689.0008h0Z" style="fill:#ee801d;"/><path d="m1242.3798,129.7533c17.4567-5.2375,36.3155-5.2772,53.7689-.0006-17.4531,5.2783-36.3118,5.2383-53.7689.0006h0Z" style="fill:#ee801d;"/><path d="m1234.5509,147.7287c5.2373,17.457,5.277,36.3152.0008,53.7686-5.2783-17.4525-5.2389-36.3116-.0008-53.7686h0Z" style="fill:#ee801d;"/><path d="m1211.3116,147.7287c5.2375,17.457,5.2777,36.3152.0009,53.7686-5.2784-17.4528-5.2384-36.3113-.0009-53.7686h0Z" style="fill:#ee801d;"/><path d="m1335.9093,106.5142c17.4567-5.2375,36.3152-5.2772,53.7683-.0008-17.4525,5.2786-36.3113,5.2389-53.7683.0008h0Z" style="fill:#ee801d;"/><path d="m1335.9093,129.7533c17.4567-5.2375,36.3152-5.2772,53.7683-.0006-17.4525,5.278-36.3113,5.2386-53.7683.0006h0Z" style="fill:#ee801d;"/><path d="m1328.0796,147.7287c5.2381,17.457,5.278,36.3158.0008,53.7686-5.278-17.4528-5.2381-36.3113-.0008-53.7686h0Z" style="fill:#ee801d;"/><path d="m1304.8406,147.7287c5.2383,17.4567,5.278,36.3158.0008,53.7686-5.2777-17.4528-5.2381-36.3113-.0008-53.7686h0Z" style="fill:#ee801d;"/></g><g style="clip-path:url(#clippath-4);"><path d="m1242.3798,205.4405c17.4567-5.2375,36.3155-5.2772,53.7689-.0008-17.4531,5.2786-36.3118,5.2383-53.7689.0008h0Z" style="fill:#ee801d;"/><path d="m1242.3798,228.6796c17.4567-5.2375,36.3155-5.2772,53.7689-.0006-17.4531,5.2783-36.3118,5.2381-53.7689.0006h0Z" style="fill:#ee801d;"/><path d="m1234.5509,246.655c5.2373,17.457,5.277,36.3152.0008,53.7686-5.2783-17.4525-5.2389-36.3116-.0008-53.7686h0Z" style="fill:#ee801d;"/><path d="m1211.3116,246.655c5.2375,17.457,5.2777,36.3152.0009,53.7686-5.2784-17.4528-5.2384-36.3113-.0009-53.7686h0Z" style="fill:#ee801d;"/><path d="m1335.9093,205.4405c17.4567-5.2375,36.3152-5.2772,53.7683-.0008-17.4525,5.2786-36.3113,5.2389-53.7683.0008h0Z" style="fill:#ee801d;"/><path d="m1335.9093,228.6796c17.4567-5.2375,36.3152-5.2772,53.7683-.0006-17.4525,5.278-36.3113,5.2386-53.7683.0006h0Z" style="fill:#ee801d;"/><path d="m1328.0796,246.655c5.2381,17.457,5.278,36.3158.0008,53.7686-5.278-17.4528-5.2381-36.3113-.0008-53.7686h0Z" style="fill:#ee801d;"/><path d="m1304.8406,246.655c5.2383,17.4565,5.278,36.3158.0008,53.7686-5.2777-17.4528-5.2381-36.3113-.0008-53.7686h0Z" style="fill:#ee801d;"/></g><g style="clip-path:url(#clippath-5);"><path d="m1242.3798,304.3668c17.4567-5.2375,36.3155-5.2772,53.7689-.0008-17.4531,5.2786-36.3118,5.2383-53.7689.0008h0Z" style="fill:#ee801d;"/><path d="m1242.3798,327.6058c17.4567-5.2375,36.3155-5.2772,53.7689-.0008-17.4531,5.2786-36.3118,5.2383-53.7689.0008h0Z" style="fill:#ee801d;"/><path d="m1234.5509,345.5812c5.2373,17.457,5.277,36.3152.0008,53.7686-5.2783-17.4525-5.2389-36.3116-.0008-53.7686h0Z" style="fill:#ee801d;"/><path d="m1211.3116,345.5812c5.2375,17.457,5.2777,36.3152.0009,53.7686-5.2784-17.4528-5.2384-36.3113-.0009-53.7686h0Z" style="fill:#ee801d;"/><path d="m1335.9093,304.3668c17.4567-5.2375,36.3152-5.2772,53.7683-.0008-17.4525,5.2786-36.3113,5.2386-53.7683.0008h0Z" style="fill:#ee801d;"/><path d="m1335.9093,327.6058c17.4567-5.2375,36.3152-5.2772,53.7683-.0008-17.4525,5.278-36.3113,5.2389-53.7683.0008h0Z" style="fill:#ee801d;"/><path d="m1328.0796,345.5812c5.2381,17.457,5.278,36.3158.0008,53.7686-5.278-17.4528-5.2381-36.3113-.0008-53.7686h0Z" style="fill:#ee801d;"/><path d="m1304.8406,345.5812c5.2383,17.4565,5.278,36.3158.0008,53.7686-5.2777-17.4528-5.2381-36.3113-.0008-53.7686h0Z" style="fill:#ee801d;"/></g><g style="clip-path:url(#clippath-6);"><path d="m1242.3798,403.2931c17.4567-5.2375,36.3155-5.2775,53.7689-.0008-17.4531,5.2783-36.3118,5.2383-53.7689.0008h0Z" style="fill:#ee801d;"/><path d="m1242.3798,426.5321c17.4567-5.2375,36.3155-5.2772,53.7689-.0008-17.4531,5.2786-36.3118,5.2383-53.7689.0008h0Z" style="fill:#ee801d;"/><path d="m1234.5509,444.5072c5.2373,17.4573,5.277,36.3155.0008,53.7689-5.2783-17.4525-5.2389-36.3116-.0008-53.7689h0Z" style="fill:#ee801d;"/><path d="m1211.3116,444.5072c5.2375,17.4573,5.2777,36.3155.0009,53.7689-5.2784-17.4531-5.2384-36.3113-.0009-53.7689h0Z" style="fill:#ee801d;"/><path d="m1335.9093,403.2931c17.4567-5.2375,36.3152-5.2775,53.7683-.0008-17.4525,5.2783-36.3113,5.2386-53.7683.0008h0Z" style="fill:#ee801d;"/><path d="m1335.9093,426.5321c17.4567-5.2375,36.3152-5.2772,53.7683-.0008-17.4525,5.278-36.3113,5.2386-53.7683.0008h0Z" style="fill:#ee801d;"/><path d="m1328.0796,444.5072c5.2381,17.4573,5.278,36.3158.0008,53.7689-5.278-17.4531-5.2381-36.3113-.0008-53.7689h0Z" style="fill:#ee801d;"/><path d="m1304.8406,444.5072c5.2383,17.4567,5.278,36.3158.0008,53.7689-5.2777-17.4531-5.2381-36.3113-.0008-53.7689h0Z" style="fill:#ee801d;"/></g><g style="clip-path:url(#clippath-7);"><path d="m1060.0711,106.5142c17.4567-5.2375,36.3155-5.2772,53.7686-.0008-17.4528,5.2786-36.3116,5.2383-53.7686.0008h0Z" style="fill:#ee801d;"/><path d="m1060.0711,129.7533c17.4567-5.2375,36.3155-5.2772,53.7686-.0006-17.4528,5.2783-36.3116,5.2383-53.7686.0006h0Z" style="fill:#ee801d;"/><path d="m1052.2423,147.7287c5.2372,17.457,5.2769,36.3152.0008,53.7686-5.2786-17.4525-5.2392-36.3116-.0008-53.7686h0Z" style="fill:#ee801d;"/><path d="m1029.0026,147.7287c5.2378,17.457,5.2777,36.3152.0008,53.7686-5.278-17.4528-5.2383-36.3113-.0008-53.7686h0Z" style="fill:#ee801d;"/><path d="m1153.6003,106.5142c17.4567-5.2375,36.3155-5.2772,53.7683-.0008-17.4524,5.2786-36.311,5.2389-53.7683.0008h0Z" style="fill:#ee801d;"/><path d="m1153.6003,129.7533c17.4567-5.2375,36.3155-5.2772,53.7683-.0006-17.4524,5.278-36.311,5.2386-53.7683.0006h0Z" style="fill:#ee801d;"/><path d="m1145.7709,147.7287c5.2378,17.457,5.278,36.3158.0006,53.7686-5.278-17.4528-5.2378-36.3113-.0006-53.7686h0Z" style="fill:#ee801d;"/><path d="m1122.5316,147.7287c5.2383,17.4567,5.2783,36.3158.0008,53.7686-5.2777-17.4528-5.2378-36.3113-.0008-53.7686h0Z" style="fill:#ee801d;"/></g><g style="clip-path:url(#clippath-8);"><path d="m1060.0711,205.4405c17.4567-5.2375,36.3155-5.2772,53.7686-.0008-17.4528,5.2786-36.3116,5.2383-53.7686.0008h0Z" style="fill:#ee801d;"/><path d="m1060.0711,228.6796c17.4567-5.2375,36.3155-5.2772,53.7686-.0006-17.4528,5.2783-36.3116,5.2381-53.7686.0006h0Z" style="fill:#ee801d;"/><path d="m1052.2423,246.655c5.2372,17.457,5.2769,36.3152.0008,53.7686-5.2786-17.4525-5.2392-36.3116-.0008-53.7686h0Z" style="fill:#ee801d;"/><path d="m1029.0026,246.655c5.2378,17.457,5.2777,36.3152.0008,53.7686-5.278-17.4528-5.2383-36.3113-.0008-53.7686h0Z" style="fill:#ee801d;"/><path d="m1153.6003,205.4405c17.4567-5.2375,36.3155-5.2772,53.7683-.0008-17.4524,5.2786-36.311,5.2389-53.7683.0008h0Z" style="fill:#ee801d;"/><path d="m1153.6003,228.6796c17.4567-5.2375,36.3155-5.2772,53.7683-.0006-17.4524,5.278-36.311,5.2386-53.7683.0006h0Z" style="fill:#ee801d;"/><path d="m1145.7709,246.655c5.2378,17.457,5.278,36.3158.0006,53.7686-5.278-17.4528-5.2378-36.3113-.0006-53.7686h0Z" style="fill:#ee801d;"/><path d="m1122.5316,246.655c5.2383,17.4565,5.2783,36.3158.0008,53.7686-5.2777-17.4528-5.2378-36.3113-.0008-53.7686h0Z" style="fill:#ee801d;"/></g><g style="clip-path:url(#clippath-9);"><path d="m1060.0711,304.3668c17.4567-5.2375,36.3155-5.2772,53.7686-.0008-17.4528,5.2786-36.3116,5.2383-53.7686.0008h0Z" style="fill:#ee801d;"/><path d="m1060.0711,327.6058c17.4567-5.2375,36.3155-5.2772,53.7686-.0008-17.4528,5.2786-36.3116,5.2383-53.7686.0008h0Z" style="fill:#ee801d;"/><path d="m1052.2423,345.5812c5.2372,17.457,5.2769,36.3152.0008,53.7686-5.2786-17.4525-5.2392-36.3116-.0008-53.7686h0Z" style="fill:#ee801d;"/><path d="m1029.0026,345.5812c5.2378,17.457,5.2777,36.3152.0008,53.7686-5.278-17.4528-5.2383-36.3113-.0008-53.7686h0Z" style="fill:#ee801d;"/><path d="m1153.6003,304.3668c17.4567-5.2375,36.3155-5.2772,53.7683-.0008-17.4524,5.2786-36.311,5.2386-53.7683.0008h0Z" style="fill:#ee801d;"/><path d="m1153.6003,327.6058c17.4567-5.2375,36.3155-5.2772,53.7683-.0008-17.4524,5.278-36.311,5.2389-53.7683.0008h0Z" style="fill:#ee801d;"/><path d="m1145.7709,345.5812c5.2378,17.457,5.278,36.3158.0006,53.7686-5.278-17.4528-5.2378-36.3113-.0006-53.7686h0Z" style="fill:#ee801d;"/><path d="m1122.5316,345.5812c5.2383,17.4565,5.2783,36.3158.0008,53.7686-5.2777-17.4528-5.2378-36.3113-.0008-53.7686h0Z" style="fill:#ee801d;"/></g><g style="clip-path:url(#clippath-10);"><path d="m1060.0711,403.2931c17.4567-5.2375,36.3155-5.2775,53.7686-.0008-17.4528,5.2783-36.3116,5.2383-53.7686.0008h0Z" style="fill:#ee801d;"/><path d="m1060.0711,426.5321c17.4567-5.2375,36.3155-5.2772,53.7686-.0008-17.4528,5.2786-36.3116,5.2383-53.7686.0008h0Z" style="fill:#ee801d;"/><path d="m1052.2423,444.5072c5.2372,17.4573,5.2769,36.3155.0008,53.7689-5.2786-17.4525-5.2392-36.3116-.0008-53.7689h0Z" style="fill:#ee801d;"/><path d="m1029.0026,444.5072c5.2378,17.4573,5.2777,36.3155.0008,53.7689-5.278-17.4531-5.2383-36.3113-.0008-53.7689h0Z" style="fill:#ee801d;"/><path d="m1153.6003,403.2931c17.4567-5.2375,36.3155-5.2775,53.7683-.0008-17.4524,5.2783-36.311,5.2386-53.7683.0008h0Z" style="fill:#ee801d;"/><path d="m1153.6003,426.5321c17.4567-5.2375,36.3155-5.2772,53.7683-.0008-17.4524,5.278-36.311,5.2386-53.7683.0008h0Z" style="fill:#ee801d;"/><path d="m1145.7709,444.5072c5.2378,17.4573,5.278,36.3158.0006,53.7689-5.278-17.4531-5.2378-36.3113-.0006-53.7689h0Z" style="fill:#ee801d;"/><path d="m1122.5316,444.5072c5.2383,17.4567,5.2783,36.3158.0008,53.7689-5.2777-17.4531-5.2378-36.3113-.0008-53.7689h0Z" style="fill:#ee801d;"/></g><g style="clip-path:url(#clippath-11);"><path d="m877.7621,106.5142c17.4567-5.2375,36.3155-5.2772,53.7689-.0008-17.4531,5.2786-36.3116,5.2383-53.7689.0008h0Z" style="fill:#ee801d;"/><path d="m877.7621,129.7533c17.4567-5.2375,36.3155-5.2772,53.7689-.0006-17.4531,5.2783-36.3116,5.2383-53.7689.0006h0Z" style="fill:#ee801d;"/><path d="m869.9337,147.7287c5.2369,17.457,5.2768,36.3152.0005,53.7686-5.2783-17.4525-5.2389-36.3116-.0005-53.7686h0Z" style="fill:#ee801d;"/><path d="m846.6941,147.7287c5.2374,17.457,5.2777,36.3152.0008,53.7686-5.278-17.4528-5.2383-36.3113-.0008-53.7686h0Z" style="fill:#ee801d;"/><path d="m971.2917,106.5142c17.4567-5.2375,36.3155-5.2772,53.7683-.0008-17.4525,5.2786-36.3113,5.2389-53.7683.0008h0Z" style="fill:#ee801d;"/><path d="m971.2917,129.7533c17.4567-5.2375,36.3155-5.2772,53.7683-.0006-17.4525,5.278-36.3113,5.2386-53.7683.0006h0Z" style="fill:#ee801d;"/><path d="m963.462,147.7287c5.2381,17.457,5.2781,36.3158.0008,53.7686-5.278-17.4528-5.2378-36.3113-.0008-53.7686h0Z" style="fill:#ee801d;"/><path d="m940.2229,147.7287c5.2383,17.4567,5.278,36.3158.0009,53.7686-5.2778-17.4528-5.2381-36.3113-.0009-53.7686h0Z" style="fill:#ee801d;"/></g><g style="clip-path:url(#clippath-12);"><path d="m877.7621,205.4405c17.4567-5.2375,36.3155-5.2772,53.7689-.0008-17.4531,5.2786-36.3116,5.2383-53.7689.0008h0Z" style="fill:#ee801d;"/><path d="m877.7621,228.6796c17.4567-5.2375,36.3155-5.2772,53.7689-.0006-17.4531,5.2783-36.3116,5.2381-53.7689.0006h0Z" style="fill:#ee801d;"/><path d="m869.9337,246.655c5.2369,17.457,5.2768,36.3152.0005,53.7686-5.2783-17.4525-5.2389-36.3116-.0005-53.7686h0Z" style="fill:#ee801d;"/><path d="m846.6941,246.655c5.2374,17.457,5.2777,36.3152.0008,53.7686-5.278-17.4528-5.2383-36.3113-.0008-53.7686h0Z" style="fill:#ee801d;"/><path d="m971.2917,205.4405c17.4567-5.2375,36.3155-5.2772,53.7683-.0008-17.4525,5.2786-36.3113,5.2389-53.7683.0008h0Z" style="fill:#ee801d;"/><path d="m971.2917,228.6796c17.4567-5.2375,36.3155-5.2772,53.7683-.0006-17.4525,5.278-36.3113,5.2386-53.7683.0006h0Z" style="fill:#ee801d;"/><path d="m963.462,246.655c5.2381,17.457,5.2781,36.3158.0008,53.7686-5.278-17.4528-5.2378-36.3113-.0008-53.7686h0Z" style="fill:#ee801d;"/><path d="m940.2229,246.655c5.2383,17.4565,5.278,36.3158.0009,53.7686-5.2778-17.4528-5.2381-36.3113-.0009-53.7686h0Z" style="fill:#ee801d;"/></g><g style="clip-path:url(#clippath-13);"><path d="m877.7621,304.3668c17.4567-5.2375,36.3155-5.2772,53.7689-.0008-17.4531,5.2786-36.3116,5.2383-53.7689.0008h0Z" style="fill:#ee801d;"/><path d="m877.7621,327.6058c17.4567-5.2375,36.3155-5.2772,53.7689-.0008-17.4531,5.2786-36.3116,5.2383-53.7689.0008h0Z" style="fill:#ee801d;"/><path d="m869.9337,345.5812c5.2369,17.457,5.2768,36.3152.0005,53.7686-5.2783-17.4525-5.2389-36.3116-.0005-53.7686h0Z" style="fill:#ee801d;"/><path d="m846.6941,345.5812c5.2374,17.457,5.2777,36.3152.0008,53.7686-5.278-17.4528-5.2383-36.3113-.0008-53.7686h0Z" style="fill:#ee801d;"/><path d="m971.2917,304.3668c17.4567-5.2375,36.3155-5.2772,53.7683-.0008-17.4525,5.2786-36.3113,5.2386-53.7683.0008h0Z" style="fill:#ee801d;"/><path d="m971.2917,327.6058c17.4567-5.2375,36.3155-5.2772,53.7683-.0008-17.4525,5.278-36.3113,5.2389-53.7683.0008h0Z" style="fill:#ee801d;"/><path d="m963.462,345.5812c5.2381,17.457,5.2781,36.3158.0008,53.7686-5.278-17.4528-5.2378-36.3113-.0008-53.7686h0Z" style="fill:#ee801d;"/><path d="m940.2229,345.5812c5.2383,17.4565,5.278,36.3158.0009,53.7686-5.2778-17.4528-5.2381-36.3113-.0009-53.7686h0Z" style="fill:#ee801d;"/></g><g style="clip-path:url(#clippath-14);"><path d="m877.7621,403.2931c17.4567-5.2375,36.3155-5.2775,53.7689-.0008-17.4531,5.2783-36.3116,5.2383-53.7689.0008h0Z" style="fill:#ee801d;"/><path d="m877.7621,426.5321c17.4567-5.2375,36.3155-5.2772,53.7689-.0008-17.4531,5.2786-36.3116,5.2383-53.7689.0008h0Z" style="fill:#ee801d;"/><path d="m869.9337,444.5072c5.2369,17.4573,5.2768,36.3155.0005,53.7689-5.2783-17.4525-5.2389-36.3116-.0005-53.7689h0Z" style="fill:#ee801d;"/><path d="m846.6941,444.5072c5.2374,17.4573,5.2777,36.3155.0008,53.7689-5.278-17.4531-5.2383-36.3113-.0008-53.7689h0Z" style="fill:#ee801d;"/><path d="m971.2917,403.2931c17.4567-5.2375,36.3155-5.2775,53.7683-.0008-17.4525,5.2783-36.3113,5.2386-53.7683.0008h0Z" style="fill:#ee801d;"/><path d="m971.2917,426.5321c17.4567-5.2375,36.3155-5.2772,53.7683-.0008-17.4525,5.278-36.3113,5.2386-53.7683.0008h0Z" style="fill:#ee801d;"/><path d="m963.462,444.5072c5.2381,17.4573,5.2781,36.3158.0008,53.7689-5.278-17.4531-5.2378-36.3113-.0008-53.7689h0Z" style="fill:#ee801d;"/><path d="m940.2229,444.5072c5.2383,17.4567,5.278,36.3158.0009,53.7689-5.2778-17.4531-5.2381-36.3113-.0009-53.7689h0Z" style="fill:#ee801d;"/></g><g style="clip-path:url(#clippath-15);"><path d="m695.4532,106.5142c17.457-5.2375,36.3158-5.2772,53.7689-.0008-17.4528,5.2786-36.3116,5.2383-53.7689.0008h0Z" style="fill:#ee801d;"/><path d="m695.4532,129.7533c17.457-5.2375,36.3158-5.2772,53.7689-.0006-17.4528,5.2783-36.3116,5.2383-53.7689.0006h0Z" style="fill:#ee801d;"/><path d="m687.6245,147.7287c5.2374,17.457,5.2771,36.3152.0008,53.7686-5.2783-17.4525-5.2389-36.3116-.0008-53.7686h0Z" style="fill:#ee801d;"/><path d="m664.3854,147.7287c5.2375,17.457,5.2775,36.3152.0008,53.7686-5.2783-17.4528-5.2386-36.3113-.0008-53.7686h0Z" style="fill:#ee801d;"/><path d="m788.983,106.5142c17.4565-5.2375,36.3152-5.2772,53.768-.0008-17.4525,5.2786-36.311,5.2389-53.768.0008h0Z" style="fill:#ee801d;"/><path d="m788.983,129.7533c17.4565-5.2375,36.3152-5.2772,53.768-.0006-17.4525,5.278-36.311,5.2386-53.768.0006h0Z" style="fill:#ee801d;"/><path d="m781.1534,147.7287c5.2378,17.457,5.278,36.3158.0009,53.7686-5.2781-17.4528-5.2381-36.3113-.0009-53.7686h0Z" style="fill:#ee801d;"/><path d="m757.9143,147.7287c5.2381,17.4567,5.278,36.3158.0006,53.7686-5.2775-17.4528-5.2378-36.3113-.0006-53.7686h0Z" style="fill:#ee801d;"/></g><g style="clip-path:url(#clippath-16);"><path d="m695.4532,205.4405c17.457-5.2375,36.3158-5.2772,53.7689-.0008-17.4528,5.2786-36.3116,5.2383-53.7689.0008h0Z" style="fill:#ee801d;"/><path d="m695.4532,228.6796c17.457-5.2375,36.3158-5.2772,53.7689-.0006-17.4528,5.2783-36.3116,5.2381-53.7689.0006h0Z" style="fill:#ee801d;"/><path d="m687.6245,246.655c5.2374,17.457,5.2771,36.3152.0008,53.7686-5.2783-17.4525-5.2389-36.3116-.0008-53.7686h0Z" style="fill:#ee801d;"/><path d="m664.3854,246.655c5.2375,17.457,5.2775,36.3152.0008,53.7686-5.2783-17.4528-5.2386-36.3113-.0008-53.7686h0Z" style="fill:#ee801d;"/><path d="m788.983,205.4405c17.4565-5.2375,36.3152-5.2772,53.768-.0008-17.4525,5.2786-36.311,5.2389-53.768.0008h0Z" style="fill:#ee801d;"/><path d="m788.983,228.6796c17.4565-5.2375,36.3152-5.2772,53.768-.0006-17.4525,5.278-36.311,5.2386-53.768.0006h0Z" style="fill:#ee801d;"/><path d="m781.1534,246.655c5.2378,17.457,5.278,36.3158.0009,53.7686-5.2781-17.4528-5.2381-36.3113-.0009-53.7686h0Z" style="fill:#ee801d;"/><path d="m757.9143,246.655c5.2381,17.4565,5.278,36.3158.0006,53.7686-5.2775-17.4528-5.2378-36.3113-.0006-53.7686h0Z" style="fill:#ee801d;"/></g><g style="clip-path:url(#clippath-17);"><path d="m695.4532,304.3668c17.457-5.2375,36.3158-5.2772,53.7689-.0008-17.4528,5.2786-36.3116,5.2383-53.7689.0008h0Z" style="fill:#ee801d;"/><path d="m695.4532,327.6058c17.457-5.2375,36.3158-5.2772,53.7689-.0008-17.4528,5.2786-36.3116,5.2383-53.7689.0008h0Z" style="fill:#ee801d;"/><path d="m687.6245,345.5812c5.2374,17.457,5.2771,36.3152.0008,53.7686-5.2783-17.4525-5.2389-36.3116-.0008-53.7686h0Z" style="fill:#ee801d;"/><path d="m664.3854,345.5812c5.2375,17.457,5.2775,36.3152.0008,53.7686-5.2783-17.4528-5.2386-36.3113-.0008-53.7686h0Z" style="fill:#ee801d;"/><path d="m788.983,304.3668c17.4565-5.2375,36.3152-5.2772,53.768-.0008-17.4525,5.2786-36.311,5.2386-53.768.0008h0Z" style="fill:#ee801d;"/><path d="m788.983,327.6058c17.4565-5.2375,36.3152-5.2772,53.768-.0008-17.4525,5.278-36.311,5.2389-53.768.0008h0Z" style="fill:#ee801d;"/><path d="m781.1534,345.5812c5.2378,17.457,5.278,36.3158.0009,53.7686-5.2781-17.4528-5.2381-36.3113-.0009-53.7686h0Z" style="fill:#ee801d;"/><path d="m757.9143,345.5812c5.2381,17.4565,5.278,36.3158.0006,53.7686-5.2775-17.4528-5.2378-36.3113-.0006-53.7686h0Z" style="fill:#ee801d;"/></g><g style="clip-path:url(#clippath-18);"><path d="m695.4532,403.2931c17.457-5.2375,36.3158-5.2775,53.7689-.0008-17.4528,5.2783-36.3116,5.2383-53.7689.0008h0Z" style="fill:#ee801d;"/><path d="m695.4532,426.5321c17.457-5.2375,36.3158-5.2772,53.7689-.0008-17.4528,5.2786-36.3116,5.2383-53.7689.0008h0Z" style="fill:#ee801d;"/><path d="m687.6245,444.5072c5.2374,17.4573,5.2771,36.3155.0008,53.7689-5.2783-17.4525-5.2389-36.3116-.0008-53.7689h0Z" style="fill:#ee801d;"/><path d="m664.3854,444.5072c5.2375,17.4573,5.2775,36.3155.0008,53.7689-5.2783-17.4531-5.2386-36.3113-.0008-53.7689h0Z" style="fill:#ee801d;"/><path d="m788.983,403.2931c17.4565-5.2375,36.3152-5.2775,53.768-.0008-17.4525,5.2783-36.311,5.2386-53.768.0008h0Z" style="fill:#ee801d;"/><path d="m788.983,426.5321c17.4565-5.2375,36.3152-5.2772,53.768-.0008-17.4525,5.278-36.311,5.2386-53.768.0008h0Z" style="fill:#ee801d;"/><path d="m781.1534,444.5072c5.2378,17.4573,5.278,36.3158.0009,53.7689-5.2781-17.4531-5.2381-36.3113-.0009-53.7689h0Z" style="fill:#ee801d;"/><path d="m757.9143,444.5072c5.2381,17.4567,5.278,36.3158.0006,53.7689-5.2775-17.4531-5.2378-36.3113-.0006-53.7689h0Z" style="fill:#ee801d;"/></g><g style="clip-path:url(#clippath-19);"><path d="m513.1449,106.5142c17.4565-5.2375,36.3152-5.2772,53.7686-.0008-17.4528,5.2786-36.3116,5.2383-53.7686.0008h0Z" style="fill:#ee801d;"/><path d="m513.1449,129.7533c17.4565-5.2375,36.3152-5.2772,53.7686-.0006-17.4528,5.2783-36.3116,5.2383-53.7686.0006h0Z" style="fill:#ee801d;"/><path d="m505.3161,147.7287c5.2369,17.457,5.2769,36.3152.0006,53.7686-5.2783-17.4525-5.2389-36.3116-.0006-53.7686h0Z" style="fill:#ee801d;"/><path d="m482.0764,147.7287c5.2375,17.457,5.2777,36.3152.0008,53.7686-5.278-17.4528-5.2383-36.3113-.0008-53.7686h0Z" style="fill:#ee801d;"/><path d="m606.6741,106.5142c17.4565-5.2375,36.3152-5.2772,53.768-.0008-17.4526,5.2786-36.3111,5.2389-53.768.0008h0Z" style="fill:#ee801d;"/><path d="m606.6741,129.7533c17.4565-5.2375,36.3152-5.2772,53.768-.0006-17.4526,5.278-36.3111,5.2386-53.768.0006h0Z" style="fill:#ee801d;"/><path d="m598.8444,147.7287c5.2381,17.457,5.278,36.3158.0008,53.7686-5.278-17.4528-5.2378-36.3113-.0008-53.7686h0Z" style="fill:#ee801d;"/><path d="m575.6054,147.7287c5.2383,17.4567,5.278,36.3158.0008,53.7686-5.2777-17.4528-5.238-36.3113-.0008-53.7686h0Z" style="fill:#ee801d;"/></g><g style="clip-path:url(#clippath-20);"><path d="m513.1449,205.4405c17.4565-5.2375,36.3152-5.2772,53.7686-.0008-17.4528,5.2786-36.3116,5.2383-53.7686.0008h0Z" style="fill:#ee801d;"/><path d="m513.1449,228.6796c17.4565-5.2375,36.3152-5.2772,53.7686-.0006-17.4528,5.2783-36.3116,5.2381-53.7686.0006h0Z" style="fill:#ee801d;"/><path d="m505.3161,246.655c5.2369,17.457,5.2769,36.3152.0006,53.7686-5.2783-17.4525-5.2389-36.3116-.0006-53.7686h0Z" style="fill:#ee801d;"/><path d="m482.0764,246.655c5.2375,17.457,5.2777,36.3152.0008,53.7686-5.278-17.4528-5.2383-36.3113-.0008-53.7686h0Z" style="fill:#ee801d;"/><path d="m606.6741,205.4405c17.4565-5.2375,36.3152-5.2772,53.768-.0008-17.4526,5.2786-36.3111,5.2389-53.768.0008h0Z" style="fill:#ee801d;"/><path d="m606.6741,228.6796c17.4565-5.2375,36.3152-5.2772,53.768-.0006-17.4526,5.278-36.3111,5.2386-53.768.0006h0Z" style="fill:#ee801d;"/><path d="m598.8444,246.655c5.2381,17.457,5.278,36.3158.0008,53.7686-5.278-17.4528-5.2378-36.3113-.0008-53.7686h0Z" style="fill:#ee801d;"/><path d="m575.6054,246.655c5.2383,17.4565,5.278,36.3158.0008,53.7686-5.2777-17.4528-5.238-36.3113-.0008-53.7686h0Z" style="fill:#ee801d;"/></g><g style="clip-path:url(#clippath-21);"><path d="m513.1449,304.3668c17.4565-5.2375,36.3152-5.2772,53.7686-.0008-17.4528,5.2786-36.3116,5.2383-53.7686.0008h0Z" style="fill:#ee801d;"/><path d="m513.1449,327.6058c17.4565-5.2375,36.3152-5.2772,53.7686-.0008-17.4528,5.2786-36.3116,5.2383-53.7686.0008h0Z" style="fill:#ee801d;"/><path d="m505.3161,345.5812c5.2369,17.457,5.2769,36.3152.0006,53.7686-5.2783-17.4525-5.2389-36.3116-.0006-53.7686h0Z" style="fill:#ee801d;"/><path d="m482.0764,345.5812c5.2375,17.457,5.2777,36.3152.0008,53.7686-5.278-17.4528-5.2383-36.3113-.0008-53.7686h0Z" style="fill:#ee801d;"/><path d="m606.6741,304.3668c17.4565-5.2375,36.3152-5.2772,53.768-.0008-17.4526,5.2786-36.3111,5.2386-53.768.0008h0Z" style="fill:#ee801d;"/><path d="m606.6741,327.6058c17.4565-5.2375,36.3152-5.2772,53.768-.0008-17.4526,5.278-36.3111,5.2389-53.768.0008h0Z" style="fill:#ee801d;"/><path d="m598.8444,345.5812c5.2381,17.457,5.278,36.3158.0008,53.7686-5.278-17.4528-5.2378-36.3113-.0008-53.7686h0Z" style="fill:#ee801d;"/><path d="m575.6054,345.5812c5.2383,17.4565,5.278,36.3158.0008,53.7686-5.2777-17.4528-5.238-36.3113-.0008-53.7686h0Z" style="fill:#ee801d;"/></g><g style="clip-path:url(#clippath-22);"><path d="m513.1449,403.2931c17.4565-5.2375,36.3152-5.2775,53.7686-.0008-17.4528,5.2783-36.3116,5.2383-53.7686.0008h0Z" style="fill:#ee801d;"/><path d="m513.1449,426.5321c17.4565-5.2375,36.3152-5.2772,53.7686-.0008-17.4528,5.2786-36.3116,5.2383-53.7686.0008h0Z" style="fill:#ee801d;"/><path d="m505.3161,444.5072c5.2369,17.4573,5.2769,36.3155.0006,53.7689-5.2783-17.4525-5.2389-36.3116-.0006-53.7689h0Z" style="fill:#ee801d;"/><path d="m482.0764,444.5072c5.2375,17.4573,5.2777,36.3155.0008,53.7689-5.278-17.4531-5.2383-36.3113-.0008-53.7689h0Z" style="fill:#ee801d;"/><path d="m606.6741,403.2931c17.4565-5.2375,36.3152-5.2775,53.768-.0008-17.4526,5.2783-36.3111,5.2386-53.768.0008h0Z" style="fill:#ee801d;"/><path d="m606.6741,426.5321c17.4565-5.2375,36.3152-5.2772,53.768-.0008-17.4526,5.278-36.3111,5.2386-53.768.0008h0Z" style="fill:#ee801d;"/><path d="m598.8444,444.5072c5.2381,17.4573,5.278,36.3158.0008,53.7689-5.278-17.4531-5.2378-36.3113-.0008-53.7689h0Z" style="fill:#ee801d;"/><path d="m575.6054,444.5072c5.2383,17.4567,5.278,36.3158.0008,53.7689-5.2777-17.4531-5.238-36.3113-.0008-53.7689h0Z" style="fill:#ee801d;"/></g></g><rect x="796.4355" y="315.4729" width="288.4013" height="288.4013" transform="translate(600.5449 -530.4952) rotate(45)" style="fill:#dd392a;"/><path d="m763.3446,459.6744c55.1316-57.7262,118.2364-123.3805,175.0522-179.1475l2.2809-2.2711,2.1968,2.2711c14.622,15.0968,51.1615,52.8911,65.2125,67.4686,36.1886,37.104,73.7207,74.2407,110.9368,110.1988,0,.0003,1.4737,1.4406,1.4737,1.4406l-1.4737,1.5188c-21.7029,22.4134-65.4521,67.3521-87.3924,89.5162-27.0849,27.2141-63.9399,64.9404-91.0091,91.4979.0003.0008-2.7734-2.7987-2.7734-2.7987-50.767-50.1957-124.2918-127.6494-174.5043-179.6948h0Zm.7643,0c52.1476,49.7499,129.0224,123.8995,179.3132,174.1216-.0003.0003-5.5727.0003-5.5727.0003,25.4572-25.5129,62.5222-62.617,88.6992-88.209,22.1376-21.933,67.1205-65.7272,89.5162-87.3923v2.9583c-43.0516-44.5847-87.9093-89.6881-132.7062-132.6561l-44.9616-43.4931h4.4771c-14.5868,14.653-28.9212,29.432-43.6912,43.8744-39.6899,39.2501-94.6633,92.2735-135.0741,130.7959h0Z" style="fill:#f5b311;"/></g><path d="m128.6343,273.2363c0-3.3622,3.3943-6.0877,7.5815-6.0877s7.5812,2.7255,7.5812,6.0877-3.3943,6.0876-7.5812,6.0876-7.5815-2.7255-7.5815-6.0876Z" style="fill:#f5b311;"/><path d="m132.3463,275.8955c.4683-7.0264-.5164-13.8755-2.7983-20.5732-1.2454-3.0572-3.4044-5.7003-5.8925-8.2046-4.0827-4.0659-6.758-9.0287-8.1154-14.1414-1.2359-5.1338-1.3272-10.4666.2491-15.5052l.2452.0313c.1198,9.5032,2.1538,18.9144,7.5899,27.3485,3.5306,5.0466,7.4399,10.0272,9.4922,15.643,1.6105,5.0316,1.5618,10.5193-.5288,15.4485-.0001-.0001-.2415-.0469-.2415-.0469h0Z" style="fill:#f5b311;"/><path d="m132.7463,275.9088c-.5666-8.7219-.6019-17.3287-1.848-25.9602-1.1058-5.7814-4.5847-11.0664-5.7255-16.8532-2.1056-8.6182-2.382-17.536-.7044-26.2123l.2478.0134c.4082,5.8185.8962,11.5781,1.5815,17.3103.7475,7.1811,2.1238,14.3384,4.2642,21.3426,1.8836,7.0828,4.2541,14.3583,3.6678,21.6622-.1349,2.9231-.4508,5.8469-1.2364,8.7174l-.2471-.0202h0Z" style="fill:#f5b311;"/><path d="m139.5656,275.9423c-2.091-4.9283-2.1391-10.4175-.529-15.4484,2.0522-5.6153,5.962-10.5969,9.4924-15.643,5.4362-8.4348,7.4698-17.8444,7.5901-27.3485-.0001,0,.2451-.0313.2451-.0313,1.5762,5.0386,1.485,10.3714.2489,15.5052-1.3572,5.1127-4.0326,10.0755-8.1155,14.1413-2.9887,2.9665-5.4848,6.2795-6.511,10.0394-1.773,6.1395-2.6369,12.3372-2.1796,18.7385l-.2414.0468h0Z" style="fill:#f5b311;"/><path d="m139.1599,275.929c-1.4558-5.7413-1.6327-11.674-.7924-17.4852,1.0899-5.6819,2.9307-11.5518,4.422-17.1632,1.5271-5.6085,2.4327-11.3624,3.0659-17.0739.6854-5.7321,1.1735-11.4917,1.5816-17.3102l.2478-.0134c1.6776,8.6763,1.4013,17.5941-.7042,26.2123-1.1411,5.7871-4.6199,11.0716-5.7255,16.8532-1.2462,8.6317-1.2813,17.238-1.8486,25.9602.0004,0-.2466.0202-.2466.0202h0Z" style="fill:#f5b311;"/><path d="m198.9325,299.466c-5.7234-5.8919-14.6499-9.6701-24.6688-9.6701-3.3647,0-6.5924.4287-9.6217,1.2162-4.8295-8.8824-15.8666-15.0931-28.716-15.0931-12.8374,0-23.8742,6.2107-28.7037,15.0931-3.0293-.7875-6.2573-1.2162-9.6216-1.2162-10.019,0-18.9454,3.7782-24.6688,9.6701v55.4665h126.0024l-.0017-55.4665Z" style="fill:#dd392a;"/><path d="m72.8332,309.366c7.2469-8.8564,22.3022-12.7793,34.6986-9.1621-.0001-.0001-1.2335.4457-1.2335.4457,7.9964-13.6782,31.3703-19.9499,47.4225-11.4358,5.2929,2.7005,9.6357,6.6699,12.139,11.3322l-1.6281-.5885c9.4721-2.4473,20.2639-1.0184,28.134,3.8145,2.6159,1.5509,4.8427,3.484,6.6639,5.594l-.1958.1226c-8.1862-7.5577-21.981-10.756-33.7829-7.4993,0,0-1.1379.3076-1.1379.3076l-.4905-.8963c-10.5771-19.3025-45.3452-20.4946-55.2776-.1034-.0001-.0002-.325.6589-.325.6589l-.9087-.2131c-8.8945-2.1278-18.8186-1.1355-26.6712,2.8936-2.659,1.3153-5.0519,2.9776-7.211,4.852l-.1958-.1226h0Z" style="fill:#f5b311;"/><path d="m136.2158,315.4257c-18.2431,0-33.0319,11.8752-33.0319,26.5241s14.7889,26.5239,33.0319,26.5239,33.0318-11.8751,33.0318-26.5239-14.789-26.5241-33.0318-26.5241Zm-.3079,34.894l-10.7315-8.6172,10.7315-8.6171,10.7314,8.6171-10.7314,8.6172Z" style="fill:#f5b311;"/><path d="m163.1097,341.9498c.1472,15.7389-18.9586,27.1048-37.403,20.3708-21.9276-8.1467-23.027-33.2363-.2303-41.1889,18.5583-6.274,37.838,4.9955,37.6333,20.8181h0Zm-.2483,0c-.2097-18.1558-28.8307-27.1292-44.7493-14.5367-10.1054,7.6687-10.8649,21.6624-.5409,29.5079,15.9464,12.4801,45.2902,3.0979,45.2901-14.9712h0Z" style="fill:#fff8f0;"/><path d="m135.9079,350.4194c-4.1404-2.4704-8.6722-5.5468-12.1917-8.7847,4.118-2.8031,8.3668-5.4927,11.7107-8.9353.0001.0002.4037-.3699.4037-.3699l.5579.37c4.2122,2.7808,8.3025,5.9169,12.1442,9.0189-3.9046,3.0819-8.4073,6.1349-12.6249,8.701h0Zm0-.1994c3.3361-3.3152,6.2655-6.3262,9.795-9.2692v1.5035c-.8938-.7185-1.7999-1.4271-2.6613-2.1714-2.5322-2.1549-5.3009-4.5149-7.6142-6.8114,0,.0001.961,0,.961,0-.9537.6704-1.9469,1.309-2.8652,2.0076-2.8611,2.0315-5.1433,4.4904-7.616,6.8101v-1.1732c3.8227,2.7841,6.6443,5.7272,10.0007,9.104h0Z" style="fill:#362620;"/><rect x="72.9293" y="354.9325" width="126.005" height="105.7095" style="fill:#dd392a;"/><polygon points="198.9343 354.9325 72.9319 354.9325 198.9343 345.6817 198.9343 354.9325" style="fill:#362620;"/><path d="m175.8305,251.2737c-17.4554-4.2579-35.9044,3.6527-41.2071,17.6692-5.3026,14.0163,4.5492,28.8305,22.0044,33.0884,17.4554,4.258,35.9045-3.6528,41.2071-17.669,5.3027-14.0165-4.5492-28.8307-22.0044-33.0886Zm-12.9256,33.3156l-7.1488-10.7499,13.3873-5.7403,7.1488,10.7498-13.3873,5.7404Z" style="fill:#f5b311;"/><path d="m191.9621,282.9296c-5.5564,15.0937-27.9514,21.5097-43.162,10.7615-18.0319-12.9129-10.0017-37.1759,14.6893-39.4644,20.0281-1.6715,34.3961,13.6113,28.4727,28.7029h0Zm-.2376-.0579c6.3715-17.4209-17.7655-32.687-37.555-24.3535-20.6983,8.7763-18.3702,32.806,4.579,37.908,13.1272,3.1427,29.0733-2.6298,32.9759-13.5545h0Z" style="fill:#fff8f0;"/><path d="m162.8689,284.6847c-3.0674-3.3302-6.2898-7.3314-8.4854-11.251,4.955-1.7209,9.9939-3.3027,14.4395-5.8162.0001.0002.5202-.2598.5202-.2598l.4.4844c3.0237,3.6439,5.8022,7.5991,8.3551,11.4639-4.8515,2.0377-10.265,3.9077-15.2295,5.3787h0Zm.0721-.1908c4.3922-2.3935,8.2851-4.5906,12.7274-6.5829-.0001,0-.5442,1.4386-.5442,1.4386-.595-.8961-1.2055-1.7855-1.7604-2.6988-1.6429-2.6529-3.4377-5.5571-4.8198-8.2945l.9196.2243c-1.1551.4188-2.3367.7981-3.4684,1.2522-3.4727,1.2761-6.5466,3.096-9.752,4.7386-.0001-.0001.4245-1.1227.4245-1.1227,2.6497,3.5562,4.2845,7.0308,6.2734,11.0452h0Z" style="fill:#362620;"/><path d="m102.1346,268.3008c-17.4554-4.2579-35.9044,3.6528-41.207,17.6692-5.3026,14.0164,4.549,28.8305,22.0044,33.0884,17.4552,4.258,35.9044-3.6527,41.207-17.669,5.3026-14.0164-4.5492-28.8306-22.0044-33.0886Zm-12.9256,33.3156l-7.1488-10.7499,13.3873-5.7403,7.1487,10.7498-13.3872,5.7404Z" style="fill:#f5b311;"/><path d="m118.2662,299.9567c-5.5563,15.0938-27.9514,21.5097-43.1619,10.7615-18.032-12.9129-10.0017-37.1758,14.6892-39.4644,20.0282-1.6715,34.3961,13.6114,28.4727,28.7029h0Zm-.2376-.0579c6.3716-17.4209-17.7656-32.6868-37.5551-24.3535-20.6983,8.7763-18.37,32.806,4.5792,37.9081,13.1272,3.1426,29.0733-2.6297,32.9759-13.5546h0Z" style="fill:#fff8f0;"/><path d="m89.1731,301.7118c-3.0674-3.3302-6.29-7.3314-8.4855-11.251,4.955-1.7209,9.994-3.3027,14.4395-5.8162.0001.0002.5202-.2597.5202-.2597l.3999.4843c3.0237,3.6439,5.8025,7.5992,8.3551,11.4639-4.8514,2.0377-10.2648,3.9077-15.2292,5.3787h0Zm.0721-.1908c4.3921-2.3934,8.2851-4.5906,12.7273-6.5829l-.5442,1.4386c-.5952-.896-1.2055-1.7855-1.7604-2.6988-1.6429-2.6529-3.4376-5.5571-4.8198-8.2945l.9196.2244c-1.1552.4188-2.3365.7981-3.4683,1.2523-3.4728,1.2759-6.5466,3.0959-9.7523,4.7385,0,0,.4248-1.1228.4248-1.1228,2.6497,3.5562,4.2843,7.0308,6.2734,11.0452h0Z" style="fill:#362620;"/><path d="m1792.0524,273.2363c0-3.3622-3.3943-6.0877-7.5815-6.0877s-7.5812,2.7255-7.5812,6.0877,3.3943,6.0876,7.5812,6.0876,7.5815-2.7255,7.5815-6.0876Z" style="fill:#f5b311;"/><path d="m1788.3403,275.8955c-.4683-7.0264.5164-13.8755,2.7983-20.5732,1.2454-3.0572,3.4044-5.7003,5.8925-8.2046,4.0827-4.0659,6.758-9.0287,8.1154-14.1414,1.2359-5.1338,1.3272-10.4666-.2491-15.5052l-.2452.0313c-.1198,9.5032-2.1538,18.9144-7.5899,27.3485-3.5306,5.0466-7.4399,10.0272-9.4922,15.643-1.6105,5.0316-1.5618,10.5193.5287,15.4485.0001-.0001.2415-.0469.2415-.0469h0Z" style="fill:#f5b311;"/><path d="m1787.9403,275.9088c.5666-8.7219.6019-17.3287,1.848-25.9602,1.1058-5.7814,4.5847-11.0664,5.7255-16.8532,2.1056-8.6182,2.382-17.536.7044-26.2123l-.2478.0134c-.4082,5.8185-.8962,11.5781-1.5815,17.3103-.7475,7.1811-2.1238,14.3384-4.2642,21.3426-1.8836,7.0828-4.2541,14.3583-3.6678,21.6622.1349,2.9231.4508,5.8469,1.2364,8.7174l.2471-.0202h0Z" style="fill:#f5b311;"/><path d="m1781.121,275.9423c2.091-4.9283,2.1391-10.4175.529-15.4484-2.0522-5.6153-5.962-10.5969-9.4924-15.643-5.4362-8.4348-7.4697-17.8444-7.5901-27.3485.0001,0-.2451-.0313-.2451-.0313-1.5762,5.0386-1.485,10.3714-.2489,15.5052,1.3572,5.1127,4.0326,10.0755,8.1155,14.1413,2.9887,2.9665,5.4848,6.2795,6.511,10.0394,1.773,6.1395,2.6369,12.3372,2.1796,18.7385l.2414.0468h0Z" style="fill:#f5b311;"/><path d="m1781.5268,275.929c1.4558-5.7413,1.6327-11.674.7924-17.4852-1.0899-5.6819-2.9307-11.5518-4.422-17.1632-1.5271-5.6085-2.4327-11.3624-3.0659-17.0739-.6854-5.7321-1.1735-11.4917-1.5816-17.3102l-.2478-.0134c-1.6776,8.6763-1.4013,17.5941.7042,26.2123,1.1411,5.7871,4.6199,11.0716,5.7255,16.8532,1.2462,8.6317,1.2813,17.238,1.8486,25.9602-.0003,0,.2466.0202.2466.0202h0Z" style="fill:#f5b311;"/><path d="m1721.7541,299.466c5.7234-5.8919,14.6499-9.6701,24.6688-9.6701,3.3647,0,6.5924.4287,9.6217,1.2162,4.8295-8.8824,15.8666-15.0931,28.716-15.0931,12.8374,0,23.8742,6.2107,28.7037,15.0931,3.0293-.7875,6.2573-1.2162,9.6216-1.2162,10.019,0,18.9454,3.7782,24.6688,9.6701v55.4665h-126.0024l.0017-55.4665Z" style="fill:#dd392a;"/><path d="m1847.8535,309.366c-7.2469-8.8564-22.3022-12.7793-34.6986-9.1621.0001-.0001,1.2335.4457,1.2335.4457-7.9964-13.6782-31.3703-19.9499-47.4225-11.4358-5.2929,2.7005-9.6357,6.6699-12.139,11.3322l1.6281-.5885c-9.4721-2.4473-20.264-1.0184-28.134,3.8145-2.6159,1.5509-4.8427,3.484-6.6639,5.594l.1958.1226c8.1862-7.5577,21.981-10.756,33.7829-7.4993,0,0,1.1379.3076,1.1379.3076l.4905-.8963c10.5771-19.3025,45.3452-20.4946,55.2776-.1034.0001-.0002.325.6589.325.6589l.9087-.2131c8.8945-2.1278,18.8186-1.1355,26.6712,2.8936,2.659,1.3153,5.0519,2.9776,7.211,4.852l.1958-.1226h0Z" style="fill:#f5b311;"/><path d="m1751.4391,341.9498c0,14.6488,14.789,26.5239,33.0318,26.5239s33.0319-11.8751,33.0319-26.5239-14.7889-26.5241-33.0319-26.5241-33.0318,11.8752-33.0318,26.5241Zm22.6083-.2473l10.7314-8.6171,10.7315,8.6171-10.7315,8.6172-10.7314-8.6172Z" style="fill:#f5b311;"/><path d="m1757.577,341.9498c-.2048-15.8226,19.075-27.0921,37.6333-20.8181,22.7967,7.9526,21.6973,33.0422-.2302,41.1889-18.4445,6.734-37.5503-4.6319-37.403-20.3708h0Zm.2483,0c-.0001,18.0691,29.3437,27.4513,45.2901,14.9712,10.324-7.8455,9.5646-21.8392-.5409-29.5079-15.9185-12.5925-44.5395-3.6191-44.7493,14.5367h0Z" style="fill:#fff8f0;"/><path d="m1784.7788,350.4194c-4.2176-2.5661-8.7204-5.6191-12.6249-8.701,3.8416-3.102,7.932-6.2381,12.1442-9.0189l.5579-.37s.4036.3701.4037.3699c3.3439,3.4426,7.5927,6.1322,11.7107,8.9353-3.5195,3.2379-8.0512,6.3143-12.1917,8.7847h0Zm0-.1994c3.3564-3.3768,6.178-6.3199,10.0007-9.104v1.1732c-2.4727-2.3197-4.7549-4.7786-7.616-6.8101-.9183-.6986-1.9115-1.3372-2.8652-2.0076,0,0,.961.0001.961,0-2.3134,2.2965-5.082,4.6565-7.6142,6.8114-.8614.7443-1.7675,1.4529-2.6613,2.1714v-1.5035c3.5295,2.943,6.4589,5.954,9.795,9.2692h0Z" style="fill:#362620;"/><rect x="1721.7524" y="354.9325" width="126.005" height="105.7095" transform="translate(3569.5098 815.5745) rotate(180)" style="fill:#dd392a;"/><polygon points="1721.7524 354.9325 1847.7548 354.9325 1721.7524 345.6817 1721.7524 354.9325" style="fill:#362620;"/><path d="m1722.8517,284.3623c5.3026,14.0162,23.7517,21.927,41.2071,17.669,17.4553-4.2579,27.307-19.0721,22.0045-33.0884-5.3027-14.0165-23.7517-21.9271-41.2071-17.6692-17.4553,4.2579-27.3072,19.0721-22.0044,33.0886Zm21.5427-5.5134l7.1489-10.7498,13.3873,5.7403-7.1488,10.7499-13.3873-5.7404Z" style="fill:#f5b311;"/><path d="m1728.7246,282.9296c-5.9234-15.0916,8.4446-30.3744,28.4727-28.7029,24.6911,2.2885,32.7212,26.5515,14.6893,39.4644-15.2107,10.7482-37.6056,4.3322-43.162-10.7615h0Zm.2376-.0579c3.9026,10.9247,19.8488,16.6972,32.9759,13.5545,22.9493-5.102,25.2774-29.1317,4.579-37.908-19.7895-8.3335-43.9264,6.9326-37.555,24.3535h0Z" style="fill:#fff8f0;"/><path d="m1757.8178,284.6847c-4.9645-1.471-10.3779-3.341-15.2295-5.3787,2.5529-3.8648,5.3314-7.82,8.3551-11.4639l.4-.4844s.5201.26.5202.2598c4.4457,2.5135,9.4845,4.0953,14.4396,5.8162-2.1956,3.9196-5.418,7.9208-8.4854,11.251h0Zm-.0721-.1908c1.9888-4.0144,3.6236-7.489,6.2734-11.0452,0,0,.4247,1.1226.4245,1.1227-3.2054-1.6426-6.2793-3.4625-9.752-4.7386-1.1318-.4541-2.3134-.8334-3.4684-1.2522l.9195-.2243c-1.3821,2.7374-3.1769,5.6416-4.8198,8.2945-.5549.9133-1.1654,1.8027-1.7604,2.6988,0,0-.5441-1.4386-.5442-1.4386,4.4423,1.9923,8.3352,4.1894,12.7274,6.5829h0Z" style="fill:#362620;"/><path d="m1796.5476,301.3894c5.3026,14.0163,23.7518,21.927,41.207,17.669,17.4554-4.2579,27.307-19.072,22.0044-33.0884-5.3026-14.0164-23.7516-21.9271-41.207-17.6692-17.4553,4.258-27.3071,19.0722-22.0045,33.0886Zm21.5428-5.5134l7.1487-10.7498,13.3874,5.7403-7.1488,10.7499-13.3872-5.7404Z" style="fill:#f5b311;"/><path d="m1802.4205,299.9567c-5.9234-15.0915,8.4445-30.3744,28.4727-28.7029,24.691,2.2886,32.7213,26.5515,14.6893,39.4644-15.2106,10.7482-37.6057,4.3323-43.162-10.7615h0Zm.2376-.0579c3.9026,10.9249,19.8487,16.6972,32.9759,13.5546,22.9492-5.1021,25.2775-29.1318,4.5792-37.9081-19.7895-8.3333-43.9267,6.9326-37.5551,24.3535h0Z" style="fill:#fff8f0;"/><path d="m1831.5136,301.7118c-4.9644-1.471-10.3778-3.341-15.2292-5.3787,2.5526-3.8647,5.3314-7.82,8.3551-11.4639l.3999-.4843s.5201.2599.5202.2597c4.4455,2.5135,9.4845,4.0953,14.4396,5.8162-2.1954,3.9196-5.418,7.9208-8.4855,11.251h0Zm-.0721-.1908c1.9891-4.0144,3.6236-7.489,6.2734-11.0452,0,0,.4248,1.1227.4248,1.1228-3.2057-1.6426-6.2795-3.4626-9.7523-4.7385-1.1318-.4542-2.3131-.8335-3.4683-1.2523l.9196-.2244c-1.3823,2.7374-3.1769,5.6416-4.8198,8.2945-.5549.9133-1.1653,1.8028-1.7604,2.6988l-.5442-1.4386c4.4422,1.9923,8.3352,4.1895,12.7273,6.5829h0Z" style="fill:#362620;"/><path d="m947.3358,367.2356h185.5083s-3.5278,93.4884-92.7541,93.4884-92.7542-93.4884-92.7542-93.4884Z" style="fill:#038d5e;"/><g style="clip-path:url(#clippath-23);"><path d="m940.4502,436.9928c3.2434-3.7915,6.9292-7.3044,11.2749-9.8836,6.4678-3.9104,13.8802-5.6505,19.7986-10.3516,6.7-5.3555,12.5956-12.1109,16.1106-19.9746,2.9476-6.8571,4.0782-14.5329,8.303-20.8391.5981-.9902,1.4246-2.2193,2.1173-3.1111l1.1198-1.5117,1.2148-1.4342c2.4231-2.8702,5.0188-5.62,7.9541-7.9723l1.4711-1.1763,1.5532-1.0672c5.1209-3.629,11.2853-5.3745,16.7384-8.3696,5.3923-3.0154,9.9939-7.311,13.8852-12.0796,0,0,1.1835-1.4265,1.1835-1.4265l1.0853-1.4974c.6917-.881,1.4626-2.1154,2.0452-3.0718,4.1248-6.3239,5.019-13.9752,7.9398-20.846,3.547-8.1453,9.5843-15.0463,16.5649-20.423,5.9961-4.6844,13.6167-6.3411,20.1414-10.0257,4.3079-2.3951,8.1403-5.7978,11.5334-9.3606,0,0,.1035.0926.1035.0926-3.2699,3.7666-6.934,7.2949-11.281,9.8732-6.4608,3.9148-13.8713,5.6675-19.7712,10.3909-6.662,5.3667-12.5575,12.1319-15.9611,20.0184-2.4347,5.7445-3.3701,12.0587-6.2574,17.6643-1.69,3.3411-3.8981,6.5875-6.35,9.4249-4.0317,4.8185-8.828,9.1592-14.4117,12.1-6.1233,3.1057-12.8949,4.8575-18.4434,9.0087-5.4184,4.1285-10.1575,9.2631-13.731,15.0716-4.1401,6.3562-4.9508,14.0577-7.7638,20.9856,0-.0001-.743,1.7469-.743,1.7469l-.8702,1.688c-3.9688,7.1894-9.6148,13.4583-16.354,18.1206-6.7069,4.6885-15.0832,6.1387-21.7016,10.9531-3.0032,2.0848-5.8521,4.7508-8.3952,7.3758,0,0-.1034-.0927-.1034-.0927h0Z" style="fill:#0f5c3c;"/><path d="m950.1289,435.6524c3.2434-3.7915,6.9293-7.3043,11.2749-9.8837,6.4678-3.9102,13.8803-5.6504,19.7985-10.3515,6.7001-5.3555,12.5957-12.1108,16.1107-19.9746,2.9477-6.8571,4.0783-14.5329,8.3031-20.8391.598-.9902,1.4245-2.2193,2.1172-3.111,0,0,1.1198-1.5118,1.1198-1.5118l1.2148-1.4342c2.4231-2.8702,5.0188-5.62,7.9541-7.9723l1.4712-1.1762,1.5531-1.0674c5.121-3.6289,11.2853-5.3744,16.7384-8.3695,5.3924-3.0154,9.994-7.311,13.8853-12.0795l1.1835-1.4266,1.0853-1.4974c.6916-.881,1.4625-2.1154,2.0451-3.0717,4.1248-6.3239,5.019-13.9753,7.9398-20.8461,3.547-8.1453,9.5843-15.0463,16.565-20.4229,5.996-4.6845,13.6167-6.3412,20.1414-10.0258,4.3078-2.3951,8.1403-5.7977,11.5333-9.3606,0,.0001.1035.0927.1035.0927-3.2699,3.7665-6.934,7.2948-11.281,9.8731-6.4607,3.9148-13.8713,5.6675-19.7712,10.3909-6.6619,5.3667-12.5575,12.1319-15.9611,20.0184-2.4347,5.7445-3.37,12.0587-6.2574,17.6643-1.6899,3.3411-3.898,6.5875-6.35,9.4249-4.0317,4.8186-8.8279,9.1593-14.4117,12.1-6.1233,3.1058-12.8948,4.8576-18.4433,9.0087-5.4185,4.1285-10.1576,9.2631-13.7311,15.0716-4.1401,6.3562-4.9508,14.0577-7.7637,20.9856,0,0-.7431,1.747-.7431,1.747l-.8702,1.688c-3.9688,7.1892-9.6148,13.4582-16.3539,18.1205-6.7069,4.6885-15.0833,6.1387-21.7017,10.9531-3.0032,2.0849-5.8521,4.7508-8.3952,7.3759,0-.0002-.1034-.0928-.1034-.0928h0Z" style="fill:#0f5c3c;"/><path d="m960.8006,459.7348c3.2433-3.7916,6.9292-7.3044,11.2748-9.8838,6.4678-3.9103,13.8803-5.6504,19.7986-10.3514,6.7-5.3556,12.5955-12.111,16.1106-19.9746,2.9477-6.8572,4.0783-14.533,8.3031-20.8391.598-.9904,1.4245-2.2193,2.1173-3.1111,0-.0001,1.1197-1.5118,1.1197-1.5118l1.2148-1.4342c2.4231-2.8702,5.0189-5.62,7.9541-7.9723l1.4712-1.1762,1.5531-1.0673c5.1211-3.629,11.2853-5.3745,16.7384-8.3696,5.3924-3.0153,9.994-7.311,13.8853-12.0796,0,.0001,1.1835-1.4265,1.1835-1.4265l1.0853-1.4973c.6916-.881,1.4625-2.1156,2.0452-3.0719,4.1247-6.3238,5.0189-13.9752,7.9397-20.8459,3.547-8.1454,9.5842-15.0465,16.5649-20.4231,5.9961-4.6845,13.6167-6.3411,20.1415-10.0257,4.3078-2.3951,8.1403-5.7977,11.5333-9.3605l.1035.0926c-3.2699,3.7665-6.934,7.2948-11.281,9.8732-6.4607,3.9147-13.8713,5.6674-19.7712,10.3908-6.6619,5.3667-12.5575,12.132-15.9611,20.0185-2.4347,5.7444-3.37,12.0586-6.2574,17.6643-1.6899,3.3411-3.898,6.5874-6.35,9.4248-4.0316,4.8186-8.8279,9.1593-14.4117,12.1001-6.1233,3.1057-12.8948,4.8575-18.4433,9.0087-5.4186,4.1284-10.1575,9.2631-13.7311,15.0714-4.14,6.3564-4.9508,14.0578-7.7637,20.9858,0,0-.743,1.7469-.743,1.7469l-.8703,1.6879c-3.9688,7.1893-9.6148,13.4583-16.3539,18.1205-6.7069,4.6886-15.0833,6.1387-21.7017,10.9532-3.0032,2.0849-5.8521,4.7508-8.3952,7.3758,0-.0001-.1033-.0926-.1033-.0926h0Z" style="fill:#0f5c3c;"/><path d="m970.4792,458.3943c3.2434-3.7914,6.9292-7.3043,11.2749-9.8836,6.4678-3.9104,13.8803-5.6504,19.7986-10.3516,6.7001-5.3555,12.5956-12.1108,16.1107-19.9745,2.9476-6.8572,4.0783-14.533,8.303-20.8392.5981-.9902,1.4245-2.2192,2.1173-3.111,0,0,1.1197-1.5118,1.1197-1.5118l1.2148-1.4341c2.4231-2.8703,5.0189-5.6201,7.9541-7.9724.0001,0,1.4712-1.1762,1.4712-1.1762l1.5532-1.0673c5.121-3.629,11.2852-5.3745,16.7384-8.3696,5.3923-3.0153,9.9939-7.3109,13.8852-12.0795l1.1835-1.4266,1.0853-1.4973c.6917-.8811,1.4626-2.1155,2.0452-3.0719,4.1247-6.3239,5.0189-13.9751,7.9398-20.8459,3.5469-8.1454,9.5842-15.0464,16.5648-20.4231,5.9962-4.6844,13.6168-6.3411,20.1415-10.0257,4.3079-2.395,8.1403-5.7978,11.5334-9.3605l.1034.0926c-3.2698,3.7665-6.934,7.2948-11.281,9.8732-6.4607,3.9147-13.8713,5.6675-19.7711,10.3908-6.662,5.3667-12.5576,12.1319-15.9611,20.0185-2.4348,5.7444-3.3701,12.0587-6.2575,17.6643-1.6899,3.3411-3.8979,6.5874-6.3499,9.4249-4.0317,4.8185-8.828,9.1592-14.4118,12.1-6.1233,3.1057-12.8948,4.8574-18.4433,9.0087-5.4185,4.1285-10.1575,9.2631-13.731,15.0715-4.1401,6.3563-4.9509,14.0577-7.7637,20.9857-.0002-.0001-.7431,1.7469-.7431,1.7469l-.8703,1.688c-3.9688,7.1892-9.6148,13.4582-16.3539,18.1205-6.7069,4.6885-15.0832,6.1387-21.7017,10.9532-3.0032,2.0847-5.8521,4.7508-8.3951,7.3758,0-.0001-.1035-.0928-.1035-.0928h0Z" style="fill:#0f5c3c;"/><path d="m985.6732,487.5304c3.2433-3.7915,6.9292-7.3043,11.2748-9.8836,6.4678-3.9104,13.8803-5.6505,19.7986-10.3516,6.7-5.3556,12.5956-12.1109,16.1106-19.9746,2.9478-6.8571,4.0783-14.5329,8.3031-20.8391.5981-.9902,1.4246-2.2193,2.1173-3.1111l1.1197-1.5117,1.2148-1.4342c2.4232-2.8702,5.0189-5.62,7.9541-7.9723.0001,0,1.4712-1.1762,1.4712-1.1762l1.5531-1.0673c5.1211-3.629,11.2853-5.3745,16.7384-8.3696,5.3924-3.0153,9.994-7.311,13.8853-12.0795.0001,0,1.1835-1.4266,1.1835-1.4266l1.0853-1.4973c.6917-.8811,1.4626-2.1155,2.0452-3.0719,4.1247-6.3239,5.0189-13.9751,7.9398-20.8459,3.5469-8.1454,9.5842-15.0464,16.5649-20.4231,5.9961-4.6844,13.6167-6.3411,20.1414-10.0257,4.3079-2.3951,8.1403-5.7978,11.5333-9.3606,0,.0002.1035.0927.1035.0927-3.2698,3.7665-6.9339,7.2949-11.2809,9.8731-6.4608,3.9148-13.8713,5.6676-19.7713,10.3909-6.6619,5.3667-12.5575,12.1319-15.9611,20.0184-2.4347,5.7444-3.37,12.0587-6.2574,17.6644-1.6899,3.3411-3.898,6.5874-6.3499,9.4248-4.0317,4.8185-8.828,9.1592-14.4118,12.1001-6.1233,3.1057-12.8948,4.8574-18.4433,9.0086-5.4185,4.1285-10.1575,9.2631-13.731,15.0716-4.1401,6.3562-4.9509,14.0577-7.7638,20.9856,0,0-.743,1.7469-.743,1.7469l-.8702,1.6881c-3.9689,7.1892-9.6148,13.4582-16.354,18.1204-6.7069,4.6886-15.0832,6.1388-21.7016,10.9532-3.0033,2.0848-5.8522,4.7508-8.3953,7.3759,0-.0002-.1033-.0928-.1033-.0928h0Z" style="fill:#0f5c3c;"/><path d="m995.3519,486.19c3.2433-3.7915,6.9292-7.3043,11.2748-9.8836,6.4678-3.9104,13.8804-5.6505,19.7986-10.3516,6.7001-5.3555,12.5956-12.1109,16.1107-19.9745,2.9477-6.8572,4.0783-14.533,8.303-20.8392.5981-.9902,1.4245-2.2192,2.1174-3.111l1.1196-1.5118,1.2148-1.4342c2.4231-2.8702,5.019-5.62,7.9542-7.9723l1.4711-1.1763,1.5532-1.0672c5.121-3.629,11.2853-5.3745,16.7384-8.3696,5.3924-3.0154,9.994-7.311,13.8853-12.0795l1.1835-1.4266,1.0853-1.4974c.6916-.8809,1.4625-2.1154,2.0451-3.0717,4.1247-6.324,5.019-13.9753,7.9398-20.846,3.547-8.1454,9.5842-15.0464,16.5649-20.423,5.9961-4.6845,13.6167-6.3412,20.1414-10.0258,4.308-2.395,8.1404-5.7978,11.5334-9.3606,0,.0001.1034.0927.1034.0927-3.2698,3.7665-6.934,7.2948-11.2809,9.8731-6.4608,3.9148-13.8714,5.6675-19.7712,10.3909-6.662,5.3667-12.5575,12.1319-15.9611,20.0184-2.4347,5.7445-3.3701,12.0587-6.2575,17.6644-1.6899,3.3411-3.8979,6.5875-6.3499,9.4248-4.0317,4.8185-8.828,9.1593-14.4118,12.1001-6.1232,3.1057-12.8948,4.8575-18.4432,9.0086-5.4186,4.1285-10.1576,9.2631-13.7311,15.0716-4.14,6.3563-4.9509,14.0577-7.7637,20.9857-.0002-.0001-.7431,1.7469-.7431,1.7469l-.8702,1.688c-3.9689,7.1893-9.6148,13.4582-16.354,18.1205-6.7069,4.6885-15.0832,6.1387-21.7017,10.9532-3.0032,2.0848-5.8521,4.7507-8.3951,7.3758,0-.0002-.1034-.0928-.1034-.0928h0Z" style="fill:#0f5c3c;"/><path d="m1013.2423,518.3396c3.2434-3.7916,6.9292-7.3044,11.2749-9.8837,6.4678-3.9104,13.8802-5.6505,19.7986-10.3515,6.7-5.3556,12.5956-12.1109,16.1106-19.9747,2.9476-6.857,4.0783-14.5329,8.3031-20.8391.5981-.9902,1.4245-2.2193,2.1173-3.111l1.1197-1.5118,1.2148-1.4342c2.4231-2.8702,5.0189-5.62,7.9541-7.9723,0,0,1.4712-1.1762,1.4712-1.1762l1.5532-1.0673c5.1209-3.629,11.2852-5.3745,16.7383-8.3696,5.3923-3.0154,9.994-7.311,13.8853-12.0795l1.1834-1.4265,1.0854-1.4975c.6917-.881,1.4626-2.1154,2.0452-3.0717,4.1247-6.3239,5.0189-13.9753,7.9398-20.8461,3.5469-8.1453,9.5841-15.0463,16.5648-20.4229,5.9961-4.6845,13.6168-6.3412,20.1415-10.0258,4.3078-2.3951,8.1403-5.7977,11.5334-9.3606,0,.0001.1034.0927.1034.0927-3.2698,3.7666-6.934,7.2948-11.281,9.8731-6.4608,3.9148-13.8713,5.6675-19.7712,10.3909-6.6619,5.3668-12.5575,12.1319-15.9611,20.0184-2.4347,5.7445-3.3701,12.0587-6.2574,17.6644-1.69,3.3411-3.898,6.5875-6.35,9.4248-4.0317,4.8186-8.828,9.1593-14.4117,12.1-6.1233,3.1058-12.8949,4.8576-18.4433,9.0087-5.4185,4.1285-10.1575,9.2631-13.7311,15.0716-4.14,6.3563-4.9508,14.0577-7.7637,20.9856-.0001,0-.743,1.747-.743,1.747l-.8703,1.688c-3.9688,7.1893-9.6148,13.4582-16.354,18.1205-6.7068,4.6885-15.0832,6.1386-21.7016,10.9531-3.0031,2.0849-5.8521,4.7508-8.3952,7.3759,0-.0002-.1034-.0927-.1034-.0927h0Z" style="fill:#0f5c3c;"/><path d="m1022.9211,516.9992c3.2433-3.7916,6.9292-7.3044,11.2748-9.8837,6.4678-3.9104,13.8803-5.6504,19.7986-10.3515,6.7-5.3555,12.5956-12.1109,16.1106-19.9746,2.9477-6.8572,4.0783-14.5329,8.3031-20.8391.598-.9903,1.4245-2.2193,2.1173-3.1111l1.1197-1.5117,1.2149-1.4343c2.4231-2.8702,5.0188-5.62,7.954-7.9723,0,.0001,1.4712-1.1762,1.4712-1.1762l1.5532-1.0673c5.121-3.6289,11.2852-5.3744,16.7383-8.3696,5.3924-3.0153,9.994-7.311,13.8853-12.0795l1.1835-1.4265,1.0853-1.4974c.6917-.881,1.4626-2.1155,2.0452-3.0718,4.1247-6.3239,5.0189-13.9752,7.9397-20.846,3.547-8.1453,9.5843-15.0464,16.565-20.423,5.996-4.6845,13.6167-6.3411,20.1414-10.0258,4.3078-2.3951,8.1403-5.7977,11.5334-9.3606,0,0,.1034.0927.1034.0927-3.2698,3.7666-6.9339,7.2949-11.2809,9.8731-6.4608,3.9149-13.8713,5.6676-19.7713,10.3909-6.6619,5.3667-12.5575,12.1319-15.961,20.0184-2.4348,5.7445-3.3701,12.0588-6.2575,17.6643-1.6899,3.3412-3.898,6.5876-6.35,9.4249-4.0316,4.8186-8.8279,9.1593-14.4117,12.1001-6.1233,3.1057-12.8948,4.8575-18.4433,9.0087-5.4185,4.1284-10.1575,9.2631-13.7311,15.0715-4.14,6.3563-4.9508,14.0577-7.7637,20.9856,0,0-.743,1.747-.743,1.747l-.8702,1.688c-3.9689,7.1893-9.6149,13.4581-16.354,18.1206-6.7069,4.6884-15.0832,6.1387-21.7017,10.953-3.0031,2.0849-5.8521,4.7509-8.3952,7.3758,0-.0001-.1033-.0926-.1033-.0926h0Z" style="fill:#0f5c3c;"/></g><path d="m947.3358,367.2356h185.5083s-3.5278,68.5195-92.7541,68.5195-92.7542-68.5195-92.7542-68.5195Z" style="fill:#dd392a;"/><path d="m1132.9135,367.2392c-1.643,21.3485-13.8354,41.5232-31.7006,53.2569-10.0849,6.5327-21.6209,10.6123-33.3689,12.884-3.6264.7512-8.1522,1.3679-11.8244,1.8277-31.2041,3.1973-66.7992-1.0314-89.3898-24.9493-10.8159-11.5369-18.443-27.438-19.2251-43.0264,3.2338,26.7038,21.3767,49.5701,46.2019,59.5877,23.2999,9.5036,53.5653,10.9819,78.0281,5.2625,32.5819-7.5701,56.4197-31.6682,61.2788-64.8431h0Z" style="fill:#fff8f0;"/><path d="m1087.9278,395.8274s-4.7039,11.443,0,11.443,0-11.443,0-11.443Z" style="fill:#362620;"/><path d="m1075.556,378.3817s-4.7038,11.443,0,11.443,0-11.443,0-11.443Z" style="fill:#362620;"/><path d="m1046.2759,408.0164s-4.7039,11.443,0,11.443,0-11.443,0-11.443Z" style="fill:#362620;"/><path d="m1033.9041,390.5708s-4.7038,11.4429,0,11.4429,0-11.4429,0-11.4429Z" style="fill:#362620;"/><path d="m1058.0176,390.5708s-4.7038,11.4429,0,11.4429,0-11.4429,0-11.4429Z" style="fill:#362620;"/><path d="m1011.3152,378.8466s-4.7038,11.443,0,11.443,0-11.443,0-11.443Z" style="fill:#362620;"/><path d="m982.6748,387.5695s-4.7038,11.4429,0,11.4429,0-11.4429,0-11.4429Z" style="fill:#362620;"/><path d="m1002.6661,405.1297s-4.7038,11.4429,0,11.4429,0-11.4429,0-11.4429Z" style="fill:#362620;"/><rect x="1080.6751" y="286.8096" width="173.9143" height="173.9144" rx="17.731" ry="17.731" transform="translate(2335.2644 747.5335) rotate(180)" style="fill:#0f5c3c;"/><rect x="1099.9179" y="306.0526" width="154.6715" height="154.6714" rx="11.7537" ry="11.7537" transform="translate(2354.5073 766.7765) rotate(180)" style="fill:#038d5e;"/><g style="clip-path:url(#clippath-24);"><path d="m1337.0979,419.8769c-3.9764-4.064-8.3424-8.0328-12.9947-11.2718-5.3445-3.7206-11.3436-6.3705-16.9329-9.6464-5.2732-3.031-10.0181-6.8818-14.4321-11.0618-5.7975-5.4791-11.1872-11.4455-15.4244-18.2148-2.2136-3.5673-4.0704-7.3129-6.0745-11.0142-2.8816-5.4145-6.4626-10.4509-10.5297-15.0251-6.1102-6.8255-12.8782-13.2195-20.6505-18.1182-6.4804-4.0336-13.6323-6.9243-19.7662-11.4982-6.1417-4.4462-11.6329-9.843-16.6446-15.5197-1.9469-2.1899-3.9441-4.7592-5.6027-7.1667-4.166-5.9473-6.8918-12.7263-10.6737-18.9251-7.2383-11.4592-18.5773-22.7045-30.2942-29.5074-5.2977-3.0768-10.979-5.3791-16.0962-8.7411-5.1538-3.2473-9.809-7.244-14.2017-11.484l-.0821.082c4.2858,4.3502,8.8227,8.5221,13.9631,11.8935,5.0587,3.451,10.7217,5.9159,15.9596,9.0331,5.2658,3.0426,10.0001,6.9018,14.403,11.0899,5.7743,5.4947,11.1533,11.4609,15.3158,18.2655,3.7369,6.2145,6.5282,13.0043,10.7599,18.9468,1.6971,2.4312,3.7335,5.0181,5.7282,7.232,6.136,6.8439,12.9703,13.1978,20.8387,18.0058,7.2215,4.2986,15.1376,7.3701,21.8042,12.5596,6.609,5.1222,12.6657,11.0742,17.8517,17.6385,5.6196,6.8265,8.8221,15.1306,13.2473,22.7081,4.1694,6.9086,9.6059,13.0108,15.4715,18.5016,4.4802,4.1846,9.3219,8.0579,14.681,11.0884,5.2896,3.0894,10.9733,5.3901,16.0862,8.7571,5.1553,3.2456,9.7943,7.2564,14.208,11.4747l.082-.0821h0Z" style="fill:#0f5c3c;"/><path d="m1324.2719,418.2875c-3.9764-4.0641-8.3424-8.0329-12.9947-11.2719-5.3445-3.7206-11.3435-6.3705-16.9329-9.6464-5.2732-3.0309-10.018-6.8818-14.4321-11.0618-5.7975-5.4789-11.1871-11.4455-15.4244-18.2148-2.2137-3.5672-4.0703-7.3129-6.0745-11.0141-2.8817-5.4146-6.4626-10.4509-10.5297-15.0252-6.1101-6.8255-12.8783-13.2195-20.6505-18.1181-6.4804-4.0336-13.6323-6.9243-19.7663-11.4982-6.1417-4.4462-11.6328-9.843-16.6445-15.5198-1.9469-2.1898-3.9441-4.7592-5.6028-7.1667-4.1659-5.9472-6.8917-12.7263-10.6736-18.925-7.2382-11.4592-18.5773-22.7045-30.2941-29.5074-5.2979-3.0769-10.9791-5.3792-16.0963-8.741-5.1537-3.2475-9.8091-7.2442-14.2018-11.4842l-.082.082c4.2858,4.3502,8.8227,8.5221,13.9631,11.8935,5.0587,3.4511,10.7217,5.916,15.9596,9.0332,5.2658,3.0425,10.0001,6.9018,14.4029,11.0898,5.7743,5.4947,11.1533,11.4609,15.3159,18.2655,3.7369,6.2145,6.5282,13.0044,10.7599,18.9469,1.697,2.4312,3.7334,5.0181,5.7282,7.232,6.136,6.8438,12.9703,13.1977,20.8386,18.0058,7.2216,4.2985,15.1377,7.37,21.8043,12.5595,6.609,5.1223,12.6657,11.0742,17.8516,17.6386,5.6197,6.8264,8.8222,15.1306,13.2474,22.708,4.1694,6.9087,9.6059,13.0108,15.4715,18.5016,4.4801,4.1847,9.3219,8.058,14.681,11.0884,5.2896,3.0894,10.9732,5.3902,16.0862,8.7571,5.1552,3.2457,9.7943,7.2564,14.208,11.4747l.082-.082h0Z" style="fill:#0f5c3c;"/><path d="m1310.1302,446.8447c-3.9764-4.064-8.3425-8.0328-12.9947-11.2719-5.3446-3.7205-11.3436-6.3705-16.933-9.6464-5.2731-3.0309-10.018-6.8818-14.432-11.0617-5.7975-5.4791-11.1872-11.4455-15.4245-18.2149-2.2136-3.5672-4.0703-7.3129-6.0744-11.0141-2.8817-5.4146-6.4627-10.4509-10.5298-15.0251-6.1101-6.8256-12.8782-13.2195-20.6504-18.1182-6.4804-4.0336-13.6324-6.9243-19.7663-11.4982-6.1417-4.4462-11.6328-9.8431-16.6446-15.5197-1.9468-2.1899-3.9441-4.7593-5.6027-7.1668-4.1659-5.9473-6.8917-12.7263-10.6736-18.925-7.2383-11.4592-18.5773-22.7045-30.2942-29.5075-5.2978-3.0768-10.979-5.3791-16.0962-8.7409-5.1538-3.2474-9.8091-7.2442-14.2018-11.4842l-.082.0821c4.2857,4.3501,8.8226,8.522,13.9631,11.8934,5.0586,3.4511,10.7216,5.9159,15.9596,9.0332,5.2657,3.0425,10.0001,6.9018,14.4029,11.0899,5.7743,5.4946,11.1533,11.4608,15.3159,18.2655,3.7369,6.2144,6.5281,13.0042,10.7599,18.9468,1.697,2.4311,3.7334,5.0181,5.7282,7.232,6.1359,6.8438,12.9703,13.1977,20.8386,18.0058,7.2215,4.2986,15.1377,7.37,21.8042,12.5595,6.609,5.1223,12.6657,11.0743,17.8518,17.6386,5.6196,6.8264,8.822,15.1306,13.2473,22.708,4.1694,6.9087,9.6059,13.0108,15.4714,18.5016,4.4802,4.1846,9.322,8.058,14.6811,11.0885,5.2896,3.0893,10.9732,5.3901,16.0862,8.757,5.1552,3.2457,9.7943,7.2564,14.2079,11.4747l.0821-.082h0Z" style="fill:#0f5c3c;"/><path d="m1297.3042,445.2553c-3.9765-4.0641-8.3425-8.0329-12.9947-11.2719-5.3446-3.7206-11.3437-6.3705-16.933-9.6465-5.2732-3.0309-10.018-6.8817-14.4321-11.0617-5.7975-5.479-11.1871-11.4455-15.4244-18.2148-2.2136-3.5673-4.0703-7.3129-6.0745-11.0142-2.8816-5.4145-6.4626-10.4508-10.5297-15.0251-6.1102-6.8255-12.8782-13.2195-20.6504-18.1182-6.4804-4.0335-13.6324-6.9243-19.7663-11.4982-6.1417-4.4462-11.6328-9.843-16.6445-15.5197-1.9469-2.1899-3.9442-4.7592-5.6028-7.1668-4.1659-5.9472-6.8918-12.7262-10.6737-18.925-7.2382-11.4591-18.5772-22.7045-30.2942-29.5074-5.2977-3.0768-10.979-5.3791-16.0961-8.741-5.1538-3.2474-9.8091-7.2441-14.2018-11.4841l-.0821.082c4.2858,4.3502,8.8227,8.522,13.9631,11.8935,5.0588,3.451,10.7218,5.9159,15.9596,9.0331,5.2658,3.0426,10.0001,6.9018,14.403,11.0899,5.7743,5.4947,11.1533,11.4609,15.3159,18.2655,3.7368,6.2145,6.5282,13.0043,10.7599,18.9469,1.697,2.4311,3.7334,5.018,5.7281,7.2319,6.136,6.8439,12.9704,13.1977,20.8387,18.0058,7.2216,4.2986,15.1376,7.37,21.8043,12.5596,6.6089,5.1222,12.6657,11.0742,17.8516,17.6385,5.6196,6.8264,8.8221,15.1306,13.2474,22.7081,4.1694,6.9086,9.6059,13.0108,15.4714,18.5016,4.4802,4.1846,9.322,8.0579,14.6811,11.0884,5.2896,3.0894,10.9732,5.3901,16.0862,8.7571,5.1552,3.2457,9.7942,7.2564,14.2079,11.4747l.0821-.082h0Z" style="fill:#0f5c3c;"/><path d="m1277.1696,479.8053c-3.9764-4.0641-8.3425-8.0329-12.9947-11.2719-5.3446-3.7205-11.3436-6.3704-16.9329-9.6465-5.2733-3.0308-10.0181-6.8817-14.4321-11.0617-5.7975-5.479-11.1872-11.4455-15.4245-18.2148-2.2136-3.5672-4.0702-7.3129-6.0744-11.0142-2.8817-5.4145-6.4627-10.4508-10.5298-15.0251-6.1101-6.8255-12.8782-13.2195-20.6504-18.1182-6.4804-4.0335-13.6324-6.9242-19.7663-11.4981-6.1417-4.4462-11.6329-9.8431-16.6445-15.5198-1.9469-2.1898-3.9441-4.7592-5.6028-7.1667-4.1659-5.9472-6.8917-12.7263-10.6736-18.925-7.2382-11.4592-18.5774-22.7046-30.2942-29.5075-5.2978-3.0768-10.979-5.3791-16.0962-8.741-5.1537-3.2473-9.8091-7.2441-14.2018-11.4841l-.082.082c4.2857,4.3502,8.8227,8.5221,13.9631,11.8936,5.0587,3.451,10.7217,5.9158,15.9596,9.0331,5.2658,3.0425,10.0001,6.9017,14.4029,11.0898,5.7743,5.4947,11.1533,11.4609,15.3159,18.2656,3.7369,6.2144,6.5282,13.0042,10.7599,18.9468,1.697,2.4312,3.7334,5.018,5.7282,7.2319,6.136,6.8439,12.9703,13.1978,20.8386,18.0058,7.2216,4.2987,15.1376,7.3701,21.8043,12.5596,6.609,5.1222,12.6657,11.0742,17.8516,17.6386,5.6197,6.8264,8.8222,15.1305,13.2474,22.708,4.1695,6.9087,9.6059,13.0108,15.4714,18.5016,4.4802,4.1846,9.322,8.0579,14.6811,11.0885,5.2896,3.0893,10.9732,5.3901,16.0862,8.757,5.1552,3.2457,9.7943,7.2565,14.208,11.4747l.082-.082h0Z" style="fill:#0f5c3c;"/><path d="m1264.3436,478.2158c-3.9764-4.064-8.3424-8.0328-12.9947-11.2718-5.3446-3.7206-11.3436-6.3705-16.933-9.6465-5.2732-3.0309-10.018-6.8818-14.432-11.0617-5.7976-5.479-11.1872-11.4455-15.4244-18.2149-2.2137-3.5672-4.0704-7.3128-6.0745-11.0141-2.8817-5.4146-6.4627-10.4509-10.5298-15.0251-6.1101-6.8256-12.8782-13.2195-20.6504-18.1182-6.4804-4.0336-13.6324-6.9243-19.7663-11.4982-6.1416-4.4462-11.6329-9.843-16.6445-15.5197-1.9469-2.1899-3.9441-4.7592-5.6028-7.1667-4.1659-5.9473-6.8918-12.7264-10.6736-18.9251-7.2382-11.4591-18.5774-22.7045-30.2942-29.5074-5.2977-3.0768-10.979-5.3791-16.0962-8.741-5.1538-3.2474-9.8091-7.2441-14.2018-11.4841l-.0821.082c4.2858,4.3502,8.8227,8.5221,13.9632,11.8935,5.0586,3.451,10.7216,5.9159,15.9596,9.0331,5.2657,3.0426,10.0001,6.9018,14.4029,11.0899,5.7743,5.4947,11.1533,11.4608,15.3159,18.2655,3.7369,6.2145,6.5282,13.0043,10.7599,18.9468,1.697,2.4312,3.7334,5.0181,5.7282,7.232,6.136,6.8439,12.9703,13.1977,20.8386,18.0057,7.2216,4.2987,15.1377,7.3701,21.8043,12.5597,6.6089,5.1222,12.6656,11.0742,17.8516,17.6385,5.6197,6.8265,8.8221,15.1306,13.2474,22.7081,4.1694,6.9086,9.6059,13.0108,15.4715,18.5016,4.4802,4.1846,9.3219,8.0579,14.681,11.0884,5.2896,3.0893,10.9732,5.3901,16.0862,8.7571,5.1552,3.2456,9.7943,7.2564,14.208,11.4746l.082-.082h0Z" style="fill:#0f5c3c;"/><path d="m1240.6356,516.3392c-3.9763-4.064-8.3424-8.0328-12.9947-11.2718-5.3446-3.7206-11.3436-6.3705-16.9329-9.6465-5.2732-3.0309-10.018-6.8818-14.4321-11.0617-5.7975-5.479-11.1872-11.4455-15.4244-18.2148-2.2136-3.5673-4.0703-7.3129-6.0745-11.0142-2.8816-5.4145-6.4626-10.4509-10.5298-15.0251-6.1101-6.8256-12.8782-13.2195-20.6504-18.1182-6.4804-4.0336-13.6323-6.9243-19.7662-11.4982-6.1417-4.4462-11.6329-9.843-16.6446-15.5197-1.9468-2.1898-3.9441-4.7592-5.6028-7.1667-4.1659-5.9473-6.8916-12.7263-10.6736-18.925-7.2382-11.4592-18.5773-22.7046-30.2942-29.5075-5.2977-3.0768-10.979-5.3791-16.0962-8.741-5.1538-3.2474-9.8091-7.2441-14.2017-11.4841l-.0821.082c4.2857,4.3502,8.8227,8.5221,13.9631,11.8935,5.0587,3.451,10.7217,5.9159,15.9596,9.0331,5.2658,3.0426,10.0001,6.9018,14.403,11.0899,5.7742,5.4947,11.1533,11.4609,15.3159,18.2655,3.7369,6.2145,6.5281,13.0043,10.7598,18.9468,1.6971,2.4312,3.7334,5.0181,5.7282,7.232,6.136,6.8439,12.9703,13.1978,20.8387,18.0058,7.2215,4.2986,15.1376,7.37,21.8042,12.5596,6.609,5.1222,12.6657,11.0742,17.8517,17.6385,5.6196,6.8265,8.8221,15.1306,13.2474,22.7081,4.1694,6.9086,9.6058,13.0108,15.4714,18.5016,4.4802,4.1846,9.3219,8.0579,14.681,11.0884,5.2896,3.0894,10.9733,5.3901,16.0862,8.7571,5.1553,3.2457,9.7943,7.2564,14.208,11.4746l.082-.082h0Z" style="fill:#0f5c3c;"/><path d="m1227.8096,514.7498c-3.9764-4.0641-8.3425-8.0329-12.9947-11.2719-5.3446-3.7205-11.3436-6.3705-16.9329-9.6464-5.2732-3.031-10.018-6.8818-14.4321-11.0618-5.7975-5.479-11.1871-11.4455-15.4244-18.2148-2.2137-3.5672-4.0703-7.3128-6.0745-11.0141-2.8817-5.4146-6.4626-10.4509-10.5297-15.0251-6.1102-6.8256-12.8783-13.2196-20.6505-18.1182-6.4803-4.0336-13.6323-6.9243-19.7663-11.4982-6.1416-4.4462-11.6328-9.843-16.6445-15.5198-1.9469-2.1898-3.9441-4.7592-5.6028-7.1667-4.1659-5.9472-6.8917-12.7263-10.6736-18.925-7.2383-11.4592-18.5773-22.7045-30.2942-29.5074-5.2977-3.0769-10.979-5.3792-16.0962-8.741-5.1537-3.2474-9.8091-7.2442-14.2018-11.4842l-.082.0821c4.2858,4.3502,8.8227,8.522,13.9631,11.8934,5.0587,3.4511,10.7217,5.916,15.9596,9.0332,5.2657,3.0425,10.0001,6.9018,14.4029,11.0898,5.7743,5.4947,11.1534,11.4609,15.3159,18.2655,3.7369,6.2146,6.5282,13.0044,10.7599,18.9469,1.697,2.4312,3.7334,5.0181,5.7282,7.232,6.136,6.8438,12.9703,13.1977,20.8386,18.0057,7.2216,4.2987,15.1377,7.37,21.8043,12.5597,6.609,5.1221,12.6657,11.0742,17.8516,17.6385,5.6197,6.8264,8.8222,15.1306,13.2474,22.7081,4.1695,6.9086,9.6059,13.0107,15.4715,18.5015,4.4802,4.1847,9.322,8.058,14.681,11.0885,5.2896,3.0893,10.9732,5.39,16.0862,8.757,5.1552,3.2457,9.7943,7.2564,14.208,11.4747l.082-.082h0Z" style="fill:#0f5c3c;"/></g><path d="m1214.2744,286.8096c-.5434,19.6635-.5664,40.0981-.1803,59.7831.0711,38.0426-.943,76.0921.1806,114.1313-.0003,0,.1157,0,.1157,0,1.1234-38.0391.1093-76.0889.1801-114.1313.2316-12.0847.348-25.9465.2069-38.0438-.1877-7.1738.0414-14.7902-.503-21.7393h0Z" style="fill:#fff8f0;"/><path d="m1140.1169,286.8096c-.5433,19.6635-.5665,40.0981-.1803,59.7831.0711,38.0426-.943,76.0921.1806,114.1313-.0003,0,.1157,0,.1157,0,1.1233-38.0391.1092-76.0889.1801-114.1313.2315-12.0847.3479-25.9465.2068-38.0438-.1876-7.1738.0415-14.7902-.5029-21.7393h0Z" style="fill:#fff8f0;"/><path d="m1080.6751,336.7461c19.6633.5433,40.0979.5664,59.783.1803,38.0426-.0712,76.0921.943,114.1313-.1807,0,.0004,0-.1156,0-.1156-38.0391-1.1234-76.0888-.1093-114.1313-.1801-12.0847-.2316-25.9465-.348-38.0438-.2069-7.1738.1877-14.7901-.0414-21.7392.503h0Z" style="fill:#fff8f0;"/><path d="m1080.6751,410.9036c19.6633.5434,40.0979.5665,59.783.1803,38.0426-.0711,76.0921.943,114.1313-.1806,0,.0003,0-.1157,0-.1157-38.0391-1.1234-76.0888-.1092-114.1313-.1801-12.0847-.2315-25.9465-.348-38.0438-.2068-7.1738.1876-14.7901-.0414-21.7392.5029h0Z" style="fill:#fff8f0;"/><rect x="1140.1749" y="336.688" width="74.1575" height="74.1575" transform="translate(2273.9902 -194.3852) rotate(135)" style="fill:#dd392a;"/><path d="m1177.2537,321.3295l10.1063,10.1064s-4.8093,5.2521-10.1063,5.2521-10.1064-5.2521-10.1064-5.2521l10.1064-10.1064Z" style="fill:#f5b311;"/><path d="m1177.2537,426.2041l-10.1064-10.1063s4.8094-5.2522,10.1064-5.2522,10.1063,5.2522,10.1063,5.2522l-10.1063,10.1063Z" style="fill:#f5b311;"/><path d="m1124.8164,373.7668l10.1063-10.1064s5.2522,4.8094,5.2522,10.1064-5.2522,10.1064-5.2522,10.1064l-10.1063-10.1064Z" style="fill:#f5b311;"/><path d="m1229.6909,373.7668l-10.1063,10.1064s-5.2521-4.8094-5.2521-10.1064,5.2521-10.1064,5.2521-10.1064l10.1063,10.1064Z" style="fill:#f5b311;"/><path d="m1177.2537,402.3416c-8.3776-8.102-20.8496-19.9721-28.9397-28.1518l-.4247-.4211s.4247-.4248.4249-.4248c4.088-4.1751,10.105-10.0376,14.2953-14.2212,3.5715-3.5379,10.8103-10.595,14.4196-14.0971l.2302-.2238.2189.2238c5.8023,5.993,11.7902,12.0413,17.767,17.8789,2.3472,2.2675,8.4337,8.1633,10.8649,10.5225l.3444.3338-.3444.3458c-8.9932,9.153-19.5647,19.3357-28.8564,28.235h0Zm0-.1161c6.2177-6.5045,14.7729-15.3558,21.1013-21.7506,2.3309-2.3806,4.7128-4.6951,7.0756-7.0478v.6795s-7.0177-7.2407-7.0177-7.2406c-6.935-7.2125-14.2039-14.4445-21.3837-21.3913h.449c-3.496,3.6064-10.5604,10.8524-14.0972,14.4195-4.1271,4.2178-10.1101,10.1904-14.2211,14.2955,0,0,0-.8458,0-.8458,8.0967,8.1097,20.0627,20.4827,28.0937,28.8816h0Z" style="fill:#f5b311;"/><path d="m1177.2537,426.2621c-14.9688-14.6984-38.2316-37.3594-52.8602-52.0723l-.424-.4217.424-.4242,13.1048-13.1138c12.7289-12.6614,26.7997-26.6133,39.5308-39.1251l.2272-.2246.2219.2246c12.8822,13.1059,26.1745,26.4551,39.3317,39.3241l13.2208,12.9979.3423.3365c-4.4991,4.5067-8.9749,9.0544-13.5052,13.5337-11.6999,11.6375-27.8023,27.4408-39.6141,38.9649h0Zm0-.116c11.5452-11.8309,27.3842-27.9723,39.0417-39.691,4.3243-4.3741,8.6995-8.6819,13.0557-13.028v.6795l-12.9978-13.2208c-12.8702-13.1456-26.2176-26.461-39.3241-39.3317h.449c-12.561,12.7244-26.4127,26.8098-39.1251,39.5308l-13.1138,13.1048s0-.8458.0002-.8458c14.903,14.9525,37.0919,37.4582,52.0142,52.8022h0Z" style="fill:#fff8f0;"/><path d="m785.0847,307.5687c-1.5894-9.2713-.105-25.3957,9.1265-30.4018,3.5712-1.9318,7.7939-1.3326,11.3822.1897,4.8117,1.9248,7.7884,7.0156,7.4759,12.2068-.0174,3.8506-2.8193,8.5993-7.3234,7.5386-1.8624-.3158-3.4699-2.0084-4.0559-3.6327-1.9782-5.5622-.68-11.8611,1.131-17.1632,3.0586-8.5217,11.4072-20.1829,21.7707-16.5661,0,.0001-.0981.5144-.0981.5144-9.2766.1513-13.7693,10.3014-16.39,17.8847-1.2318,3.9036-2.4854,8.404-2.1619,12.3911.0803.7425.261,1.5973.648,2.0938.2242.1508.5821.3086.8568.3061.5829-.0779,1.1744-.5901,1.5707-1.1459,3.1048-4.3845,1.3325-11.17-4.0403-12.8551-2.9141-.9772-6.4162-.7636-8.7424,1.3458-6.1637,5.8851-8.3482,18.8788-10.6265,27.3038.0002,0-.5233-.01-.5233-.01h0Z" style="fill:#0f5c3c;"/><circle cx="771.918" cy="380.0758" r="80.6339" transform="translate(-42.6646 657.1501) rotate(-45)" style="fill:#038d5e;"/><g style="clip-path:url(#clippath-25);"><path d="m686.2635,433.7113c12.8015-10.8997,21.4458-5.7346,34.2568-13.8449,4.6937-2.893,9.0602-6.1602,12.4765-10.4246,2.9301-3.6298,5.339-7.8769,8.6866-11.2552,1.0808-1.1123,2.3715-2.2703,3.5587-3.2807,4.1564-3.3112,8.6839-6.2392,13.5532-8.3888,1.4664-.5883,3.0642-1.1777,4.5724-1.6191,4.034-1.1244,8.2715-1.5851,12.2194-2.7433,6.1535-1.9144,11.7205-5.5379,16.5581-9.7521,2.5124-2.3511,4.6153-4.9371,6.3791-7.9471,1.8239-3.114,3.8553-6.6492,6.3107-9.4732,2.9595-3.3357,6.5334-6.1115,10.3686-8.3583,3.3184-1.9476,6.8994-3.6451,10.6617-4.5774,5.1656-1.3754,10.5413-1.0383,15.6747-2.0858,3.9613-.7567,7.7898-2.3553,11.5327-4.2419l.2866.4382c-3.2663,2.6643-6.9588,4.9801-11.1052,6.3843-3.963,1.4559-8.3281,1.8638-12.304,2.8867-7.7996,1.9707-15.5174,7.2448-20.8578,13.2132-2.3186,2.7445-3.9236,5.6351-5.9422,8.7343-2.6288,4.204-6.275,7.946-10.3279,10.8431-4.9282,3.4531-10.4329,6.3534-16.4097,7.4122-4.2095.7603-8.4016.6693-12.5323,1.4281-5.5583,1.0305-10.6461,3.8156-15.1276,7.1901-3.6299,2.8223-6.6389,6.371-8.7482,10.4727-1.9564,3.7155-3.9348,7.7996-6.8247,10.9841-2.532,2.9134-5.6143,5.3144-8.8891,7.334-3.2594,2.0209-6.8169,3.7347-10.5497,4.7256-5.1284,1.4326-10.5327,1.1474-15.6435,2.1951-4.0372.7818-7.8337,2.4298-11.5473,4.1888l-.2866-.4381h0Z" style="fill:#0f5c3c;"/><path d="m669.6109,409.4878c12.8017-10.8997,21.4456-5.7345,34.2567-13.8449,4.6938-2.8929,9.0603-6.1602,12.4765-10.4246,2.9302-3.6298,5.3391-7.8769,8.6867-11.2551,1.0808-1.1124,2.3715-2.2704,3.5586-3.2808,4.1565-3.3111,8.684-6.2391,13.5533-8.3888,1.4663-.5882,3.0642-1.1776,4.5724-1.619,4.034-1.1245,8.2714-1.5851,12.2194-2.7433,6.1535-1.9144,11.7204-5.538,16.5581-9.7521,2.5124-2.3513,4.6153-4.9372,6.379-7.9471,1.8239-3.1141,3.8553-6.6492,6.3106-9.4733,2.9596-3.3356,6.5335-6.1115,10.3687-8.3583,3.3185-1.9476,6.8994-3.645,10.6618-4.5773,5.1656-1.3754,10.5412-1.0384,15.6747-2.0858,3.9612-.7568,7.7897-2.3553,11.5326-4.2419l.2866.4381c-3.2663,2.6644-6.9588,4.9802-11.1051,6.3844-3.9631,1.4559-8.3281,1.8637-12.3041,2.8866-7.7995,1.9707-15.5173,7.2448-20.8577,13.2132-2.3186,2.7446-3.9237,5.6351-5.9423,8.7344-2.6288,4.2039-6.2749,7.9459-10.3278,10.843-4.9282,3.4532-10.433,6.3534-16.4098,7.4122-4.2094.7604-8.4015.6694-12.5323,1.4281-5.5583,1.0305-10.6459,3.8156-15.1276,7.19-3.6298,2.8224-6.6388,6.3711-8.7481,10.4729-1.9563,3.7154-3.9349,7.7996-6.8248,10.984-2.5319,2.9134-5.6143,5.3145-8.889,7.3341-3.2595,2.0207-6.8169,3.7347-10.5497,4.7255-5.1284,1.4327-10.5327,1.1475-15.6436,2.1952-4.0371.7818-7.8335,2.4298-11.5472,4.1887l-.2866-.4381h0Z" style="fill:#0f5c3c;"/><path d="m682.5475,364.9229c12.8016-10.8997,21.4457-5.7345,34.2567-13.8449,4.6938-2.8929,9.0603-6.1602,12.4766-10.4246,2.9301-3.6298,5.339-7.8769,8.6866-11.2551,1.0809-1.1124,2.3715-2.2704,3.5587-3.2808,4.1564-3.3111,8.6839-6.2391,13.5532-8.3888,1.4664-.5882,3.0642-1.1776,4.5724-1.6191,4.034-1.1244,8.2714-1.585,12.2194-2.7433,6.1536-1.9143,11.7204-5.5378,16.5581-9.752,2.5124-2.3512,4.6153-4.9372,6.379-7.9471,1.8239-3.114,3.8554-6.6492,6.3107-9.4733,2.9596-3.3356,6.5334-6.1115,10.3687-8.3582,3.3184-1.9477,6.8994-3.6451,10.6617-4.5774,5.1656-1.3754,10.5413-1.0384,15.6747-2.0859,3.9613-.7567,7.7897-2.3552,11.5327-4.2418l.2866.4382c-3.2663,2.6642-6.9588,4.98-11.1052,6.3843-3.963,1.4559-8.3281,1.8637-12.304,2.8866-7.7996,1.9708-15.5175,7.2448-20.8578,13.2132-2.3187,2.7446-3.9235,5.6352-5.9422,8.7344-2.6288,4.2038-6.2749,7.946-10.3278,10.843-4.9282,3.4532-10.4331,6.3534-16.4098,7.4122-4.2095.7604-8.4016.6693-12.5323,1.4281-5.5583,1.0305-10.646,3.8156-15.1276,7.1901-3.6299,2.8223-6.6389,6.371-8.7482,10.4727-1.9564,3.7156-3.9348,7.7997-6.8247,10.9842-2.532,2.9133-5.6143,5.3144-8.8891,7.334-3.2594,2.0208-6.8169,3.7348-10.5497,4.7255-5.1284,1.4326-10.5327,1.1475-15.6436,2.1952-4.0371.7818-7.8336,2.4297-11.5472,4.1888,0-.0001-.2866-.4382-.2866-.4382h0Z" style="fill:#0f5c3c;"/><path d="m664.2055,484.5485c4.0701-3.179,8.5438-5.9898,13.499-7.8756,4.7863-1.9535,10.0396-2.7683,14.885-4.2469,10.8337-3.2421,23.3042-11.5292,30.7844-20.0039,3.3363-3.8424,6.511-8.1347,10.346-11.5992,1.3761-1.2789,3.0217-2.6154,4.5002-3.7929,5.7508-4.2085,11.7952-8.1681,18.4122-10.9099,7.645-3.303,16.1663-3.9918,23.6186-7.7048,7.1428-3.5869,14.0315-8.1057,19.6506-13.8264,3.5519-3.6167,6.132-7.805,9.3036-11.887,1.6467-2.0878,3.5207-4.1626,5.4811-5.9683,3.4139-3.1717,7.3068-5.8963,11.3146-8.2518,5.147-3.0329,10.7213-5.5754,16.5891-6.8473,5.0886-1.188,10.1037-1.4932,15.0854-2.8804,4.8497-1.2577,9.5029-3.3735,14.0748-5.7232l.2818.4413c-4.1012,3.1307-8.5698,5.9294-13.5159,7.8242-4.9201,2.0067-10.1727,2.8402-14.8619,4.3214-4.7391,1.4365-9.1571,3.6241-13.3579,6.2552-5.5493,3.4698-10.6629,7.3551-14.9294,12.1991-2.2774,2.6401-4.1809,5.3431-6.4088,8.1935-2.8109,3.6861-6.2434,7.1183-9.9216,9.99-6.8755,5.1507-14.5223,9.6011-22.9124,11.7011-6.2871,1.5573-12.7261,1.7704-18.7945,3.9862-5.9442,2.1175-11.5334,5.4195-16.5103,9.284-1.974,1.5057-3.8938,3.2981-5.5794,5.1122-4.1784,4.4706-6.9287,9.9579-10.7575,14.7683-1.2647,1.5389-2.6355,3.0526-4.0564,4.4514-1.6434,1.544-3.5626,3.1358-5.3685,4.4814-4.8459,3.465-10.0425,6.5242-15.6586,8.5906-6.1067,2.3892-12.7071,2.8124-19.0058,4.2204-5.5345,1.2782-10.7242,3.5252-15.9058,6.1386,0,0-.2818-.4413-.2818-.4413h0Z" style="fill:#0f5c3c;"/><path d="m734.0516,476.6858c4.0702-3.179,8.5438-5.9898,13.4991-7.8756,4.7863-1.9535,10.0396-2.7684,14.8849-4.2469,10.8338-3.2421,23.3042-11.5292,30.7845-20.0039,3.3364-3.8425,6.5109-8.1347,10.346-11.5992,1.3762-1.2788,3.0217-2.6154,4.5002-3.7929,5.7509-4.2085,11.7952-8.1681,18.4123-10.9099,7.645-3.303,16.1662-3.9918,23.6185-7.7048,7.1428-3.5869,14.0315-8.1057,19.6505-13.8264,3.552-3.6167,6.1322-7.8049,9.3037-11.887,1.6467-2.0877,3.5206-4.1626,5.4811-5.9683,3.4139-3.1717,7.3068-5.8963,11.3147-8.2517,5.1469-3.033,10.7212-5.5754,16.5891-6.8474,5.0885-1.1879,10.1037-1.4933,15.0854-2.8804,4.8496-1.2578,9.5028-3.3735,14.0748-5.7232l.2817.4413c-4.1012,3.1307-8.5698,5.9295-13.5159,7.8243-4.9201,2.0066-10.1728,2.8401-14.8618,4.3214-4.7391,1.4365-9.1572,3.624-13.358,6.2551-5.5493,3.4698-10.663,7.3551-14.9294,12.1991-2.2774,2.6401-4.1808,5.3431-6.4088,8.1935-2.8108,3.6861-6.2434,7.1183-9.9216,9.99-6.8756,5.1507-14.5222,9.6011-22.9124,11.7011-6.2871,1.5573-12.7261,1.7704-18.7945,3.9862-5.9442,2.1176-11.5334,5.4195-16.5103,9.284-1.974,1.5056-3.8938,3.2981-5.5793,5.1122-4.1785,4.4706-6.9287,9.9578-10.7576,14.7683-1.2647,1.5389-2.6355,3.0526-4.0564,4.4514-1.6434,1.544-3.5626,3.1357-5.3684,4.4814-4.8459,3.465-10.0426,6.5242-15.6587,8.5906-6.1067,2.3892-12.7071,2.8124-19.0057,4.2204-5.5345,1.2783-10.7242,3.5252-15.9059,6.1387.0001-.0001-.2818-.4414-.2818-.4414h0Z" style="fill:#0f5c3c;"/></g><rect x="734.7278" y="342.8855" width="74.3806" height="74.3806" transform="translate(647.8258 -471.3443) rotate(55.493)" style="fill:#dd392a;"/><path d="m781.4965,328.3604l-11.8133,8.1212s3.7838,6.0583,9.0078,7.0259,10.9266-3.3338,10.9266-3.3338l-8.1211-11.8133Z" style="fill:#f5b311;"/><path d="m762.3397,431.7913l11.8133-8.1212s-3.7838-6.0584-9.0079-7.0259c-5.224-.9676-10.9266,3.3338-10.9266,3.3338l8.1212,11.8133Z" style="fill:#f5b311;"/><path d="m823.6335,389.6542l-8.1212-11.8133s-6.0583,3.7839-7.0258,9.0079c-.9676,5.2241,3.3337,10.9266,3.3337,10.9266l11.8133-8.1212Z" style="fill:#f5b311;"/><path d="m720.2026,370.4974l8.1212,11.8133s6.0584-3.7838,7.0259-9.0078c.9676-5.224-3.3338-10.9266-3.3338-10.9266l-11.8133,8.1211Z" style="fill:#f5b311;"/><path d="m766.6985,408.2572c-7.5383-10.474-16.1043-22.4475-23.3017-33.1173l-.2765-.4039.4006-.2663c2.8287-1.8827,9.9084-6.5855,12.6375-8.393,6.9608-4.6655,13.971-9.5368,20.7881-14.3874,0,0,.2569-.1807.2569-.1807l.1862.2627c2.9199,4.1132,8.77,12.3955,11.6459,16.5371,3.3685,4.8913,8.2318,11.7722,11.5009,16.6365,0,0,.3415.4966.3415.4966l-.4959.3377c-9.4728,6.5894-23.9413,16.0179-33.6835,22.478h0Zm.0212-.1144c9.4545-6.8163,23.516-16.8332,32.9825-23.3523,0,0-.1544.8342-.1544.8342-3.3045-4.7996-8.1142-11.7829-11.414-16.6965-2.8365-4.164-8.4801-12.6006-11.2692-16.796l.4428.082c-8.3499,5.5398-16.8398,11.3444-24.9967,17.1907l-8.2436,5.8591.1241-.6701c1.9004,2.7519,3.8267,5.4696,5.6907,8.2433,5.0732,7.4627,11.8937,17.755,16.8378,25.3056h0Z" style="fill:#f5b311;"/><path d="m762.3291,431.8485c-9.5443-13.523-22.5382-32.0502-31.9513-45.6646-3.6498-5.2451-7.2332-10.5478-10.8472-15.8143l.399-.2693,15.4131-10.404c15.3268-10.2886,30.8745-21.0259,45.9733-31.5983l.2599-.1809.1831.263c10.2702,14.665,21.5989,30.995,31.8398,45.8072l10.529,15.3271.3406.4958-.4951.3384c-17.1147,11.8383-44.1967,29.9381-61.6442,41.6999h0Zm.0212-.1144c17.5196-12.4069,43.514-30.5498,60.9431-42.5743.0002.0001-.1543.8343-.1543.8343l-10.5394-15.3199c-10.2139-14.8679-21.302-31.2896-31.3657-46.1333l.4428.082c-15.277,10.2995-30.873,20.9934-45.9672,31.6072l-15.2339,10.6645.1241-.6701c3.5023,5.082,7.0305,10.1297,10.4963,15.2334,9.3563,13.6868,22.0289,32.4992,31.2542,46.2762h0Z" style="fill:#fff8f0;"/><path d="m796.2925,315.0176c15.8026,4.6345,29.3433,16.1951,36.7886,30.8393,0,0,1.6358,3.4127,1.6358,3.4127.8161,2.0084,1.9438,5.0369,2.5101,7.1133-7.1872-18.913-22.0745-34.0161-40.9345-41.3653h0Z" style="fill:#fff8f0;"/><path d="m786.0745,299.0315s12.4732-9.0807,21.0048-6.8982c8.5316,2.1824,15.2874,10.122,21.868,11.0478,6.5805.9259,8.9582,8.806,8.9582,8.806,0,0-4.1798-3.7962-7.1361-3.4919-2.9563.3042-6.2862-2.6686-6.2862-2.6686,0,0,9.269,4.0376,11.759,10.8859,2.4901,6.8484,1.5378,11.7557,5.969,15.1617,0,0-4.0145-1.4814-8.0125-5.9886,0,0,8.5019,20.6576,8.1581,31.4774,0,0-.3042-2.9563-4.4146-6.4317-4.1103-3.4754-10.8233-12.7674-12.533-19.1132,0,0-.1189,8.7564,1.8586,11.6863,0,0-6.9013-.8565-9.0277-9.1268-2.1263-8.2703-5.6547-7.5064-7.1131-14.2423,0,0-1.7756,5.7571-.0495,9.0771,0,0-4.1269-.4496-6.6169-7.298-2.4901-6.8484-1.5114-10.0825-6.2368-11.7457-4.7254-1.6633-12.1493-11.1372-12.1493-11.1372Z" style="fill:#0f5c3c;"/><path d="m788.0916,292.7503s2.3123-11.7202-2.0012-17.001c-4.3136-5.2808-12.0919-7.4379-14.8869-11.758-2.7951-4.32-9.1046-3.4216-9.1046-3.4216,0,0,4.0286,1.6984,4.7785,3.8739.7498,2.1755,3.9231,3.5454,3.9231,3.5454,0,0-5.8568-5.1941-11.4784-4.7109-5.6215.4832-8.7577,2.7515-12.5941.7495,0,0,2.349,2.3367,6.8176,3.6755,0,0-17.2798.7617-24.767,4.5297,0,0,2.1755-.7499,5.9561,1.0043,3.7807,1.7542,12.4948,3.4404,17.509,2.5729,0,0-6.1113,2.9375-8.8135,2.5035,0,0,2.8508,4.568,9.3525,3.3659,6.5016-1.2021,7.115,1.5249,12.3213.3537,0,0-3.4647,3.1237-6.3591,2.9934,0,0,1.6609,2.7519,7.2824,2.2687,5.6215-.4832,7.5739-2.2248,10.2823.552s11.782,4.9031,11.782,4.9031Z" style="fill:#0f5c3c;"/><path d="m674.8126,368.3344l-1.1178-.1442c.0138-.1068,1.4103-10.7836,4.2892-23.1726,3.8756-16.6795,8.4459-28.3546,13.5837-34.7018l.8762.7094c-12.0175,14.8452-17.5766,56.8865-17.6313,57.3092Z" style="fill:#0f5c3c;"/><path d="m695.1529,311.8732c-.6642,1.738-2.6116,2.6085-4.3496,1.9443s-2.6085-2.6116-1.9443-4.3496c.6643-1.738,2.6116-2.6085,4.3496-1.9442,1.738.6642,2.6085,2.6116,1.9443,4.3495Z" style="fill:#fff8f0;"/><path d="m700.5946,300.1208c.0767-3.6639-3.6525-2.3666-3.6525-2.3666,0,0-1.9134-3.4537-4.2998-.6725-2.3864,2.7813-2.3116,12.9486-2.3116,12.9486l1.6753.6403,1.6753.6402s6.8365-7.5261,6.9133-11.19Z" style="fill:#fff8f0;"/><path d="m696.9422,297.7536s-1.9138-3.4524-4.3005-.6713c1.4549.5561.8938,5.0916,2.3924,5.6643,1.4986.5728,4.1054-3.181,5.5603-2.625.0764-3.6641-3.6522-2.368-3.6522-2.368Z" style="fill:#ff8880;"/><path d="m684.6265,299.2423c-3.4608-1.2052-3.3793,2.7423-3.3793,2.7423,0,0-3.876.7526-1.9684,3.8816,1.9077,3.129,11.6005,6.1999,11.6005,6.1999l1.1267-1.3955,1.1266-1.3955s-5.0452-8.8277-8.5061-10.0328Z" style="fill:#fff8f0;"/><path d="m681.2466,301.9843s-3.8748.7533-1.9674,3.8826c.9784-1.2119,5.1186.7234,6.1264-.5249s-1.7568-4.8875-.7784-6.0993c-3.4611-1.2049-3.3806,2.7416-3.3806,2.7416Z" style="fill:#ff8880;"/><path d="m678.8566,314.1573c-2.2156,2.919,1.5639,4.0614,1.5639,4.0614,0,0-.4821,3.9188,3.0833,3.0714,3.5654-.8473,9.4812-9.1168,9.4812-9.1168l-.979-1.5027-.9791-1.5027s-9.9546,2.0704-12.1703,4.9894Z" style="fill:#fff8f0;"/><path d="m680.42,318.2191s-.481,3.918,3.0846,3.0709c-.8502-1.305,2.2697-4.6445,1.394-5.9887-.8758-1.3442-5.1912.1604-6.0414-1.1445-2.2155,2.9193,1.5628,4.0623,1.5628,4.0623Z" style="fill:#ff8880;"/><path d="m691.2586,324.2538c2.0915,3.0092,4.3459-.2323,4.3459-.2323,0,0,3.5781,1.6695,3.8739-1.9832.2959-3.6528-5.7408-11.8345-5.7408-11.8345l-1.7316.4668-1.7317.4667s-1.1072,10.1072.9843,13.1165Z" style="fill:#fff8f0;"/><path d="m695.6048,324.0221s3.5775,1.6681,3.8738-1.9847c-1.5039.4053-3.7158-3.5939-5.2649-3.1763-1.549.4175-1.4516,4.9866-2.9554,5.3919,2.0919,3.0092,4.3465-.2309,4.3465-.2309Z" style="fill:#ff8880;"/><path d="m704.6934,315.5788c3.5083-1.0592,1.1221-4.205,1.1221-4.205,0,0,2.6934-2.8871-.6891-4.2972-3.3826-1.4101-13.0293,1.8028-13.0293,1.8028l-.0911,1.7912-.0913,1.7911s9.2704,4.1763,12.7787,3.1171Z" style="fill:#fff8f0;"/><path d="m705.8161,311.3737s2.692-2.887-.6905-4.2975c-.0792,1.5555-4.5662,2.4234-4.6478,4.0257-.0816,1.6022,4.294,2.9214,4.2148,4.4769,3.5083-1.0596,1.1235-4.2051,1.1235-4.2051Z" style="fill:#ff8880;"/><path d="m692.006,310.6706s.987-6.4413,2.2736-5.9495c1.2867.4917-2.2736,5.9495-2.2736,5.9495Z" style="fill:#f5b311;"/><path d="m692.006,310.6706s-5.821-2.9292-4.9558-4.001c.8653-1.0717,4.9558,4.001,4.9558,4.001Z" style="fill:#f5b311;"/><path d="m692.006,310.6706s-4.5847,4.6309-5.3366,3.4768,5.3366-3.4768,5.3366-3.4768Z" style="fill:#f5b311;"/><path d="m692.006,310.6706s2.9874,5.7912,1.6575,6.1497-1.6575-6.1497-1.6575-6.1497Z" style="fill:#f5b311;"/><path d="m692.006,310.6706s6.431-1.0517,6.3609.3239c-.07,1.3757-6.3609-.3239-6.3609-.3239Z" style="fill:#f5b311;"/><path d="m678.9411,355.0871c-1.4829,1.1427-3.4095-.6949-2.3357-2.2284,6.1299-8.7536,16.2885-21.5517,22.757-20.6819,6.9159.9298-9.9618,14.8504-20.4213,22.9103Z" style="fill:#0f5c3c;"/><path d="m680.6401,338.8655c.3279,1.4378-1.6224,2.2092-2.3648.9349-4.2374-7.2739-10.0377-18.7643-7.2803-23.1038,2.948-4.6395,7.3331,12.0272,9.6451,22.1689Z" style="fill:#0f5c3c;"/><path d="m663.9902,368.3504c-.0796-.5036-8.1191-50.5988-23.5251-72.119l.9164-.6559c15.5612,21.7369,23.6422,72.093,23.722,72.5988l-1.1133.1761Z" style="fill:#0f5c3c;"/><path d="m637.7763,297.1062c.6642,1.738,2.6115,2.6085,4.3495,1.9443,1.7381-.6642,2.6085-2.6116,1.9443-4.3496s-2.6116-2.6085-4.3495-1.9443c-1.7381.6643-2.6085,2.6116-1.9443,4.3496Z" style="fill:#fff8f0;"/><path d="m632.3346,285.3538c-.0768-3.6639,3.6524-2.3666,3.6524-2.3666,0,0,1.9134-3.4537,4.2998-.6725s2.3117,12.9487,2.3117,12.9487l-1.6753.6402-1.6753.6402s-6.8366-7.5261-6.9133-11.19Z" style="fill:#fff8f0;"/><path d="m635.9869,282.9866s1.9138-3.4524,4.3005-.6713c-1.4549.556-.8938,5.0916-2.3924,5.6643-1.4986.5728-4.1053-3.181-5.5602-2.625-.0765-3.6641,3.6521-2.368,3.6521-2.368Z" style="fill:#ff8880;"/><path d="m648.3026,284.4752c3.4608-1.2051,3.3794,2.7424,3.3794,2.7424,0,0,3.876.7526,1.9683,3.8816-1.9077,3.129-11.6005,6.1998-11.6005,6.1998l-1.1266-1.3954-1.1266-1.3955s5.0451-8.8276,8.506-10.0329Z" style="fill:#fff8f0;"/><path d="m651.6826,287.2173s3.8748.7533,1.9673,3.8826c-.9784-1.2118-5.1186.7234-6.1263-.5249-1.0079-1.2483,1.7567-4.8874.7783-6.0994,3.4611-1.2049,3.3807,2.7417,3.3807,2.7417Z" style="fill:#ff8880;"/><path d="m654.0725,299.3902c2.2157,2.9191-1.5638,4.0615-1.5638,4.0615,0,0,.482,3.9188-3.0834,3.0714-3.5653-.8474-9.4811-9.1169-9.4811-9.1169l.979-1.5026.979-1.5027s9.9547,2.0703,12.1703,4.9893Z" style="fill:#fff8f0;"/><path d="m652.5091,303.4522s.481,3.9179-3.0846,3.0708c.8502-1.305-2.2697-4.6445-1.3939-5.9887s5.1911.1604,6.0414-1.1446c2.2154,2.9195-1.5629,4.0625-1.5629,4.0625Z" style="fill:#ff8880;"/><path d="m641.6705,309.4868c-2.0915,3.0092-4.3459-.2323-4.3459-.2323,0,0-3.5781,1.6695-3.8739-1.9833-.2958-3.6527,5.7408-11.8344,5.7408-11.8344l1.7317.4668,1.7316.4667s1.1072,10.1072-.9843,13.1165Z" style="fill:#fff8f0;"/><path d="m637.3244,309.2551s-3.5776,1.6682-3.8738-1.9847c1.5038.4054,3.7158-3.5939,5.2649-3.1763,1.549.4175,1.4515,4.9866,2.9553,5.3919-2.0919,3.0092-4.3464-.2309-4.3464-.2309Z" style="fill:#ff8880;"/><path d="m628.2357,300.8118c-3.5083-1.0592-1.122-4.205-1.122-4.205,0,0-2.6935-2.8871.6891-4.2972,3.3825-1.4101,13.0292,1.8028,13.0292,1.8028l.0912,1.7912.0912,1.7911s-9.2704,4.1763-12.7787,3.1171Z" style="fill:#fff8f0;"/><path d="m627.113,296.6067s-2.692-2.8869.6905-4.2975c.0793,1.5556,4.5663,2.4235,4.6478,4.0257.0816,1.6022-4.294,2.9214-4.2148,4.4769-3.5083-1.0596-1.1235-4.2051-1.1235-4.2051Z" style="fill:#ff8880;"/><path d="m640.9232,295.9036s-.9871-6.4412-2.2737-5.9495c-1.2867.4917,2.2737,5.9495,2.2737,5.9495Z" style="fill:#f5b311;"/><path d="m640.9232,295.9036s5.821-2.9292,4.9557-4.001c-.8653-1.0717-4.9557,4.001-4.9557,4.001Z" style="fill:#f5b311;"/><path d="m640.9232,295.9036s4.5846,4.6309,5.3365,3.4768-5.3365-3.4768-5.3365-3.4768Z" style="fill:#f5b311;"/><path d="m640.9232,295.9036s-2.9875,5.7912-1.6576,6.1497,1.6576-6.1497,1.6576-6.1497Z" style="fill:#f5b311;"/><path d="m640.9232,295.9036s-6.431-1.0518-6.361.3239c.0701,1.3756,6.361-.3239,6.361-.3239Z" style="fill:#f5b311;"/><path d="m659.8595,355.0871c1.4829,1.1427,3.4095-.6949,2.3356-2.2284-6.1299-8.7536-16.2884-21.5517-22.7571-20.6819-6.9158.9298,9.9619,14.8504,20.4214,22.9103Z" style="fill:#0f5c3c;"/><path d="m658.1604,338.8655c-.3278,1.4378,1.6225,2.2092,2.3649.9349,4.2374-7.2739,10.0377-18.7643,7.2803-23.1038-2.948-4.6395-7.3331,12.0272-9.6452,22.1689Z" style="fill:#0f5c3c;"/><path d="m652.5599,324.2489c1.1774.5649,2.2258-.968,1.271-1.8588-5.4507-5.0851-14.236-12.3463-18.5238-10.8158-4.5842,1.6362,8.9484,8.69,17.2528,12.6746Z" style="fill:#0f5c3c;"/><path d="m677.9465,382.8996l11.218-16.5283h-45.3999l11.2181,16.5283c-28.1225,27.2695-22.1736,77.8244-22.1736,77.8244h67.3109s5.949-50.5549-22.1735-77.8244Z" style="fill:#ee801d;"/><path d="m700.58,449.3239c-.9153-3.5023-1.9525-6.9792-3.2499-10.342-.8399-2.0534-1.6706-4.1757-3.1558-5.8093-3.4061-3.7004-5.6984,8.1892-6.1864,10.269,0,.0001-.5339,2.7151-.5339,2.7151-.0667.2314-.2659.4636-.5039.5546-.5406.2424-1.2132-.1376-1.2619-.7306l-.0098-.0925-.0164-.168c-.2258-2.2199-.5265-4.4858-1.0213-6.6511-.5186-2.3883-2.2543-8.9385-5.5749-5.9426-2.2673,2.7616-2.7984,6.5807-3.4687,10.0054-.1852,1.1089-.3405,2.2475-.4801,3.3652-.0723.531-.8697.6494-1.0876.1519-.0673-.1636-.0668-.2492-.0977-.3655-.8639-3.6077-3.0708-13.668-7.467-13.9749-4.347.3366-6.4014,10.9319-7.2606,14.4853-.3486.7909-1.6069.614-1.7242-.2381-.3594-2.8943-.823-5.8182-1.6271-8.6137-.6963-2.6315-2.9427-8.0353-5.6614-3.7546-1.9079,3.4306-2.376,7.658-2.8557,11.5397.0001.0001-.0174.1677-.0174.1677l-.0104.0935c-.0935,1.0197-1.6002,1.1695-1.89.1864-.7149-3.4357-1.9781-11.5389-4.7555-13.5806-3.5682-1.6444-7.5969,14.0428-8.3134,16.7295.0001.0002-.11-.024-.11-.024.3613-1.7781.7761-3.5442,1.2362-5.3007,3.8336-14.7979,8.73-17.8672,12.481-.7735.1572.6451.4046,1.9586.538,2.607-.0054-.03-.0576-.09-.0988-.1053-.0983-.042-.1973.0378-.2138.1304,0,0,.0082-.0753.0082-.0753l.017-.1703.1491-1.3615c.5178-3.4988,1.3423-11.3449,5.1342-12.7231,1.0783-.3781,2.3396.1662,3.0312.9837,1.304,1.4914,1.8596,3.3039,2.406,5.124.7912,2.874,1.2288,5.7953,1.5614,8.7424-.021-.0946-.155-.1209-.1992-.019-.0193.0747.0306-.127.0486-.2158.8837-3.7834,1.8799-7.5835,3.802-11.0032,1.4521-2.6802,4.2493-4.9417,6.9061-2.1924,1.906,2.0387,2.8096,4.7528,3.688,7.3281.6174,1.9499,1.1123,3.9384,1.5318,5.9369.0486.2587.0697.3759.2127.4088.1396.0328.2793-.0474.2941-.1847.3274-2.9337.768-5.8544,1.5437-8.7113.6793-2.1402,1.2881-4.8195,3.5021-5.9027,1.5237-.6339,3.0738.6437,3.759,1.8483,1.8944,3.246,2.3987,6.9575,2.9183,10.5894.0346.2045.1598,1.4384.1849,1.6054.0016-.0251-.0386-.073-.0643-.0798-.0434-.0267-.1146.029-.1243.0653,0,0,.2465-1.2781.2465-1.2781,1.6382-8.4486,5.6458-21.1399,11.1456-5.7972,1.2063,3.4331,2.092,6.962,2.8059,10.5242l-.1101.0242h0Z" style="fill:#f5b311;"/><path d="m685.1294,372.3165c-12.4285.7712-24.9013.7774-37.3297.0001,12.4284-.7774,24.9012-.7712,37.3297-.0001h0Z" style="fill:#f5b311;"/></svg>