<svg width="33" height="32" viewBox="0 0 33 32" fill="none" xmlns="http://www.w3.org/2000/svg">
<path d="M29.8725 12.5808C29.4142 13.1939 28.848 13.9348 28.2549 14.6501L30.5196 28.1134L23.2132 24.92L16.5 29.263L9.78676 24.92L2.48039 28.1134L5.23039 11.6611L11 9.15745L16.5 12.6829L18.1985 11.5844C17.848 11.0735 17.5515 10.5114 17.3088 9.94941L16.5 10.4604L11.1618 7.03705L3.47794 10.4093L0 31.2046L9.59804 27.0148L16.5 31.46L23.402 27.0148L33 31.2046L29.8725 12.5808Z" fill="white"/>
<path d="M19.5583 11.2368C20.7546 12.8458 22.9079 15.5447 23.8649 16.7384C24.1042 17.0498 24.5827 17.0498 24.8486 16.7384C25.8588 15.5447 27.7994 12.9496 29.0755 11.2368C30.0591 9.93929 30.6705 8.40819 30.8034 6.79923C30.83 6.64353 30.83 6.48782 30.83 6.35807C30.83 2.88064 27.9589 0.0519934 24.3966 9.15527e-05H24.3169H24.2371C20.7014 0.0260425 17.8037 2.88064 17.8037 6.35807C17.8037 6.48782 17.8037 6.64353 17.8303 6.79923C17.9632 8.40819 18.6012 9.93929 19.5583 11.2368ZM24.3169 2.67304C26.6031 2.67304 28.4109 4.4377 28.4109 6.66948C28.4109 8.90126 26.6031 10.6659 24.3169 10.6659C22.0306 10.6659 20.2229 8.90126 20.2229 6.66948C20.2229 4.4377 22.0306 2.67304 24.3169 2.67304Z" fill="white"/>
</svg>
