<svg width="29" height="28" viewBox="0 0 29 28" fill="none" xmlns="http://www.w3.org/2000/svg">
<path d="M23.5625 0C25.0603 0 26.341 0.513455 27.4046 1.54036C28.4682 2.56727 29 3.80382 29 5.25V22.75C29 24.1962 28.4682 25.4327 27.4046 26.4596C26.341 27.4865 25.0603 28 23.5625 28H20.013V17.1536H23.7702L24.3366 12.9245H20.013V10.2266C20.013 9.54601 20.1609 9.03559 20.4567 8.69531C20.7525 8.35504 21.3283 8.1849 22.1842 8.1849L24.4876 8.16667V4.39323C23.6947 4.28385 22.5744 4.22917 21.127 4.22917C19.4151 4.22917 18.0463 4.71528 17.0205 5.6875C15.9947 6.65972 15.4818 8.03299 15.4818 9.80729V12.9245H11.7057V17.1536H15.4818V28H5.4375C3.93967 28 2.65896 27.4865 1.59538 26.4596C0.531793 25.4327 0 24.1962 0 22.75V5.25C0 3.80382 0.531793 2.56727 1.59538 1.54036C2.65896 0.513455 3.93967 0 5.4375 0H23.5625Z" fill="white"/>
</svg>
