<svg width="35" height="35" viewBox="0 0 35 35" fill="none" xmlns="http://www.w3.org/2000/svg">
<path d="M17.4996 16.1984L31.4777 7.21875C30.9158 6.79723 30.2333 6.5672 29.5309 6.5625H5.46836C4.76588 6.5672 4.08346 6.79723 3.52148 7.21875L17.4996 16.1984Z" fill="white"/>
<path d="M18.0906 18.4187L17.9047 18.5062H17.8172C17.7165 18.5512 17.6095 18.5807 17.5 18.5937C17.4092 18.6052 17.3174 18.6052 17.2266 18.5937H17.1391L16.9531 18.5062L2.29687 9.03436C2.22685 9.29855 2.19011 9.57044 2.1875 9.84374V25.1562C2.1875 26.0265 2.5332 26.8611 3.14856 27.4764C3.76391 28.0918 4.59851 28.4375 5.46875 28.4375H29.5313C30.4015 28.4375 31.2361 28.0918 31.8514 27.4764C32.4668 26.8611 32.8125 26.0265 32.8125 25.1562V9.84374C32.8099 9.57044 32.7732 9.29855 32.7031 9.03436L18.0906 18.4187Z" fill="white"/>
</svg>
