<?xml version="1.0" encoding="UTF-8"?><svg xmlns="http://www.w3.org/2000/svg" xmlns:xlink="http://www.w3.org/1999/xlink" viewBox="0 0 1280 1080"><defs><clipPath id="clippath"><rect width="1280" height="1080" style="fill:none;"/></clipPath></defs><g style="isolation:isolate;"><g id="Layer_1"><g style="clip-path:url(#clippath);"><path d="m241.9484,147.4905c-1.4077,8.4958,2.6888,17.2928,10.7485,21.4686,8.0596,4.1758,17.6088,2.4489,23.7374-3.6009,7.645,3.964,17.2773,2.7863,23.7393-3.5884,6.462-6.3747,7.7704-15.9902,3.9106-23.6883,6.1325-6.0459,7.9891-15.5707,3.9231-23.6863-4.0659-8.1155-12.8064-12.3313-21.3205-11.0392-3.855-7.7006-12.3399-12.4096-21.3148-11.0506-8.9747,1.3591-15.6851,8.3691-17.0872,16.8657-8.515,1.2865-15.6155,7.9011-17.0964,16.8566-1.4808,8.9556,3.1125,17.5037,10.76,21.4628Z" style="fill:#ffba4a;"/><path d="m1158.0569,130.0977c-.5752-8.5923-6.5774-16.2176-15.379-18.4369-8.8016-2.2192-17.7015,1.6485-22.282,8.9409-8.3495-2.1082-17.4564,1.2439-22.287,8.929-4.8304,7.6851-3.9022,17.3447,1.6179,23.9543-4.5852,7.2895-4.2114,16.9864,1.6049,23.9553,5.8163,6.9689,15.2899,9.0712,23.2819,5.8638,5.5159,6.6132,14.8535,9.2542,23.2788,5.8761,8.425-3.378,13.3521-11.7383,12.7712-20.3303,7.9941-3.2023,13.3914-11.2669,12.7821-20.3236-.6093-9.0566-7.038-16.3259-15.3888-18.4286Z" style="fill:#ffba4a;"/><path d="m1012.9641,148.1072c-1.7386,5.8666.3772,12.429,5.6932,16.0811,5.3159,3.6521,12.2004,3.2731,17.053-.4543,5.0422,3.4664,11.9371,3.482,17.0532-.4453,5.116-3.9271,6.8831-10.5919,4.8376-16.3587,4.8549-3.7242,7.0004-10.2769,4.8462-16.3561-2.1541-6.0792-7.9465-9.8193-14.0631-9.656-2.0417-5.7681-7.6107-9.8335-14.0581-9.6635-6.4473.17-11.7943,4.5234-13.5291,10.3911-6.1167.1593-11.704,4.1995-13.5347,10.3838-1.8306,6.1843.6573,12.6148,5.7017,16.0779Z" style="fill:#ffba4a;"/><path d="m792.8707,869.9982c-.9657-14.4243-11.0417-27.225-25.8173-30.9506-14.7756-3.7255-29.7163,2.7674-37.4055,15.0094-14.0167-3.5391-29.3046,2.0882-37.4138,14.9893-8.1091,12.9013-6.5509,29.1171,2.7158,40.213-7.6972,12.2371-7.0698,28.5156,2.6943,40.2146,9.7639,11.699,25.6675,15.2281,39.084,9.8438,9.2595,11.1018,24.9352,15.5353,39.0788,9.8644,14.1436-5.6707,22.4146-19.7055,21.4396-34.1292,13.42-5.3758,22.4805-18.9142,21.4577-34.118-1.0226-15.2037-11.8148-27.4067-25.8337-30.9368Z" style="fill:#ffba4a;"/><path d="m900.9376,918.681c-2.7602-8.1572-10.5176-13.9875-19.594-13.8747-9.0764.1129-16.6863,6.1343-19.2427,14.3577-8.611.1043-16.5531,5.6804-19.2505,14.3475-2.6974,8.6671.6778,17.7653,7.7087,22.7377-2.5618,8.2218.2871,17.4983,7.6965,22.7419,7.4094,5.2437,17.1053,4.8453,24.007-.3049,7.0277,4.9769,16.7305,5.134,24.0071-.2923,7.2767-5.4263,9.894-14.7708,7.1285-22.9262,6.9052-5.1459,10.0529-14.3252,7.1407-22.9225-2.9121-8.5973-10.9905-13.9741-19.6014-13.8643Z" style="fill:#ffba4a;"/><path d="m182.9945,526.9129c4.5701,5.4792,12.3068,7.6674,19.2873,4.8685,6.9805-2.7988,11.0626-9.7256,10.5815-16.8444,6.6234-2.6532,11.0952-9.335,10.5904-16.8388-.5047-7.5038-5.8311-13.5266-12.7501-15.2688-.4766-7.1191-5.4496-13.4368-12.7421-15.2756-7.2925-1.8387-14.6664,1.3658-18.4614,7.4079-6.9179-1.7468-14.4632,1.0306-18.4655,7.3979-4.0022,6.3674-3.2332,14.3707,1.3404,19.847-3.799,6.0396-3.4893,14.0739,1.3298,19.8478,4.8189,5.774,12.6682,7.5158,19.2898,4.8584Z" style="fill:#ffba4a;"/><path d="m246.9655,275.4774c4.4604,5.3479,12.0117,7.4835,18.8248,4.7518,6.8132-2.7317,10.7974-9.4925,10.3278-16.4406,6.4646-2.5896,10.8292-9.1113,10.3365-16.4351-.4926-7.3239-5.6913-13.2023-12.4445-14.9028-.4652-6.9484-5.319-13.1147-12.4366-14.9094-7.1176-1.7946-14.3148,1.3331-18.0188,7.2303-6.752-1.7049-14.1165,1.0059-18.0228,7.2206-3.9063,6.2147-3.1557,14.0261,1.3082,19.3712-3.7079,5.8948-3.4056,13.7364,1.2979,19.3719s12.3645,7.3356,18.8274,4.7419Z" style="fill:#ff9600;"/><path d="m269.1306,762.7888c-3.0886-8.4373-11.3296-14.3191-20.7936-13.9681-9.464.3511-17.2466,6.8271-19.7017,15.47-8.9788.33-17.1193,6.3502-19.7101,15.4595-2.5907,9.1093,1.1635,18.5122,8.6247,23.5178-2.4606,8.6414.7491,18.2438,8.6121,23.5226,7.8629,5.2789,17.9657,4.6143,25.032-.935,7.4579,5.0105,17.5822,4.925,25.0325-.9218,7.4503-5.8467,9.9401-15.6605,6.8461-24.0958,7.0699-5.5447,10.1172-15.1998,6.8588-24.0922-3.2583-8.8923-11.8224-14.2929-20.8009-13.957Z" style="fill:#ff9600;"/><path d="m1036.4464,767.5039c-7.3394.1254-13.4706,5.0233-15.507,11.6829-6.963.1166-13.3646,4.6557-15.5133,11.6746-2.1487,7.0189.6148,14.3636,6.3192,18.3582-2.0407,6.6583.2979,14.1491,6.3093,18.3616,6.0114,4.2125,13.8506,3.854,19.4125-.3367,5.7017,3.9982,13.5486,4.0889,19.4126-.3265,5.864-4.4153,7.9453-11.9817,5.6785-18.5663,5.5646-4.1872,8.0756-11.622,5.6882-18.5634-2.3872-6.9413-8.9399-11.259-15.9028-11.1379-2.2627-6.5861-8.5579-11.2717-15.8971-11.1464Z" style="fill:#ff9600;"/><path d="m388.0042,773.6695c-1.7885-5.1531-6.7307-8.8078-12.479-8.6916s-10.5388,3.9676-12.1174,9.1888c-5.4536.1085-10.4565,3.6794-12.1224,9.1823-1.6658,5.5029.5168,11.249,4.9946,14.3639-1.582,5.2202.2681,11.0818,4.9869,14.3666s10.8582,2.9847,15.2043-.3113c4.4758,3.1177,10.6222,3.1695,15.2045-.3033,4.5822-3.4728,6.194-9.4044,4.4022-14.5563,4.3483-3.2933,6.2969-9.1229,4.41-14.554-1.8868-5.4311-7.03-8.7969-12.4835-8.6849Z" style="fill:#ff9600;"/><path d="m704.5182,204.3816c4.7034,5.6356,12.3645,7.3356,18.8274,4.7419,4.4604,5.348,12.0117,7.4836,18.8248,4.7518,6.8132-2.7317,10.7974-9.4924,10.3278-16.4406,6.4646-2.5895,10.8292-9.1112,10.3365-16.4351-.4926-7.3239-5.6913-13.2022-12.4445-14.9027-.4652-6.9484-5.319-13.1147-12.4366-14.9094-7.1176-1.7946-14.3148,1.3331-18.0188,7.2302-6.752-1.7048-14.1165,1.0059-18.0228,7.2206s-3.1557,14.0261,1.3082,19.3712c-3.7079,5.8948-3.4056,13.7364,1.2979,19.372Z" style="fill:#ff9600;"/><g style="mix-blend-mode:multiply; opacity:.15;"><path d="m1080.2394,208.5726c-20.213-8.2648-44.4871.2356-65.5432.1047-32.4391-.2016-64.5601-7.1688-95.4561-16.6356-51.2609-15.7067-100.69-38.0862-153.419-47.7834-65.9807-12.1343-135.6365-3.4312-196.6032,24.5645-50.6115,23.2405-98.3065,60.1391-153.9984,60.3938-35.803.1638-69.5558-15.1234-103.6372-26.0936-34.0814-10.9702-72.8727-17.3621-104.4724-.5292-30.734,16.3716-47.6999,52.7187-46.5616,87.5227,1.1382,34.804,18.1797,67.6592,41.4197,93.5922,17.072,19.0501,37.8048,35.3417,50.2758,57.6762,18.8292,33.7215,15.5161,75.9028,2.8259,112.3807s-33.8202,69.3379-50.3645,104.2372c-34.8176,73.4455-47.5294,164.6212-4.631,233.6591,4.6927,7.5521,10.7552,15.2602,19.4343,17.1912,10.0129,2.2278,19.774-3.9197,28.2419-9.709,28.3545-19.3855,59.9534-38.7614,94.2266-36.4968,45.8829,3.0318,80.8849,43.525,125.5188,54.5821,47.5765,11.7861,96.4131-11.6818,137.7361-38.0416,41.3231-26.3598,82.7192-57.2854,131.4433-62.6141,37.8223-4.1364,75.605,7.9065,110.2562,23.6207,34.6511,15.7143,67.6565,35.2816,103.6277,47.6796,35.9712,12.3979,76.4326,17.1124,111.6166,2.6304,35.1838-14.4819,62.4722-52.063,56.0127-89.5585-6.9019-40.0646-47.1542-66.8268-58.5343-105.8563-13.4725-46.2058,16.5607-92.5405,42.7762-132.9044,37.16-57.2153,70.287-120.4037,72.6895-188.5851,1.6149-45.8277-13.7434-93.9539-45.0435-127.9743-13.1428-14.285-31.6592-29.6205-49.837-37.0532Zm-371.3272-35.9342c3.9063-6.2147,11.2708-8.9255,18.0228-7.2206,3.704-5.8972,10.9012-9.0248,18.0188-7.2302,7.1176,1.7947,11.9714,7.961,12.4366,14.9094,6.7531,1.7005,11.9518,7.5789,12.4445,14.9027.4927,7.3239-3.8719,13.8456-10.3365,16.4351.4696,6.9481-3.5146,13.7089-10.3278,16.4406-6.8132,2.7318-14.3644.5961-18.8248-4.7518-6.4629,2.5938-14.124.8937-18.8274-4.7419-4.7034-5.6356-5.0057-13.4772-1.2979-19.372-4.4639-5.345-5.2145-13.1564-1.3082-19.3712Zm-473.7741,105.097c-4.7034-5.6356-5.0057-13.4772-1.2979-19.3719-4.4639-5.3451-5.2145-13.1565-1.3082-19.3712,3.9063-6.2147,11.2708-8.9255,18.0228-7.2206,3.704-5.8972,10.9012-9.0249,18.0188-7.2303,7.1176,1.7947,11.9714,7.961,12.4366,14.9094,6.7531,1.7005,11.9518,7.5789,12.4445,14.9028.4927,7.3239-3.8719,13.8455-10.3365,16.4351.4696,6.9481-3.5146,13.7089-10.3278,16.4406-6.8132,2.7317-14.3644.5961-18.8248-4.7518-6.4629,2.5937-14.124.8936-18.8274-4.7419Zm54.9346,530.1026c3.094,8.4352.6042,18.249-6.8461,24.0958-7.4503,5.8468-17.5745,5.9323-25.0325.9218-7.0663,5.5493-17.1692,6.2139-25.032.935-7.8629-5.2789-11.0727-14.8813-8.6121-23.5226-7.4612-5.0056-11.2154-14.4085-8.6247-23.5178,2.5908-9.1093,10.7313-15.1295,19.7101-15.4595,2.455-8.6429,10.2377-15.1189,19.7017-15.47,9.464-.351,17.705,5.5309,20.7936,13.9681,8.9785-.3359,17.5426,5.0647,20.8009,13.957,3.2584,8.8924.2111,18.5475-6.8588,24.0922Zm113.0051-3.9296c1.7917,5.152.18,11.0836-4.4022,14.5563-4.5823,3.4728-10.7286,3.4211-15.2045.3033-4.3461,3.2961-10.4855,3.5961-15.2043.3113s-6.5689-9.1464-4.9869-14.3666c-4.4778-3.1149-6.6603-8.861-4.9946-14.3639,1.6659-5.5029,6.6689-9.0739,12.1224-9.1823,1.5787-5.2212,6.3691-9.0726,12.1174-9.1888s10.6905,3.5385,12.479,8.6916c5.4535-.112,10.5967,3.2538,12.4835,8.6849,1.8869,5.4311-.0616,11.2607-4.41,14.554Zm656.2657-18.2582c6.9629-.1212,13.5156,4.1965,15.9028,11.1379,2.3873,6.9414-.1237,14.3762-5.6882,18.5634,2.2668,6.5847.1855,14.151-5.6785,18.5663-5.864,4.4154-13.7109,4.3248-19.4126.3265-5.5619,4.1907-13.4011,4.5493-19.4125.3367-6.0114-4.2125-8.35-11.7034-6.3093-18.3616-5.7043-3.9946-8.4679-11.3393-6.3192-18.3582,2.1487-7.0189,8.5504-11.5579,15.5133-11.6746,2.0364-6.6595,8.1676-11.5574,15.507-11.6829,7.3392-.1253,13.6344,4.5603,15.8971,11.1464Zm-12.3401-266.4455c-33.7708,36.7426-83.0531,65.6566-92.0095,114.751-5.4086,29.6479,5.8124,59.4442,10.6807,89.1857,4.8682,29.7414.4651,65.643-25.3914,81.1251-16.0928,9.6359-36.7021,8.5524-54.434,2.4363-17.732-6.116-33.4988-16.7121-49.9119-25.7916-65.2529-36.0974-149.1347-47.249-213.658-9.863-26.8854,15.5779-49.108,38.6186-76.9808,52.3517s-66.064,15.1899-85.903-8.7247c-19.1437-23.0765-16.2133-63.2053-42.9052-76.8638-33.0619-16.9181-73.1243,26.6423-107.3884,12.3147-12.0308-5.0307-20.3275-16.4873-25.1328-28.6099-12.5287-31.6069-4.6548-67.7367,8.7929-98.9637,13.4477-31.2271,32.2814-60.1622,42.7163-92.5209,10.4348-32.3586,11.0706-70.6462-9.8148-97.4747-13.2014-16.9578-33.0762-27.0734-50.0862-40.2073s-32.4091-32.5032-29.8937-53.8461c2.6138-22.1768,24.4218-38.0775,46.4711-41.6087,22.0492-3.5312,44.3778,2.4163,66.0083,7.9623,24.5242,6.288,49.1649,12.1219,73.905,17.498,14.3341,3.1148,29.2828,6.0721,43.5292,2.5778,17.7599-4.3561,31.4854-17.9132,45.8498-29.2295,74.7213-58.8656,180.2161-62.3073,272.7162-40.1225,42.0323,10.0809,82.8976,24.8214,125.2468,33.4749,14.6121,2.9858,29.4016,5.1964,44.2846,6.2365,25.4387,1.7778,50.7808.0655,75.1532-7.601,20.3323-6.3958,39.0725,10.2349,49.1312,26.9335,10.1785,16.8972,13.7128,37.036,14.2656,56.7542,1.5114,53.9091-18.7465,108.1191-55.2413,147.8256Z"/></g><path d="m1073.2394,201.5726c-20.213-8.2648-44.4871.2356-65.5432.1047-32.4391-.2016-64.5601-7.1688-95.4561-16.6356-51.2609-15.7067-100.69-38.0862-153.419-47.7834-65.9807-12.1343-135.6365-3.4312-196.6032,24.5645-50.6115,23.2405-98.3065,60.1391-153.9984,60.3938-35.803.1638-69.5558-15.1234-103.6372-26.0936-34.0814-10.9702-72.8727-17.3621-104.4724-.5292-30.734,16.3716-47.6999,52.7187-46.5616,87.5227,1.1382,34.804,18.1797,67.6592,41.4197,93.5922,17.072,19.0501,37.8048,35.3417,50.2758,57.6762,18.8292,33.7215,15.5161,75.9028,2.8259,112.3807s-33.8202,69.3379-50.3645,104.2372c-34.8176,73.4455-47.5294,164.6212-4.631,233.6591,4.6927,7.5521,10.7552,15.2602,19.4343,17.1912,10.0129,2.2278,19.774-3.9197,28.2419-9.709,28.3545-19.3855,59.9534-38.7614,94.2266-36.4968,45.8829,3.0318,80.8849,43.525,125.5188,54.5821,47.5765,11.7861,96.4131-11.6818,137.7361-38.0416,41.3231-26.3598,82.7192-57.2854,131.4433-62.6141,37.8223-4.1364,75.605,7.9065,110.2562,23.6207,34.6511,15.7143,67.6565,35.2816,103.6277,47.6796,35.9712,12.3979,76.4326,17.1124,111.6166,2.6304,35.1838-14.4819,62.4722-52.063,56.0127-89.5585-6.9019-40.0646-47.1542-66.8268-58.5343-105.8563-13.4725-46.2058,16.5607-92.5405,42.7762-132.9044,37.16-57.2153,70.287-120.4037,72.6895-188.5851,1.6149-45.8277-13.7434-93.9539-45.0435-127.9743-13.1428-14.285-31.6592-29.6205-49.837-37.0532Zm-371.3272-35.9342c3.9063-6.2147,11.2708-8.9255,18.0228-7.2206,3.704-5.8972,10.9012-9.0248,18.0188-7.2302,7.1176,1.7947,11.9714,7.961,12.4366,14.9094,6.7531,1.7005,11.9518,7.5789,12.4445,14.9027.4927,7.3239-3.8719,13.8456-10.3365,16.4351.4696,6.9481-3.5146,13.7089-10.3278,16.4406-6.8132,2.7318-14.3644.5961-18.8248-4.7518-6.4629,2.5938-14.124.8937-18.8274-4.7419-4.7034-5.6356-5.0057-13.4772-1.2979-19.372-4.4639-5.345-5.2145-13.1564-1.3082-19.3712Zm-473.7741,105.097c-4.7034-5.6356-5.0057-13.4772-1.2979-19.3719-4.4639-5.3451-5.2145-13.1565-1.3082-19.3712,3.9063-6.2147,11.2708-8.9255,18.0228-7.2206,3.704-5.8972,10.9012-9.0249,18.0188-7.2303,7.1176,1.7947,11.9714,7.961,12.4366,14.9094,6.7531,1.7005,11.9518,7.5789,12.4445,14.9028.4927,7.3239-3.8719,13.8455-10.3365,16.4351.4696,6.9481-3.5146,13.7089-10.3278,16.4406-6.8132,2.7317-14.3644.5961-18.8248-4.7518-6.4629,2.5937-14.124.8936-18.8274-4.7419Zm54.9346,530.1026c3.094,8.4352.6042,18.249-6.8461,24.0958-7.4503,5.8468-17.5745,5.9323-25.0325.9218-7.0663,5.5493-17.1692,6.2139-25.032.935-7.8629-5.2789-11.0727-14.8813-8.6121-23.5226-7.4612-5.0056-11.2154-14.4085-8.6247-23.5178,2.5908-9.1093,10.7313-15.1295,19.7101-15.4595,2.455-8.6429,10.2377-15.1189,19.7017-15.47,9.464-.351,17.705,5.5309,20.7936,13.9681,8.9785-.3359,17.5426,5.0647,20.8009,13.957,3.2584,8.8924.2111,18.5475-6.8588,24.0922Zm113.0051-3.9296c1.7917,5.152.18,11.0836-4.4022,14.5563-4.5823,3.4728-10.7286,3.4211-15.2045.3033-4.3461,3.2961-10.4855,3.5961-15.2043.3113s-6.5689-9.1464-4.9869-14.3666c-4.4778-3.1149-6.6603-8.861-4.9946-14.3639,1.6659-5.5029,6.6689-9.0739,12.1224-9.1823,1.5787-5.2212,6.3691-9.0726,12.1174-9.1888s10.6905,3.5385,12.479,8.6916c5.4535-.112,10.5967,3.2538,12.4835,8.6849,1.8869,5.4311-.0616,11.2607-4.41,14.554Zm656.2657-18.2582c6.9629-.1212,13.5156,4.1965,15.9028,11.1379,2.3873,6.9414-.1237,14.3762-5.6882,18.5634,2.2668,6.5847.1855,14.151-5.6785,18.5663-5.864,4.4154-13.7109,4.3248-19.4126.3265-5.5619,4.1907-13.4011,4.5493-19.4125.3367-6.0114-4.2125-8.35-11.7034-6.3093-18.3616-5.7043-3.9946-8.4679-11.3393-6.3192-18.3582,2.1487-7.0189,8.5504-11.5579,15.5133-11.6746,2.0364-6.6595,8.1676-11.5574,15.507-11.6829,7.3392-.1253,13.6344,4.5603,15.8971,11.1464Zm-12.3401-266.4455c-33.7708,36.7426-83.0531,65.6566-92.0095,114.751-5.4086,29.6479,5.8124,59.4442,10.6807,89.1857,4.8682,29.7414.4651,65.643-25.3914,81.1251-16.0928,9.6359-36.7021,8.5524-54.434,2.4363-17.732-6.116-33.4988-16.7121-49.9119-25.7916-65.2529-36.0974-149.1347-47.249-213.658-9.863-26.8854,15.5779-49.108,38.6186-76.9808,52.3517s-66.064,15.1899-85.903-8.7247c-19.1437-23.0765-16.2133-63.2053-42.9052-76.8638-33.0619-16.9181-73.1243,26.6423-107.3884,12.3147-12.0308-5.0307-20.3275-16.4873-25.1328-28.6099-12.5287-31.6069-4.6548-67.7367,8.7929-98.9637,13.4477-31.2271,32.2814-60.1622,42.7163-92.5209,10.4348-32.3586,11.0706-70.6462-9.8148-97.4747-13.2014-16.9578-33.0762-27.0734-50.0862-40.2073s-32.4091-32.5032-29.8937-53.8461c2.6138-22.1768,24.4218-38.0775,46.4711-41.6087,22.0492-3.5312,44.3778,2.4163,66.0083,7.9623,24.5242,6.288,49.1649,12.1219,73.905,17.498,14.3341,3.1148,29.2828,6.0721,43.5292,2.5778,17.7599-4.3561,31.4854-17.9132,45.8498-29.2295,74.7213-58.8656,180.2161-62.3073,272.7162-40.1225,42.0323,10.0809,82.8976,24.8214,125.2468,33.4749,14.6121,2.9858,29.4016,5.1964,44.2846,6.2365,25.4387,1.7778,50.7808.0655,75.1532-7.601,20.3323-6.3958,39.0725,10.2349,49.1312,26.9335,10.1785,16.8972,13.7128,37.036,14.2656,56.7542,1.5114,53.9091-18.7465,108.1191-55.2413,147.8256Z" style="fill:#ffba4a;"/><g style="mix-blend-mode:multiply; opacity:.15;"><path d="m1246.3938,211.8973c-4.377-25.3284-12.0417-50.2112-23.9833-73.0276-8.1836-15.6361-22.5531-45.5869-42.3802-47.1273-12.0764-.9382-25.7434,3.3505-37.9097,4.1798-13.9146.9485-27.8785,1.0611-41.813.5319-27.8994-1.0594-55.6378-4.73-83.1132-9.5708-55.9349-9.8551-110.8565-24.6763-166.772-34.6297-60.9501-10.8497-124.2105-15.7828-184.7185.3488-42.6973,11.3832-82.2762,32.7396-125.1437,43.4636-61.4524,15.3732-126.2746,8.1003-188.4207-4.171-41.032-8.1022-82.0509-18.3872-123.875-18.5027-41.8242-.1155-85.5871,11.2629-115.2615,40.7366-46.0472,45.7358-45.8438,120.5779-29.7687,183.4564,16.075,62.8785,44.9153,123.6636,45.7253,188.5594,1.0178,81.5504-42.3108,157.1492-53.052,237.9956-9.6309,72.4893,7.2921,145.5856,24.1021,216.7535,6.2603,26.5045,13.1485,54.2375,31.4494,74.4057,31.4788,34.6904,85.9491,35.6291,131.4554,24.5156,62.0382-15.1508,119.658-47.5499,183.0361-55.3919,76.6259-9.4813,152.2917,17.7786,227.7527,34.1199,100.6159,21.7886,205.374,24.2831,306.913,7.3084,29.4395-4.9215,59.2028-11.692,84.7849-27.0694,53.4791-32.1464,79.4447-96.3746,87.5736-158.24,8.1292-61.8655,2.048-124.8776,9.2229-186.861,11.423-98.6796,55.7803-190.3914,77.689-287.2839,11.3859-50.3546,15.3352-103.4172,6.5073-154.5Zm-232.1315-72.868c1.8306-6.1843,7.418-10.2245,13.5347-10.3838,1.7348-5.8677,7.0818-10.221,13.5291-10.3911,6.4474-.17,12.0164,3.8954,14.0581,9.6635,6.1166-.1633,11.9091,3.5768,14.0631,9.656,2.1542,6.0792.0087,12.6319-4.8462,16.3561,2.0454,5.7668.2783,12.4316-4.8376,16.3587-5.1161,3.9272-12.011,3.9116-17.0532.4453-4.8525,3.7274-11.7371,4.1064-17.053.4543-5.316-3.6521-7.4318-10.2145-5.6932-16.0811-5.0444-3.4631-7.5323-9.8936-5.7017-16.0779Zm-776.074-6.0015c1.4809-8.9555,8.5814-15.5701,17.0964-16.8566,1.4022-8.4966,8.1125-15.5067,17.0872-16.8657,8.9749-1.359,17.4598,3.35,21.3148,11.0506,8.5141-1.2921,17.2546,2.9237,21.3205,11.0392,4.066,8.1156,2.2094,17.6404-3.9231,23.6863,3.8599,7.6981,2.5514,17.3136-3.9106,23.6883-6.462,6.3748-16.0943,7.5524-23.7393,3.5884-6.1286,6.0497-15.6778,7.7767-23.7374,3.6009-8.0597-4.1758-12.1562-12.9728-10.7485-21.4686-7.6475-3.9591-12.2408-12.5072-10.76-21.4628Zm-67.4836,396.0267c-4.819-5.774-5.1287-13.8082-1.3298-19.8478-4.5735-5.4763-5.3426-13.4796-1.3404-19.847,4.0023-6.3674,11.5476-9.1447,18.4655-7.3979,3.795-6.0421,11.1689-9.2466,18.4614-7.4079,7.2924,1.8388,12.2654,8.1566,12.7421,15.2756,6.919,1.7422,12.2454,7.765,12.7501,15.2688.5048,7.5038-3.967,14.1856-10.5904,16.8388.4811,7.1187-3.601,14.0456-10.5815,16.8444-6.9805,2.7988-14.7172.6107-19.2873-4.8685-6.6216,2.6574-14.4709.9156-19.2898-4.8584Zm633.5419,412.9984c.9749,14.4236-7.296,28.4584-21.4396,34.1292-14.1436,5.6709-29.8193,1.2374-39.0788-9.8644-13.4165,5.3843-29.3202,1.8552-39.084-9.8438-9.764-11.699-10.3915-27.9775-2.6943-40.2146-9.2667-11.0959-10.825-27.3117-2.7158-40.213,8.1092-12.9011,23.3972-18.5284,37.4138-14.9893,7.6892-12.242,22.6299-18.7349,37.4055-15.0094,14.7756,3.7256,24.8516,16.5264,25.8173,30.9506,14.0189,3.53,24.811,15.7331,25.8337,30.9368,1.0228,15.2038-8.0377,28.7422-21.4577,34.118Zm116.1516,20.4148c2.7654,8.1555.1481,17.4999-7.1285,22.9262-7.2766,5.4263-16.9794,5.2692-24.0071.2923-6.9017,5.1503-16.5977,5.5486-24.007.3049-7.4094-5.2437-10.2582-14.5201-7.6965-22.7419-7.0309-4.9724-10.4061-14.0706-7.7087-22.7377,2.6974-8.6671,10.6396-14.2432,19.2505-14.3475,2.5564-8.2234,10.1663-14.2448,19.2427-14.3577,9.0764-.1129,16.8338,5.7175,19.594,13.8747,8.6109-.1099,16.6893,5.267,19.6014,13.8643,2.9122,8.5973-.2356,17.7766-7.1407,22.9225Zm254.7216-588.8676c-2.4025,68.1814-35.5294,131.3698-72.6895,188.5851-26.2156,40.3639-56.2488,86.6985-42.7762,132.9044,11.3801,39.0295,51.6324,65.7917,58.5343,105.8563,6.4595,37.4955-20.8289,75.0767-56.0127,89.5585-35.1841,14.4819-75.6454,9.7675-111.6166-2.6304-35.9713-12.398-68.9766-31.9653-103.6277-47.6796-34.6511-15.7142-72.4338-27.7571-110.2562-23.6207-48.7241,5.3287-90.1202,36.2543-131.4433,62.6141-41.323,26.3599-90.1597,49.8278-137.7361,38.0416-44.6339-11.0571-79.6359-51.5503-125.5188-54.5821-34.2732-2.2646-65.8721,17.1113-94.2266,36.4968-8.4679,5.7894-18.2291,11.9368-28.2419,9.709-8.6791-1.931-14.7416-9.6392-19.4343-17.1912-42.8984-69.0379-30.1866-160.2136,4.631-233.6591,16.5443-34.8993,37.6744-67.7593,50.3645-104.2372s16.0032-78.6592-2.8259-112.3807c-12.471-22.3345-33.2039-38.6261-50.2758-57.6762-23.24-25.9329-40.2814-58.7882-41.4197-93.5922-1.1382-34.804,15.8276-71.1511,46.5616-87.5227,31.5997-16.8329,70.391-10.441,104.4724.5292,34.0814,10.9702,67.8342,26.2573,103.6372,26.0936,55.6918-.2547,103.3869-37.1533,153.9984-60.3938,60.9667-27.9956,130.6225-36.6987,196.6032-24.5645,52.729,9.6972,102.1581,32.0767,153.419,47.7834,30.896,9.4668,63.017,16.434,95.4561,16.6356,21.0561.1309,45.3301-8.3695,65.5432-.1047,18.1779,7.4327,36.6942,22.7682,49.837,37.0532,31.3,34.0204,46.6583,82.1466,45.0435,127.9743Zm-7.4563-197.7502c.5808,8.592-4.3462,16.9523-12.7712,20.3303-8.4253,3.3781-17.7629.7371-23.2788-5.8761-7.9919,3.2074-17.4656,1.1051-23.2819-5.8638-5.8163-6.9689-6.1901-16.6658-1.6049-23.9553-5.5201-6.6097-6.4484-16.2692-1.6179-23.9543,4.8306-7.6851,13.9375-11.0372,22.287-8.929,4.5804-7.2924,13.4803-11.1602,22.282-8.9409,8.8016,2.2193,14.8038,9.8445,15.379,18.4369,8.3508,2.1028,14.7795,9.372,15.3888,18.4286.6093,9.0567-4.788,17.1213-12.7821,20.3236Z"/></g><path d="m1239.3938,204.8973c-4.377-25.3284-12.0417-50.2112-23.9833-73.0276-8.1836-15.6361-22.5531-45.5869-42.3802-47.1273-12.0764-.9382-25.7434,3.3505-37.9097,4.1798-13.9146.9485-27.8785,1.0611-41.813.5319-27.8994-1.0594-55.6378-4.73-83.1132-9.5708-55.9349-9.8551-110.8565-24.6763-166.772-34.6297-60.9501-10.8497-124.2105-15.7828-184.7185.3488-42.6973,11.3832-82.2762,32.7396-125.1437,43.4636-61.4524,15.3732-126.2746,8.1003-188.4207-4.171-41.032-8.1022-82.0509-18.3872-123.875-18.5027-41.8242-.1155-85.5871,11.2629-115.2615,40.7366-46.0472,45.7358-45.8438,120.5779-29.7687,183.4564,16.075,62.8785,44.9153,123.6636,45.7253,188.5594,1.0178,81.5504-42.3108,157.1492-53.052,237.9956-9.6309,72.4893,7.2921,145.5856,24.1021,216.7535,6.2603,26.5045,13.1485,54.2375,31.4494,74.4057,31.4788,34.6904,85.9491,35.6291,131.4554,24.5156,62.0382-15.1508,119.658-47.5499,183.0361-55.3919,76.6259-9.4813,152.2917,17.7786,227.7527,34.1199,100.6159,21.7886,205.374,24.2831,306.913,7.3084,29.4395-4.9215,59.2028-11.692,84.7849-27.0694,53.4791-32.1464,79.4447-96.3746,87.5736-158.24,8.1292-61.8655,2.048-124.8776,9.2229-186.861,11.423-98.6796,55.7803-190.3914,77.689-287.2839,11.3859-50.3546,15.3352-103.4172,6.5073-154.5Zm-232.1315-72.868c1.8306-6.1843,7.418-10.2245,13.5347-10.3838,1.7348-5.8677,7.0818-10.221,13.5291-10.3911,6.4474-.17,12.0164,3.8954,14.0581,9.6635,6.1166-.1633,11.9091,3.5768,14.0631,9.656,2.1542,6.0792.0087,12.6319-4.8462,16.3561,2.0454,5.7668.2783,12.4316-4.8376,16.3587-5.1161,3.9272-12.011,3.9116-17.0532.4453-4.8525,3.7274-11.7371,4.1064-17.053.4543-5.316-3.6521-7.4318-10.2145-5.6932-16.0811-5.0444-3.4631-7.5323-9.8936-5.7017-16.0779Zm-776.074-6.0015c1.4809-8.9555,8.5814-15.5701,17.0964-16.8566,1.4022-8.4966,8.1125-15.5067,17.0872-16.8657,8.9749-1.359,17.4598,3.35,21.3148,11.0506,8.5141-1.2921,17.2546,2.9237,21.3205,11.0392,4.066,8.1156,2.2094,17.6404-3.9231,23.6863,3.8599,7.6981,2.5514,17.3136-3.9106,23.6883-6.462,6.3748-16.0943,7.5524-23.7393,3.5884-6.1286,6.0497-15.6778,7.7767-23.7374,3.6009-8.0597-4.1758-12.1562-12.9728-10.7485-21.4686-7.6475-3.9591-12.2408-12.5072-10.76-21.4628Zm-67.4836,396.0267c-4.819-5.774-5.1287-13.8082-1.3298-19.8478-4.5735-5.4763-5.3426-13.4796-1.3404-19.847,4.0023-6.3674,11.5476-9.1447,18.4655-7.3979,3.795-6.0421,11.1689-9.2466,18.4614-7.4079,7.2924,1.8388,12.2654,8.1566,12.7421,15.2756,6.919,1.7422,12.2454,7.765,12.7501,15.2688.5048,7.5038-3.967,14.1856-10.5904,16.8388.4811,7.1187-3.601,14.0456-10.5815,16.8444-6.9805,2.7988-14.7172.6107-19.2873-4.8685-6.6216,2.6574-14.4709.9156-19.2898-4.8584Zm633.5419,412.9984c.9749,14.4236-7.296,28.4584-21.4396,34.1292-14.1436,5.6709-29.8193,1.2374-39.0788-9.8644-13.4165,5.3843-29.3202,1.8552-39.084-9.8438-9.764-11.699-10.3915-27.9775-2.6943-40.2146-9.2667-11.0959-10.825-27.3117-2.7158-40.213,8.1092-12.9011,23.3972-18.5284,37.4138-14.9893,7.6892-12.242,22.6299-18.7349,37.4055-15.0094,14.7756,3.7256,24.8516,16.5264,25.8173,30.9506,14.0189,3.53,24.811,15.7331,25.8337,30.9368,1.0228,15.2038-8.0377,28.7422-21.4577,34.118Zm116.1516,20.4148c2.7654,8.1555.1481,17.4999-7.1285,22.9262-7.2766,5.4263-16.9794,5.2692-24.0071.2923-6.9017,5.1503-16.5977,5.5486-24.007.3049-7.4094-5.2437-10.2582-14.5201-7.6965-22.7419-7.0309-4.9724-10.4061-14.0706-7.7087-22.7377,2.6974-8.6671,10.6396-14.2432,19.2505-14.3475,2.5564-8.2234,10.1663-14.2448,19.2427-14.3577,9.0764-.1129,16.8338,5.7175,19.594,13.8747,8.6109-.1099,16.6893,5.267,19.6014,13.8643,2.9122,8.5973-.2356,17.7766-7.1407,22.9225Zm254.7216-588.8676c-2.4025,68.1814-35.5294,131.3698-72.6895,188.5851-26.2156,40.3639-56.2488,86.6985-42.7762,132.9044,11.3801,39.0295,51.6324,65.7917,58.5343,105.8563,6.4595,37.4955-20.8289,75.0767-56.0127,89.5585-35.1841,14.4819-75.6454,9.7675-111.6166-2.6304-35.9713-12.398-68.9766-31.9653-103.6277-47.6796-34.6511-15.7142-72.4338-27.7571-110.2562-23.6207-48.7241,5.3287-90.1202,36.2543-131.4433,62.6141-41.323,26.3599-90.1597,49.8278-137.7361,38.0416-44.6339-11.0571-79.6359-51.5503-125.5188-54.5821-34.2732-2.2646-65.8721,17.1113-94.2266,36.4968-8.4679,5.7894-18.2291,11.9368-28.2419,9.709-8.6791-1.931-14.7416-9.6392-19.4343-17.1912-42.8984-69.0379-30.1866-160.2136,4.631-233.6591,16.5443-34.8993,37.6744-67.7593,50.3645-104.2372s16.0032-78.6592-2.8259-112.3807c-12.471-22.3345-33.2039-38.6261-50.2758-57.6762-23.24-25.9329-40.2814-58.7882-41.4197-93.5922-1.1382-34.804,15.8276-71.1511,46.5616-87.5227,31.5997-16.8329,70.391-10.441,104.4724.5292,34.0814,10.9702,67.8342,26.2573,103.6372,26.0936,55.6918-.2547,103.3869-37.1533,153.9984-60.3938,60.9667-27.9956,130.6225-36.6987,196.6032-24.5645,52.729,9.6972,102.1581,32.0767,153.419,47.7834,30.896,9.4668,63.017,16.434,95.4561,16.6356,21.0561.1309,45.3301-8.3695,65.5432-.1047,18.1779,7.4327,36.6942,22.7682,49.837,37.0532,31.3,34.0204,46.6583,82.1466,45.0435,127.9743Zm-7.4563-197.7502c.5808,8.592-4.3462,16.9523-12.7712,20.3303-8.4253,3.3781-17.7629.7371-23.2788-5.8761-7.9919,3.2074-17.4656,1.1051-23.2819-5.8638-5.8163-6.9689-6.1901-16.6658-1.6049-23.9553-5.5201-6.6097-6.4484-16.2692-1.6179-23.9543,4.8306-7.6851,13.9375-11.0372,22.287-8.929,4.5804-7.2924,13.4803-11.1602,22.282-8.9409,8.8016,2.2193,14.8038,9.8445,15.379,18.4369,8.3508,2.1028,14.7795,9.372,15.3888,18.4286.6093,9.0567-4.788,17.1213-12.7821,20.3236Z" style="fill:#ffd58a;"/><path d="m1235.8857,578.0237c-2.0923-6.6422-8.2644-11.4885-15.6045-11.5524-7.3402-.0638-13.5957,4.6745-15.803,11.2794-6.9636-.0629-13.48,4.3097-15.8091,11.2709-2.3289,6.9612.2445,14.3746,5.844,18.515-2.2117,6.6035-.0669,14.1521,5.834,18.5181,5.9009,4.3661,13.7466,4.2097,19.4147.1636,5.5968,4.1439,13.4387,4.4367,19.4146.1739,5.9758-4.2628,8.2516-11.7729,6.1552-18.4138,5.6707-4.0424,8.3723-11.41,6.1648-18.4106-2.2075-7.0005-8.647-11.4857-15.6106-11.544Z" style="fill:#ffd58a;"/><path d="m472.5471,60.1529c3.8951,4.6671,10.2395,6.075,15.5917,3.927,3.6939,4.4288,9.9474,6.1974,15.5897,3.9352s8.9418-7.8611,8.5528-13.6151c5.3536-2.1445,8.9681-7.5453,8.5601-13.6105-.408-6.0652-4.7133-10.9333-10.3058-12.3416-.3853-5.7542-4.4048-10.8608-10.2992-12.347-5.8944-1.4862-11.8547,1.104-14.9221,5.9877-5.5916-1.4119-11.6904.833-14.9254,5.9797s-2.6133,11.6156,1.0834,16.0421c-3.0707,4.8817-2.8204,11.3756,1.0748,16.0427Z" style="fill:#ffd58a;"/><path d="m65.0464,1002.4627c-2.0903-4.725-6.9448-7.3604-11.8207-6.858-1.9817-4.4833-6.6774-7.3922-11.8171-6.8643-5.1397.5279-9.1461,4.3304-10.175,9.123-4.8763.4991-9.0938,4.0662-10.1801,9.1175-1.0862,5.0513,1.2921,10.0367,5.5322,12.4963-1.0321,4.7919,1.0571,9.9053,5.5255,12.4993,4.4684,2.5941,9.9447,1.8727,13.5942-1.3998,4.2385,2.4624,9.7471,2.0555,13.595-1.3926,3.8478-3.4481,4.8541-8.8793,2.8695-13.3615,3.6516-3.2701,4.967-8.6348,2.8766-13.3599Z" style="fill:#ffd58a;"/><g style="mix-blend-mode:multiply; opacity:.15;"><path d="m7,7v1080h1280V7H7Zm470.3889,28.0682c3.235-5.1467,9.3337-7.3915,14.9254-5.9797,3.0674-4.8837,9.0277-7.4739,14.9221-5.9877,5.8943,1.4863,9.9139,6.5928,10.2992,12.347,5.5925,1.4082,9.8978,6.2764,10.3058,12.3416.408,6.0652-3.2065,11.466-8.5601,13.6105.389,5.754-2.9105,11.3529-8.5528,13.6151s-11.8958.4937-15.5897-3.9352c-5.3522,2.1479-11.6966.7401-15.5917-3.927-3.8951-4.6671-4.1454-11.1609-1.0748-16.0427-3.6968-4.4265-4.3184-10.8954-1.0834-16.0421ZM66.3002,1036.1841c-3.8479,3.4481-9.3565,3.855-13.595,1.3926-3.6495,3.2725-9.1258,3.9939-13.5942,1.3998-4.4684-2.594-6.5576-7.7074-5.5255-12.4993-4.2401-2.4596-6.6184-7.4449-5.5322-12.4963,1.0862-5.0513,5.3037-8.6183,10.1801-9.1175,1.0289-4.7926,5.0353-8.5951,10.175-9.123,5.1398-.5278,9.8354,2.381,11.8171,6.8643,4.876-.5024,9.7305,2.1329,11.8207,6.858,2.0903,4.7251.775,10.0898-2.8766,13.3599,1.9846,4.4821.9783,9.9133-2.8695,13.3615Zm1086.6744-195.6419c-8.1289,61.8654-34.0945,126.0936-87.5736,158.24-25.582,15.3774-55.3454,22.1479-84.7849,27.0694-101.5389,16.9747-206.2971,14.4802-306.913-7.3084-75.4611-16.3413-151.1269-43.6011-227.7527-34.1199-63.3782,7.842-120.9979,40.2411-183.0361,55.3919-45.5063,11.1135-99.9766,10.1748-131.4554-24.5156-18.3009-20.1682-25.1891-47.9012-31.4494-74.4057-16.8099-71.168-33.733-144.2643-24.1021-216.7535,10.7412-80.8464,54.0698-156.4452,53.052-237.9956-.81-64.8958-29.6503-125.6809-45.7253-188.5594-16.0751-62.8785-16.2784-137.7206,29.7687-183.4564,29.6744-29.4738,73.4373-40.8521,115.2615-40.7366,41.8241.1155,82.843,10.4005,123.875,18.5027,62.1461,12.2714,126.9683,19.5442,188.4207,4.171,42.8676-10.724,82.4465-32.0804,125.1437-43.4636,60.508-16.1316,123.7684-11.1984,184.7185-.3488,55.9155,9.9534,110.8371,24.7746,166.772,34.6297,27.4754,4.8408,55.2138,8.5114,83.1132,9.5708,13.9344.5292,27.8984.4166,41.813-.5319,12.1663-.8293,25.8333-5.118,37.9097-4.1798,19.8271,1.5404,34.1967,31.4911,42.3802,47.1273,11.9415,22.8163,19.6063,47.6992,23.9833,73.0276,8.8279,51.0828,4.8785,104.1454-6.5073,154.5-21.9087,96.8925-66.266,188.6042-77.689,287.2839-7.1749,61.9833-1.0938,124.9955-9.2229,186.861Zm99.3569-225.5638c2.0964,6.6409-.1793,14.1511-6.1552,18.4138-5.9758,4.2628-13.8177,3.97-19.4146-.1739-5.6681,4.046-13.5138,4.2025-19.4147-.1636-5.9009-4.366-8.0457-11.9147-5.834-18.5181-5.5995-4.1403-8.1729-11.5538-5.844-18.515,2.3291-6.9612,8.8455-11.3337,15.8091-11.2709,2.2073-6.6049,8.4628-11.3431,15.803-11.2794,7.3401.0638,13.5122,4.9102,15.6045,11.5524,6.9636.0583,13.4031,4.5435,15.6106,11.544,2.2075,7.0006-.4941,14.3682-6.1648,18.4106Z"/></g><path d="m0,0v1080h1280V0H0Zm470.3889,28.0682c3.235-5.1467,9.3337-7.3915,14.9254-5.9797,3.0674-4.8837,9.0277-7.4739,14.9221-5.9877,5.8943,1.4863,9.9139,6.5928,10.2992,12.347,5.5925,1.4082,9.8978,6.2764,10.3058,12.3416.408,6.0652-3.2065,11.466-8.5601,13.6105.389,5.754-2.9105,11.3529-8.5528,13.6151s-11.8958.4937-15.5897-3.9352c-5.3522,2.1479-11.6966.7401-15.5917-3.927-3.8951-4.6671-4.1454-11.1609-1.0748-16.0427-3.6968-4.4265-4.3184-10.8954-1.0834-16.0421ZM59.3002,1029.1841c-3.8479,3.4481-9.3565,3.855-13.595,1.3926-3.6495,3.2725-9.1258,3.9939-13.5942,1.3998-4.4684-2.594-6.5576-7.7074-5.5255-12.4993-4.2401-2.4596-6.6184-7.4449-5.5322-12.4963,1.0862-5.0513,5.3037-8.6183,10.1801-9.1175,1.0289-4.7926,5.0353-8.5951,10.175-9.123,5.1398-.5278,9.8354,2.381,11.8171,6.8643,4.876-.5024,9.7305,2.1329,11.8207,6.858,2.0903,4.7251.775,10.0898-2.8766,13.3599,1.9846,4.4821.9783,9.9133-2.8695,13.3615Zm1086.6744-195.6419c-8.1289,61.8654-34.0945,126.0936-87.5736,158.24-25.582,15.3774-55.3454,22.1479-84.7849,27.0694-101.5389,16.9747-206.2971,14.4802-306.913-7.3084-75.4611-16.3413-151.1269-43.6011-227.7527-34.1199-63.3782,7.842-120.9979,40.2411-183.0361,55.3919-45.5063,11.1135-99.9766,10.1748-131.4554-24.5156-18.3009-20.1682-25.1891-47.9012-31.4494-74.4057-16.8099-71.168-33.733-144.2643-24.1021-216.7535,10.7412-80.8464,54.0698-156.4452,53.052-237.9956-.81-64.8958-29.6503-125.6809-45.7253-188.5594-16.0751-62.8785-16.2784-137.7206,29.7687-183.4564,29.6744-29.4738,73.4373-40.8521,115.2615-40.7366,41.8241.1155,82.843,10.4005,123.875,18.5027,62.1461,12.2714,126.9683,19.5442,188.4207,4.171,42.8676-10.724,82.4465-32.0804,125.1437-43.4636,60.508-16.1316,123.7684-11.1984,184.7185-.3488,55.9155,9.9534,110.8371,24.7746,166.772,34.6297,27.4754,4.8408,55.2138,8.5114,83.1132,9.5708,13.9344.5292,27.8984.4166,41.813-.5319,12.1663-.8293,25.8333-5.118,37.9097-4.1798,19.8271,1.5404,34.1967,31.4911,42.3802,47.1273,11.9415,22.8163,19.6063,47.6992,23.9833,73.0276,8.8279,51.0828,4.8785,104.1454-6.5073,154.5-21.9087,96.8925-66.266,188.6042-77.689,287.2839-7.1749,61.9833-1.0938,124.9955-9.2229,186.861Zm99.3569-225.5638c2.0964,6.6409-.1793,14.1511-6.1552,18.4138-5.9758,4.2628-13.8177,3.97-19.4146-.1739-5.6681,4.046-13.5138,4.2025-19.4147-.1636-5.9009-4.366-8.0457-11.9147-5.834-18.5181-5.5995-4.1403-8.1729-11.5538-5.844-18.515,2.3291-6.9612,8.8455-11.3337,15.8091-11.2709,2.2073-6.6049,8.4628-11.3431,15.803-11.2794,7.3401.0638,13.5122,4.9102,15.6045,11.5524,6.9636.0583,13.4031,4.5435,15.6106,11.544,2.2075,7.0006-.4941,14.3682-6.1648,18.4106Z" style="fill:#fcdeae;"/></g></g></g></svg>